<svg width="472" height="240" viewBox="0 0 472 240" fill="none" xmlns="http://www.w3.org/2000/svg">
<path d="M447.883 0H23.4742C10.5097 0 0 10.5097 0 23.4742V215.962C0 228.927 10.5097 239.437 23.4742 239.437H447.883C460.847 239.437 471.357 228.927 471.357 215.962V23.4742C471.357 10.5097 460.847 0 447.883 0Z" fill="#CC9DFF"/>
<path d="M100.489 114.778C109.06 114.778 116.008 107.917 116.008 99.4543C116.008 90.9914 109.06 84.1309 100.489 84.1309C91.9183 84.1309 84.9702 90.9914 84.9702 99.4543C84.9702 107.917 91.9183 114.778 100.489 114.778Z" fill="#363636"/>
<path d="M76.9492 100.986H78.5142V99.5843C78.5236 95.5076 79.6738 91.5149 81.8344 88.0578C83.9949 84.6008 87.0799 81.8174 90.7402 80.0224C89.6567 77.5268 87.9172 75.3714 85.7071 73.7848C83.4968 72.1984 80.8982 71.2402 78.1872 71.012C75.4759 70.7839 72.7538 71.2944 70.3095 72.489C67.8651 73.6839 65.79 75.5182 64.3046 77.7975C62.8191 80.0771 61.9787 82.716 61.8729 85.4346C61.7668 88.1534 62.3989 90.8498 63.7024 93.2379C65.006 95.6261 66.9318 97.6165 69.2757 98.998C71.6196 100.379 74.2937 101.1 77.0144 101.084L76.9492 100.986ZM122.528 99.4538V100.856H124.093C126.778 100.829 129.405 100.079 131.699 98.6843C133.993 97.29 135.869 95.3031 137.129 92.9325C138.389 90.562 138.986 87.8959 138.859 85.2144C138.731 82.5327 137.883 79.9353 136.403 77.6951C134.924 75.4552 132.868 73.6555 130.452 72.4853C128.036 71.3151 125.349 70.8179 122.674 71.0461C119.999 71.2742 117.436 72.2193 115.252 73.7818C113.07 75.3442 111.348 77.4663 110.269 79.9247C113.931 81.7125 117.019 84.4888 119.186 87.94C121.352 91.3912 122.51 95.3792 122.528 99.4538ZM114.475 116.31C120.958 117.593 127.225 119.788 133.092 122.83C133.918 123.284 134.667 123.867 135.309 124.558H152.653V113.408C152.656 112.98 152.543 112.56 152.325 112.192C152.106 111.824 151.791 111.523 151.414 111.321C142.964 106.901 133.564 104.607 124.028 104.638H121.876C120.746 109.231 118.148 113.329 114.475 116.31ZM63.0928 130.883C63.0869 129.241 63.5304 127.629 64.3752 126.221C65.22 124.813 66.4339 123.663 67.8855 122.895C73.7517 119.853 80.0196 117.658 86.5017 116.375C82.8473 113.419 80.2503 109.358 79.101 104.801H76.9492C67.4128 104.77 58.0128 107.064 49.5625 111.484C49.1855 111.686 48.871 111.987 48.6527 112.355C48.4344 112.723 48.3205 113.143 48.3238 113.571V134.404H63.0928V130.883ZM111.769 149.695H131.201V154.259H111.769V149.695Z" fill="#363636"/>
<path d="M148.773 131.991H126.375V128.731C126.375 127.867 126.032 127.037 125.42 126.426C124.809 125.814 123.98 125.471 123.115 125.471C122.25 125.471 121.421 125.814 120.81 126.426C120.198 127.037 119.855 127.867 119.855 128.731V131.991H113.53V122.765C109.24 121.864 104.871 121.395 100.488 121.363C90.1981 121.32 80.0549 123.806 70.95 128.601C70.5446 128.811 70.2051 129.13 69.9692 129.521C69.7333 129.912 69.6101 130.361 69.6133 130.818V149.108H92.7941V168.963C92.7941 169.828 93.1375 170.657 93.749 171.269C94.3605 171.88 95.1896 172.224 96.0544 172.224H148.773C149.638 172.224 150.467 171.88 151.079 171.269C151.69 170.657 152.034 169.828 152.034 168.963V135.252C152.034 134.387 151.69 133.558 151.079 132.946C150.467 132.335 149.638 131.991 148.773 131.991ZM145.513 165.768H99.3148V138.512H119.855V141.479C119.855 142.344 120.198 143.173 120.81 143.784C121.421 144.396 122.25 144.739 123.115 144.739C123.98 144.739 124.809 144.396 125.42 143.784C126.032 143.173 126.375 142.344 126.375 141.479V138.512H145.513V165.768Z" fill="#363636"/>
<path d="M185.876 110.799L189.784 86.1506H204.221L203.833 88.6154H192.214L190.7 98.0873H200.77L200.383 100.552H190.312L188.693 110.799H185.876ZM214.993 111.151C214.571 111.151 214.183 111.08 213.831 110.939C213.503 110.799 213.209 110.587 212.951 110.306C212.716 110.024 212.54 109.695 212.423 109.32C211.93 109.695 211.39 110.024 210.803 110.306C210.216 110.564 209.594 110.763 208.937 110.904C208.303 111.068 207.658 111.151 207 111.151C205.85 111.151 204.864 110.916 204.043 110.446C203.221 109.953 202.587 109.226 202.141 108.263C201.719 107.277 201.507 106.092 201.507 104.707C201.507 102.007 201.918 99.6835 202.74 97.7351C203.585 95.7633 204.77 94.2492 206.296 93.1929C207.845 92.1131 209.653 91.5732 211.719 91.5732C212.235 91.5732 212.751 91.5966 213.268 91.6436C213.808 91.6905 214.324 91.7727 214.817 91.8901C215.31 91.984 215.78 92.1013 216.226 92.2422C216.695 92.3596 217.118 92.5004 217.493 92.6647C217.118 94.9887 216.789 96.984 216.507 98.6506C216.249 100.294 216.026 101.679 215.838 102.806C215.674 103.909 215.533 104.801 215.416 105.482C215.322 106.139 215.251 106.632 215.204 106.96C215.158 107.266 215.134 107.442 215.134 107.489C215.134 107.911 215.216 108.228 215.381 108.439C215.568 108.627 215.838 108.721 216.19 108.721C216.355 108.721 216.507 108.709 216.648 108.686C216.812 108.662 216.977 108.627 217.141 108.58L217.071 110.693C216.812 110.834 216.496 110.939 216.12 111.01C215.768 111.104 215.392 111.151 214.993 111.151ZM212.317 107.418L214.359 94.3901C213.984 94.1788 213.538 94.0262 213.021 93.9323C212.528 93.8384 211.989 93.7915 211.402 93.7915C210.064 93.7915 208.855 94.2492 207.775 95.1647C206.719 96.0567 205.873 97.2891 205.24 98.8619C204.629 100.411 204.324 102.207 204.324 104.249C204.324 105.705 204.653 106.82 205.31 107.594C205.991 108.369 206.906 108.756 208.057 108.756C208.526 108.756 209.007 108.698 209.5 108.58C210.017 108.463 210.521 108.31 211.014 108.122C211.507 107.911 211.942 107.676 212.317 107.418ZM225.176 111.151C223.674 111.151 222.406 110.892 221.373 110.376C220.34 109.86 219.553 109.12 219.013 108.158C218.497 107.195 218.239 106.033 218.239 104.672C218.239 102.77 218.462 101.022 218.908 99.4253C219.354 97.8056 220.011 96.4088 220.88 95.2351C221.749 94.0614 222.793 93.1577 224.014 92.5239C225.235 91.8901 226.608 91.5732 228.134 91.5732C228.697 91.5732 229.261 91.5966 229.824 91.6436C230.387 91.6905 230.951 91.761 231.514 91.8549C232.077 91.9488 232.617 92.0896 233.134 92.2774L232.324 94.6013C231.549 94.3901 230.81 94.2492 230.106 94.1788C229.425 94.0849 228.732 94.038 228.028 94.038C226.995 94.038 226.056 94.2962 225.211 94.8126C224.366 95.329 223.627 96.0567 222.993 96.9957C222.359 97.9347 221.866 99.0262 221.514 100.27C221.162 101.491 220.986 102.806 220.986 104.214C220.986 105.176 221.185 105.998 221.585 106.679C222.007 107.336 222.582 107.841 223.31 108.193C224.038 108.545 224.906 108.721 225.916 108.721C226.479 108.721 227.019 108.698 227.535 108.651C228.052 108.604 228.545 108.533 229.014 108.439C229.507 108.345 229.977 108.228 230.423 108.087L230.704 110.306C230.188 110.47 229.636 110.622 229.049 110.763C228.462 110.881 227.84 110.975 227.183 111.045C226.549 111.115 225.88 111.151 225.176 111.151ZM220.81 117.876L221.303 116.045C221.608 116.233 221.913 116.362 222.218 116.432C222.523 116.526 222.829 116.573 223.134 116.573C223.815 116.573 224.366 116.327 224.789 115.834C225.211 115.364 225.423 114.672 225.423 113.756C225.423 113.169 225.317 112.63 225.106 112.137C224.918 111.644 224.577 111.162 224.085 110.693H226.303C226.678 111.092 226.972 111.585 227.183 112.172C227.418 112.759 227.535 113.392 227.535 114.073C227.535 114.918 227.359 115.681 227.007 116.362C226.678 117.043 226.209 117.571 225.599 117.946C225.012 118.345 224.319 118.545 223.521 118.545C223.005 118.545 222.535 118.498 222.113 118.404C221.69 118.31 221.256 118.134 220.81 117.876ZM245.566 111.151C245.143 111.151 244.756 111.08 244.404 110.939C244.075 110.799 243.782 110.587 243.523 110.306C243.289 110.024 243.113 109.695 242.995 109.32C242.502 109.695 241.962 110.024 241.376 110.306C240.789 110.564 240.167 110.763 239.509 110.904C238.876 111.068 238.23 111.151 237.573 111.151C236.423 111.151 235.437 110.916 234.615 110.446C233.793 109.953 233.16 109.226 232.714 108.263C232.291 107.277 232.08 106.092 232.08 104.707C232.08 102.007 232.491 99.6835 233.312 97.7351C234.157 95.7633 235.343 94.2492 236.869 93.1929C238.418 92.1131 240.225 91.5732 242.291 91.5732C242.808 91.5732 243.324 91.5966 243.84 91.6436C244.38 91.6905 244.897 91.7727 245.39 91.8901C245.883 91.984 246.352 92.1013 246.798 92.2422C247.268 92.3596 247.69 92.5004 248.066 92.6647C247.69 94.9887 247.362 96.984 247.08 98.6506C246.822 100.294 246.599 101.679 246.411 102.806C246.247 103.909 246.106 104.801 245.988 105.482C245.894 106.139 245.824 106.632 245.777 106.96C245.73 107.266 245.707 107.442 245.707 107.489C245.707 107.911 245.789 108.228 245.953 108.439C246.141 108.627 246.411 108.721 246.763 108.721C246.927 108.721 247.08 108.709 247.221 108.686C247.385 108.662 247.549 108.627 247.714 108.58L247.643 110.693C247.385 110.834 247.068 110.939 246.693 111.01C246.34 111.104 245.965 111.151 245.566 111.151ZM242.89 107.418L244.932 94.3901C244.556 94.1788 244.11 94.0262 243.594 93.9323C243.101 93.8384 242.561 93.7915 241.974 93.7915C240.636 93.7915 239.427 94.2492 238.347 95.1647C237.291 96.0567 236.446 97.2891 235.812 98.8619C235.202 100.411 234.897 102.207 234.897 104.249C234.897 105.705 235.225 106.82 235.883 107.594C236.563 108.369 237.479 108.756 238.629 108.756C239.099 108.756 239.58 108.698 240.073 108.58C240.589 108.463 241.094 108.31 241.587 108.122C242.08 107.911 242.514 107.676 242.89 107.418ZM257.08 110.799L261.023 86.0802C261.939 86.0333 262.737 85.9981 263.418 85.9746C264.122 85.9276 264.744 85.8924 265.284 85.8689C265.847 85.8455 266.329 85.8337 266.728 85.8337C267.127 85.8103 267.491 85.7985 267.819 85.7985C269.908 85.7985 271.61 86.045 272.925 86.538C274.239 87.0309 275.19 87.7821 275.777 88.7915C276.387 89.8009 276.693 91.0685 276.693 92.5943C276.693 94.214 276.47 95.6342 276.023 96.8549C275.601 98.0755 274.955 99.1084 274.087 99.9535C273.218 100.775 272.127 101.397 270.812 101.82C269.521 102.219 268.019 102.418 266.305 102.418C265.624 102.418 265.026 102.418 264.509 102.418C264.016 102.418 263.512 102.407 262.995 102.383C262.502 102.36 261.927 102.336 261.27 102.313L259.897 110.799H257.08ZM263.453 88.3337L261.622 99.9182C262.279 99.9417 262.854 99.9652 263.347 99.9887C263.864 100.012 264.357 100.036 264.826 100.059C265.296 100.059 265.765 100.059 266.235 100.059C267.573 100.059 268.723 99.8948 269.685 99.5661C270.648 99.2375 271.434 98.768 272.045 98.1577C272.655 97.5474 273.101 96.8197 273.383 95.9746C273.688 95.106 273.84 94.1319 273.84 93.052C273.84 91.9018 273.629 90.9746 273.207 90.2704C272.808 89.5661 272.162 89.038 271.27 88.6859C270.378 88.3337 269.181 88.1577 267.678 88.1577C267.397 88.1577 267.115 88.1694 266.833 88.1929C266.552 88.1929 266.246 88.2046 265.918 88.2281C265.613 88.2281 265.249 88.2398 264.826 88.2633C264.427 88.2868 263.969 88.3103 263.453 88.3337ZM289.397 111.151C288.974 111.151 288.587 111.08 288.235 110.939C287.906 110.799 287.613 110.587 287.354 110.306C287.12 110.024 286.944 109.695 286.826 109.32C286.333 109.695 285.793 110.024 285.207 110.306C284.62 110.564 283.998 110.763 283.34 110.904C282.707 111.068 282.061 111.151 281.404 111.151C280.254 111.151 279.268 110.916 278.446 110.446C277.624 109.953 276.991 109.226 276.545 108.263C276.122 107.277 275.911 106.092 275.911 104.707C275.911 102.007 276.322 99.6835 277.143 97.7351C277.988 95.7633 279.174 94.2492 280.7 93.1929C282.249 92.1131 284.056 91.5732 286.122 91.5732C286.639 91.5732 287.155 91.5966 287.671 91.6436C288.211 91.6905 288.728 91.7727 289.221 91.8901C289.714 91.984 290.183 92.1013 290.629 92.2422C291.099 92.3596 291.521 92.5004 291.897 92.6647C291.521 94.9887 291.192 96.984 290.911 98.6506C290.653 100.294 290.43 101.679 290.242 102.806C290.078 103.909 289.937 104.801 289.819 105.482C289.725 106.139 289.655 106.632 289.608 106.96C289.561 107.266 289.538 107.442 289.538 107.489C289.538 107.911 289.62 108.228 289.784 108.439C289.972 108.627 290.242 108.721 290.594 108.721C290.758 108.721 290.911 108.709 291.052 108.686C291.216 108.662 291.38 108.627 291.545 108.58L291.474 110.693C291.216 110.834 290.899 110.939 290.523 111.01C290.171 111.104 289.796 111.151 289.397 111.151ZM286.721 107.418L288.763 94.3901C288.387 94.1788 287.941 94.0262 287.425 93.9323C286.932 93.8384 286.392 93.7915 285.805 93.7915C284.467 93.7915 283.258 94.2492 282.178 95.1647C281.122 96.0567 280.277 97.2891 279.643 98.8619C279.033 100.411 278.728 102.207 278.728 104.249C278.728 105.705 279.056 106.82 279.714 107.594C280.394 108.369 281.31 108.756 282.46 108.756C282.93 108.756 283.411 108.698 283.904 108.58C284.42 108.463 284.925 108.31 285.418 108.122C285.911 107.911 286.345 107.676 286.721 107.418ZM297.955 91.9253L297.568 94.2492C298.319 93.6154 299.012 93.1107 299.646 92.7351C300.279 92.3361 300.89 92.0427 301.477 91.8549C302.087 91.6671 302.685 91.5732 303.272 91.5732C303.765 91.5732 304.211 91.6084 304.61 91.6788C305.033 91.7492 305.408 91.8431 305.737 91.9605L304.927 94.6013C304.552 94.484 304.153 94.4018 303.73 94.3549C303.331 94.2844 302.944 94.2492 302.568 94.2492C301.817 94.2492 301.019 94.4253 300.174 94.7774C299.352 95.1295 298.448 95.7398 297.462 96.6084L295.209 110.799H292.462L295.455 91.9253H297.955ZM314.373 108.122L314.338 110.341C313.563 110.622 312.812 110.822 312.085 110.939C311.357 111.08 310.653 111.151 309.972 111.151C309.15 111.151 308.446 111.022 307.859 110.763C307.272 110.505 306.815 110.106 306.486 109.566C306.181 109.003 306.028 108.275 306.028 107.383C306.028 107.101 306.04 106.773 306.063 106.397C306.11 105.998 306.157 105.611 306.204 105.235L307.965 94.1084H305.007L305.359 92.207L308.352 91.9253L309.479 87.4535H311.803L311.099 91.9253H316.908L316.521 94.1084H310.747L308.986 105.059C308.962 105.294 308.939 105.517 308.915 105.728C308.892 105.939 308.88 106.139 308.88 106.327C308.88 107.054 309.056 107.63 309.408 108.052C309.784 108.475 310.43 108.686 311.345 108.686C311.815 108.686 312.296 108.639 312.789 108.545C313.305 108.428 313.833 108.287 314.373 108.122ZM317.939 100.658C318.62 100.705 319.336 100.705 320.087 100.658C320.862 100.587 321.613 100.493 322.34 100.376C324.242 100.071 325.721 99.5661 326.777 98.8619C327.857 98.1342 328.397 97.1952 328.397 96.045C328.397 95.2938 328.139 94.7304 327.622 94.3549C327.129 93.9558 326.366 93.7563 325.333 93.7563C323.995 93.7563 322.798 94.1788 321.742 95.0239C320.685 95.8455 319.864 96.9957 319.277 98.4746C318.69 99.93 318.397 101.632 318.397 103.58C318.397 104.707 318.573 105.669 318.925 106.468C319.3 107.242 319.84 107.829 320.545 108.228C321.272 108.604 322.153 108.791 323.185 108.791C323.725 108.791 324.289 108.745 324.876 108.651C325.486 108.557 326.108 108.428 326.742 108.263C327.399 108.099 328.056 107.888 328.714 107.63L329.136 109.883C328.197 110.282 327.164 110.587 326.038 110.799C324.934 111.033 323.831 111.151 322.728 111.151C321.225 111.151 319.946 110.869 318.89 110.306C317.833 109.719 317.023 108.885 316.46 107.806C315.92 106.702 315.65 105.388 315.65 103.862C315.65 102.054 315.873 100.399 316.319 98.8971C316.789 97.3948 317.458 96.1037 318.326 95.0239C319.218 93.9206 320.286 93.0755 321.531 92.4887C322.798 91.8783 324.23 91.5732 325.826 91.5732C326.906 91.5732 327.845 91.7375 328.643 92.0661C329.441 92.3948 330.052 92.8642 330.474 93.4746C330.92 94.0849 331.143 94.8126 331.143 95.6577C331.143 97.3713 330.416 98.8032 328.96 99.9535C327.528 101.104 325.533 101.89 322.974 102.313C322.035 102.477 321.12 102.583 320.228 102.63C319.336 102.653 318.502 102.641 317.728 102.594L317.939 100.658ZM352.899 111.151C352.453 111.151 352.054 111.08 351.702 110.939C351.35 110.799 351.045 110.599 350.786 110.341C350.552 110.059 350.376 109.742 350.258 109.39C349.812 109.695 349.284 109.989 348.674 110.27C348.087 110.529 347.453 110.74 346.772 110.904C346.115 111.068 345.469 111.151 344.836 111.151C343.732 111.151 342.77 110.928 341.948 110.482C341.127 110.036 340.493 109.343 340.047 108.404C339.601 107.465 339.378 106.303 339.378 104.918C339.378 102.923 339.613 101.115 340.082 99.4957C340.575 97.8525 341.244 96.4441 342.089 95.2704C342.958 94.0732 343.967 93.1577 345.117 92.5239C346.291 91.8901 347.559 91.5732 348.92 91.5732C349.671 91.5732 350.352 91.6201 350.962 91.714C351.573 91.8079 352.124 91.937 352.617 92.1013L353.779 84.7422H356.561C356.373 85.9159 356.174 87.1365 355.962 88.4042C355.775 89.6718 355.575 90.9511 355.364 92.2422C355.176 93.5333 354.977 94.8009 354.765 96.045C354.577 97.2657 354.39 98.4394 354.202 99.5661C354.038 100.693 353.873 101.737 353.709 102.7C353.568 103.662 353.439 104.507 353.322 105.235C353.228 105.939 353.146 106.503 353.075 106.925C353.028 107.324 353.005 107.559 353.005 107.63C353.005 107.982 353.087 108.252 353.251 108.439C353.416 108.627 353.674 108.721 354.026 108.721C354.19 108.721 354.354 108.709 354.519 108.686C354.683 108.662 354.836 108.627 354.977 108.58L354.941 110.693C354.636 110.857 354.296 110.975 353.92 111.045C353.545 111.115 353.204 111.151 352.899 111.151ZM345.822 108.686C346.596 108.686 347.359 108.58 348.11 108.369C348.885 108.134 349.577 107.829 350.188 107.453L352.265 94.2492C351.843 94.1319 351.373 94.0262 350.857 93.9323C350.364 93.8384 349.789 93.7915 349.131 93.7915C348.146 93.7915 347.23 94.0849 346.385 94.6718C345.54 95.2586 344.801 96.0567 344.167 97.0661C343.533 98.0755 343.04 99.2375 342.688 100.552C342.359 101.867 342.195 103.252 342.195 104.707C342.195 105.552 342.347 106.28 342.653 106.89C342.958 107.477 343.38 107.923 343.92 108.228C344.484 108.533 345.117 108.686 345.822 108.686ZM358.502 100.658C359.183 100.705 359.899 100.705 360.65 100.658C361.425 100.587 362.176 100.493 362.904 100.376C364.805 100.071 366.284 99.5661 367.34 98.8619C368.42 98.1342 368.96 97.1952 368.96 96.045C368.96 95.2938 368.702 94.7304 368.185 94.3549C367.693 93.9558 366.93 93.7563 365.897 93.7563C364.559 93.7563 363.362 94.1788 362.305 95.0239C361.249 95.8455 360.427 96.9957 359.84 98.4746C359.254 99.93 358.96 101.632 358.96 103.58C358.96 104.707 359.136 105.669 359.488 106.468C359.864 107.242 360.404 107.829 361.108 108.228C361.836 108.604 362.716 108.791 363.749 108.791C364.289 108.791 364.852 108.745 365.439 108.651C366.049 108.557 366.671 108.428 367.305 108.263C367.962 108.099 368.62 107.888 369.277 107.63L369.7 109.883C368.761 110.282 367.728 110.587 366.601 110.799C365.498 111.033 364.394 111.151 363.291 111.151C361.789 111.151 360.509 110.869 359.453 110.306C358.397 109.719 357.587 108.885 357.023 107.806C356.484 106.702 356.214 105.388 356.214 103.862C356.214 102.054 356.437 100.399 356.883 98.8971C357.352 97.3948 358.021 96.1037 358.89 95.0239C359.782 93.9206 360.85 93.0755 362.094 92.4887C363.362 91.8783 364.793 91.5732 366.39 91.5732C367.47 91.5732 368.408 91.7375 369.207 92.0661C370.005 92.3948 370.615 92.8642 371.038 93.4746C371.484 94.0849 371.707 94.8126 371.707 95.6577C371.707 97.3713 370.979 98.8032 369.523 99.9535C368.092 101.104 366.096 101.89 363.538 102.313C362.599 102.477 361.683 102.583 360.791 102.63C359.899 102.653 359.066 102.641 358.291 102.594L358.502 100.658ZM185.488 162.442L191.009 127.885H198.256L206.932 150.118L210.531 127.935H217.432L211.911 162.491H204.714L195.84 141.047L192.39 162.442H185.488ZM227.655 162.935C225.19 162.935 223.12 162.557 221.444 161.801C219.801 161.012 218.552 159.862 217.697 158.35C216.843 156.806 216.416 154.867 216.416 152.533C216.416 150.989 216.514 149.493 216.712 148.047C216.942 146.601 217.27 145.237 217.697 143.956C218.158 142.641 218.733 141.458 219.423 140.407C220.146 139.322 220.984 138.385 221.937 137.597C222.923 136.775 224.04 136.151 225.289 135.723C226.538 135.296 227.934 135.083 229.479 135.083C231.812 135.083 233.784 135.477 235.394 136.266C237.038 137.022 238.286 138.172 239.141 139.716C240.028 141.261 240.472 143.2 240.472 145.533C240.472 147.111 240.357 148.639 240.127 150.118C239.897 151.597 239.552 152.977 239.092 154.259C238.664 155.54 238.106 156.723 237.416 157.808C236.725 158.86 235.904 159.78 234.951 160.568C234.031 161.324 232.946 161.916 231.697 162.343C230.481 162.737 229.134 162.935 227.655 162.935ZM227.556 157.068C228.214 157.036 228.805 156.838 229.331 156.477C229.857 156.115 230.317 155.622 230.711 154.998C231.106 154.374 231.434 153.651 231.697 152.829C231.993 152.007 232.223 151.137 232.387 150.216C232.585 149.296 232.716 148.36 232.782 147.407C232.847 146.453 232.88 145.55 232.88 144.695C232.847 143.381 232.502 142.428 231.845 141.836C231.188 141.245 230.333 140.949 229.282 140.949C228.624 140.949 228.033 141.146 227.507 141.54C226.981 141.935 226.505 142.46 226.077 143.118C225.683 143.742 225.338 144.465 225.042 145.287C224.779 146.108 224.549 146.979 224.352 147.899C224.188 148.787 224.073 149.674 224.007 150.561C223.941 151.449 223.908 152.303 223.908 153.125C223.941 154.538 224.27 155.557 224.894 156.181C225.552 156.773 226.439 157.068 227.556 157.068ZM239.286 161.259L241.11 155.54C241.833 155.836 242.671 156.115 243.624 156.378C244.61 156.608 245.613 156.806 246.631 156.97C247.65 157.101 248.587 157.167 249.441 157.167C250.427 157.167 251.216 157.068 251.808 156.871C252.399 156.674 252.826 156.411 253.089 156.083C253.352 155.721 253.484 155.31 253.484 154.85C253.484 154.324 253.27 153.881 252.843 153.519C252.448 153.158 251.906 152.845 251.216 152.583C250.559 152.32 249.836 152.057 249.047 151.794C248.258 151.531 247.453 151.219 246.631 150.857C245.843 150.463 245.103 149.986 244.413 149.428C243.756 148.869 243.214 148.162 242.786 147.308C242.392 146.453 242.195 145.402 242.195 144.153C242.195 142.707 242.441 141.442 242.934 140.357C243.46 139.24 244.216 138.303 245.202 137.547C246.221 136.759 247.47 136.167 248.948 135.773C250.427 135.345 252.12 135.132 254.026 135.132C255.636 135.132 257.131 135.263 258.512 135.526C259.892 135.789 261.108 136.118 262.16 136.512L260.385 142.23C259.695 142 258.939 141.803 258.117 141.639C257.296 141.442 256.474 141.294 255.653 141.195C254.831 141.097 254.059 141.047 253.336 141.047C252.416 141.047 251.66 141.146 251.068 141.343C250.509 141.54 250.099 141.803 249.836 142.132C249.606 142.46 249.491 142.855 249.491 143.315C249.491 143.808 249.688 144.219 250.082 144.547C250.509 144.843 251.052 145.106 251.709 145.336C252.399 145.566 253.139 145.813 253.927 146.076C254.749 146.338 255.554 146.651 256.343 147.012C257.164 147.374 257.904 147.834 258.561 148.392C259.251 148.951 259.793 149.658 260.188 150.512C260.582 151.334 260.779 152.369 260.779 153.618C260.779 154.998 260.582 156.214 260.188 157.266C259.826 158.284 259.284 159.155 258.561 159.878C257.871 160.601 257.033 161.193 256.047 161.653C255.094 162.08 254.026 162.392 252.843 162.59C251.66 162.82 250.394 162.935 249.047 162.935C247.042 162.935 245.251 162.77 243.674 162.442C242.129 162.146 240.667 161.752 239.286 161.259ZM260.04 161.259L261.864 155.54C262.587 155.836 263.425 156.115 264.378 156.378C265.364 156.608 266.366 156.806 267.385 156.97C268.404 157.101 269.34 157.167 270.195 157.167C271.181 157.167 271.97 157.068 272.561 156.871C273.153 156.674 273.58 156.411 273.843 156.083C274.106 155.721 274.237 155.31 274.237 154.85C274.237 154.324 274.024 153.881 273.596 153.519C273.202 153.158 272.66 152.845 271.97 152.583C271.312 152.32 270.589 152.057 269.8 151.794C269.012 151.531 268.207 151.219 267.385 150.857C266.596 150.463 265.857 149.986 265.167 149.428C264.509 148.869 263.967 148.162 263.54 147.308C263.146 146.453 262.948 145.402 262.948 144.153C262.948 142.707 263.195 141.442 263.688 140.357C264.214 139.24 264.97 138.303 265.955 137.547C266.974 136.759 268.223 136.167 269.702 135.773C271.181 135.345 272.873 135.132 274.779 135.132C276.39 135.132 277.885 135.263 279.265 135.526C280.646 135.789 281.862 136.118 282.913 136.512L281.139 142.23C280.448 142 279.693 141.803 278.871 141.639C278.049 141.442 277.228 141.294 276.406 141.195C275.585 141.097 274.812 141.047 274.089 141.047C273.169 141.047 272.413 141.146 271.822 141.343C271.263 141.54 270.852 141.803 270.589 142.132C270.359 142.46 270.244 142.855 270.244 143.315C270.244 143.808 270.441 144.219 270.836 144.547C271.263 144.843 271.805 145.106 272.462 145.336C273.153 145.566 273.892 145.813 274.681 146.076C275.502 146.338 276.308 146.651 277.096 147.012C277.918 147.374 278.657 147.834 279.315 148.392C280.005 148.951 280.547 149.658 280.941 150.512C281.336 151.334 281.533 152.369 281.533 153.618C281.533 154.998 281.336 156.214 280.941 157.266C280.58 158.284 280.038 159.155 279.315 159.878C278.624 160.601 277.786 161.193 276.8 161.653C275.847 162.08 274.779 162.392 273.596 162.59C272.413 162.82 271.148 162.935 269.8 162.935C267.796 162.935 266.005 162.77 264.427 162.442C262.883 162.146 261.42 161.752 260.04 161.259ZM294.249 162.935C291.784 162.935 289.714 162.557 288.038 161.801C286.394 161.012 285.146 159.862 284.291 158.35C283.437 156.806 283.009 154.867 283.009 152.533C283.009 150.989 283.108 149.493 283.305 148.047C283.535 146.601 283.864 145.237 284.291 143.956C284.751 142.641 285.326 141.458 286.016 140.407C286.739 139.322 287.577 138.385 288.531 137.597C289.516 136.775 290.634 136.151 291.883 135.723C293.131 135.296 294.528 135.083 296.073 135.083C298.406 135.083 300.378 135.477 301.988 136.266C303.631 137.022 304.88 138.172 305.735 139.716C306.622 141.261 307.066 143.2 307.066 145.533C307.066 147.111 306.951 148.639 306.721 150.118C306.491 151.597 306.146 152.977 305.685 154.259C305.258 155.54 304.7 156.723 304.009 157.808C303.319 158.86 302.498 159.78 301.545 160.568C300.624 161.324 299.54 161.916 298.291 162.343C297.075 162.737 295.728 162.935 294.249 162.935ZM294.15 157.068C294.808 157.036 295.399 156.838 295.925 156.477C296.451 156.115 296.911 155.622 297.305 154.998C297.7 154.374 298.028 153.651 298.291 152.829C298.587 152.007 298.817 151.137 298.981 150.216C299.178 149.296 299.31 148.36 299.376 147.407C299.441 146.453 299.474 145.55 299.474 144.695C299.441 143.381 299.096 142.428 298.439 141.836C297.782 141.245 296.927 140.949 295.876 140.949C295.218 140.949 294.627 141.146 294.101 141.54C293.575 141.935 293.099 142.46 292.671 143.118C292.277 143.742 291.932 144.465 291.636 145.287C291.373 146.108 291.143 146.979 290.946 147.899C290.782 148.787 290.667 149.674 290.601 150.561C290.535 151.449 290.502 152.303 290.502 153.125C290.535 154.538 290.864 155.557 291.488 156.181C292.146 156.773 293.033 157.068 294.15 157.068ZM348.047 134.245H338.631L334.195 162.442H326.406L330.892 134.245H321.427L322.561 127.935H349.181L348.047 134.245ZM345.2 162.442L349.439 135.625H356.981L352.742 162.442H345.2ZM354.96 124.681C356.242 124.681 357.195 124.928 357.819 125.421C358.444 125.914 358.756 126.669 358.756 127.688C358.756 128.74 358.542 129.66 358.115 130.449C357.721 131.205 357.146 131.796 356.39 132.223C355.634 132.618 354.697 132.815 353.58 132.815C352.298 132.815 351.345 132.568 350.721 132.076C350.096 131.55 349.784 130.777 349.784 129.759C349.784 128.773 349.965 127.902 350.326 127.146C350.688 126.357 351.247 125.749 352.002 125.322C352.758 124.895 353.744 124.681 354.96 124.681ZM390.092 162.935C389.04 162.935 388.103 162.754 387.282 162.392C386.493 162.031 385.869 161.505 385.408 160.815C384.981 160.092 384.768 159.237 384.768 158.252C384.768 157.923 384.817 157.381 384.916 156.625C385.014 155.869 385.129 154.998 385.261 154.012C385.425 152.993 385.589 151.958 385.754 150.907C385.951 149.822 386.131 148.787 386.296 147.801C386.46 146.815 386.592 145.977 386.69 145.287C386.789 144.597 386.838 144.12 386.838 143.857C386.838 143.2 386.657 142.674 386.296 142.28C385.934 141.853 385.326 141.639 384.472 141.639C383.815 141.639 383.174 141.754 382.549 141.984C381.958 142.214 381.317 142.543 380.627 142.97C380.627 143.101 380.61 143.315 380.577 143.611C380.545 143.907 380.528 144.153 380.528 144.35C380.43 144.942 380.315 145.615 380.183 146.371C380.085 147.094 379.97 147.883 379.838 148.738C379.707 149.592 379.559 150.479 379.394 151.399C379.263 152.32 379.115 153.256 378.951 154.209C378.819 155.162 378.671 156.115 378.507 157.068C378.376 157.989 378.228 158.909 378.063 159.829C377.932 160.749 377.8 161.62 377.669 162.442H370.176C370.34 161.456 370.505 160.404 370.669 159.287C370.866 158.169 371.047 157.036 371.211 155.885C371.408 154.702 371.589 153.568 371.754 152.484C371.951 151.367 372.131 150.331 372.296 149.378C372.46 148.392 372.592 147.505 372.69 146.716C372.822 145.928 372.92 145.303 372.986 144.843C373.052 144.35 373.085 144.038 373.085 143.907C373.085 143.446 373.002 143.052 372.838 142.723C372.674 142.362 372.411 142.083 372.049 141.885C371.721 141.688 371.277 141.59 370.718 141.59C370.16 141.59 369.568 141.705 368.944 141.935C368.319 142.165 367.662 142.46 366.972 142.822L363.916 162.442H356.324L360.563 135.625H367.416L367.07 137.942C368.549 136.956 369.946 136.249 371.261 135.822C372.575 135.362 373.84 135.132 375.056 135.132C376.535 135.132 377.685 135.411 378.507 135.97C379.362 136.529 379.969 137.284 380.331 138.237C381.35 137.514 382.286 136.923 383.141 136.463C384.028 136.003 384.899 135.674 385.754 135.477C386.641 135.247 387.561 135.132 388.514 135.132C389.96 135.132 391.143 135.378 392.063 135.871C393.016 136.331 393.707 136.989 394.134 137.843C394.594 138.665 394.824 139.618 394.824 140.702C394.824 140.998 394.775 141.524 394.676 142.28C394.577 143.036 394.446 143.923 394.282 144.942C394.117 145.928 393.937 146.979 393.739 148.097C393.575 149.181 393.411 150.216 393.246 151.202C393.082 152.188 392.934 153.043 392.803 153.766C392.704 154.489 392.655 154.998 392.655 155.294C392.655 155.655 392.737 155.935 392.901 156.132C393.099 156.329 393.362 156.428 393.69 156.428C393.854 156.428 394.019 156.428 394.183 156.428C394.38 156.395 394.545 156.345 394.676 156.28L394.282 162.146C393.756 162.376 393.099 162.557 392.31 162.688C391.554 162.853 390.815 162.935 390.092 162.935ZM402.324 147.702C402.981 147.768 403.704 147.768 404.493 147.702C405.315 147.637 406.103 147.554 406.859 147.456C408.798 147.127 410.31 146.585 411.394 145.829C412.479 145.073 413.021 144.12 413.021 142.97C413.021 142.247 412.824 141.721 412.43 141.392C412.035 141.031 411.378 140.85 410.458 140.85C409.176 140.85 408.009 141.277 406.958 142.132C405.939 142.986 405.134 144.202 404.542 145.78C403.984 147.324 403.688 149.165 403.655 151.301C403.655 152.615 403.836 153.667 404.197 154.456C404.559 155.245 405.134 155.803 405.923 156.132C406.744 156.46 407.796 156.625 409.077 156.625C409.702 156.625 410.408 156.576 411.197 156.477C411.986 156.378 412.84 156.23 413.761 156.033C414.714 155.803 415.667 155.507 416.62 155.146L417.556 161.209C416.045 161.801 414.434 162.228 412.725 162.491C411.016 162.787 409.34 162.935 407.697 162.935C405.232 162.935 403.146 162.524 401.437 161.702C399.728 160.848 398.413 159.615 397.493 158.005C396.606 156.395 396.162 154.472 396.162 152.237C396.162 149.806 396.491 147.554 397.148 145.484C397.805 143.414 398.775 141.606 400.056 140.061C401.371 138.517 402.981 137.317 404.887 136.463C406.826 135.576 409.061 135.132 411.592 135.132C413.399 135.132 414.96 135.411 416.275 135.97C417.622 136.529 418.657 137.317 419.38 138.336C420.103 139.322 420.465 140.522 420.465 141.935C420.465 144.465 419.446 146.618 417.408 148.392C415.371 150.134 412.545 151.284 408.93 151.843C407.615 152.04 406.366 152.155 405.183 152.188C404.033 152.221 402.932 152.205 401.88 152.139L402.324 147.702Z" fill="#363636"/>
</svg>
