<svg width="470" height="239" viewBox="0 0 470 239" fill="none" xmlns="http://www.w3.org/2000/svg">
<path d="M445.79 0H23.3645C10.4606 0 0 10.4606 0 23.3645V214.953C0 227.857 10.4606 238.318 23.3645 238.318H445.79C458.694 238.318 469.154 227.857 469.154 214.953V23.3645C469.154 10.4606 458.694 0 445.79 0Z" fill="#50DDFE"/>
<path d="M117.731 91.0899V79.3951C117.731 72.9628 112.474 67.7002 106.048 67.7002H71.0016C64.5763 67.7002 59.3193 72.9628 59.3193 79.3951V161.259C59.3193 167.691 64.5763 172.954 71.0016 172.954H164.46C170.885 172.954 176.142 167.691 176.142 161.259V102.785C176.142 96.3525 170.885 91.0899 164.46 91.0899H117.731ZM82.6838 161.259H71.0016V149.564H82.6838V161.259ZM82.6838 137.869H71.0016V126.174H82.6838V137.869ZM82.6838 114.48H71.0016V102.785H82.6838V114.48ZM82.6838 91.0899H71.0016V79.3951H82.6838V91.0899ZM106.048 161.259H94.3661V149.564H106.048V161.259ZM106.048 137.869H94.3661V126.174H106.048V137.869ZM106.048 114.48H94.3661V102.785H106.048V114.48ZM106.048 91.0899H94.3661V79.3951H106.048V91.0899ZM158.618 161.259H117.731V149.564H129.413V137.869H117.731V126.174H129.413V114.48H117.731V102.785H158.618C161.831 102.785 164.46 105.416 164.46 108.632V155.412C164.46 158.628 161.831 161.259 158.618 161.259ZM152.777 114.48H141.095V126.174H152.777V114.48ZM152.777 137.869H141.095V149.564H152.777V137.869Z" fill="#363636"/>
<path d="M203.128 107.944L214.693 83.1309H218.128L222.018 107.944H218.934L217.988 101.53H209.191L206.212 107.944H203.128ZM210.102 99.2173H217.813L216.025 85.9346L210.102 99.2173ZM230.086 108.294C228.591 108.294 227.329 108.037 226.301 107.523C225.273 107.009 224.49 106.273 223.953 105.315C223.439 104.357 223.182 103.201 223.182 101.846C223.182 99.9533 223.404 98.2126 223.848 96.6238C224.291 95.0117 224.946 93.6215 225.81 92.4533C226.675 91.2851 227.714 90.3855 228.929 89.7547C230.144 89.1238 231.511 88.8084 233.03 88.8084C233.591 88.8084 234.151 88.8318 234.712 88.8785C235.273 88.9252 235.834 88.9953 236.394 89.0888C236.955 89.1823 237.492 89.3224 238.006 89.5094L237.2 91.8224C236.429 91.6122 235.693 91.472 234.992 91.4019C234.315 91.3084 233.626 91.2617 232.925 91.2617C231.897 91.2617 230.962 91.5187 230.121 92.0327C229.28 92.5467 228.544 93.271 227.913 94.2056C227.282 95.1402 226.791 96.2267 226.441 97.465C226.091 98.6799 225.915 99.9883 225.915 101.39C225.915 102.348 226.114 103.166 226.511 103.843C226.932 104.498 227.504 105 228.228 105.35C228.953 105.701 229.817 105.876 230.822 105.876C231.383 105.876 231.92 105.853 232.434 105.806C232.948 105.759 233.439 105.689 233.906 105.596C234.397 105.502 234.864 105.386 235.308 105.245L235.588 107.453C235.074 107.617 234.525 107.769 233.941 107.909C233.357 108.026 232.738 108.119 232.084 108.189C231.453 108.259 230.787 108.294 230.086 108.294ZM239.308 97.8505C239.985 97.8972 240.698 97.8972 241.446 97.8505C242.217 97.7804 242.964 97.6869 243.689 97.5701C245.581 97.2664 247.053 96.764 248.105 96.0631C249.179 95.3388 249.717 94.4042 249.717 93.2594C249.717 92.5117 249.46 91.9509 248.946 91.5771C248.455 91.1799 247.696 90.9813 246.668 90.9813C245.336 90.9813 244.144 91.4019 243.093 92.243C242.041 93.0608 241.224 94.2056 240.64 95.6776C240.055 97.1262 239.763 98.8201 239.763 100.759C239.763 101.881 239.939 102.839 240.289 103.633C240.663 104.404 241.2 104.988 241.901 105.386C242.626 105.759 243.502 105.946 244.53 105.946C245.067 105.946 245.628 105.9 246.212 105.806C246.82 105.713 247.439 105.584 248.07 105.421C248.724 105.257 249.378 105.047 250.032 104.79L250.453 107.033C249.518 107.43 248.49 107.734 247.369 107.944C246.27 108.178 245.172 108.294 244.074 108.294C242.579 108.294 241.305 108.014 240.254 107.453C239.203 106.869 238.397 106.04 237.836 104.965C237.298 103.867 237.03 102.558 237.03 101.04C237.03 99.2407 237.252 97.5935 237.696 96.0981C238.163 94.6028 238.829 93.3178 239.693 92.243C240.581 91.1449 241.644 90.3038 242.883 89.7196C244.144 89.1122 245.57 88.8084 247.158 88.8084C248.233 88.8084 249.168 88.972 249.962 89.2991C250.756 89.6262 251.364 90.0935 251.784 90.7009C252.228 91.3084 252.45 92.0327 252.45 92.8738C252.45 94.5795 251.726 96.0047 250.277 97.1496C248.852 98.2944 246.866 99.0771 244.32 99.4977C243.385 99.6612 242.474 99.7664 241.586 99.8131C240.698 99.8365 239.869 99.8248 239.098 99.7781L239.308 97.8505ZM251.048 107.173L251.784 104.965C252.275 105.152 252.836 105.339 253.467 105.526C254.098 105.689 254.763 105.829 255.464 105.946C256.165 106.04 256.855 106.086 257.532 106.086C258.63 106.086 259.518 105.958 260.196 105.701C260.897 105.444 261.411 105.093 261.738 104.65C262.065 104.182 262.228 103.657 262.228 103.072C262.228 102.465 262.065 101.963 261.738 101.565C261.434 101.168 261.013 100.818 260.476 100.514C259.962 100.21 259.39 99.9416 258.759 99.708C258.151 99.4509 257.532 99.1823 256.901 98.9019C256.294 98.5981 255.721 98.2477 255.184 97.8505C254.67 97.4533 254.249 96.9626 253.922 96.3785C253.619 95.771 253.467 95.0467 253.467 94.2056C253.467 93.3879 253.607 92.6519 253.887 91.9977C254.191 91.3435 254.647 90.7827 255.254 90.3154C255.862 89.8248 256.633 89.4509 257.567 89.1939C258.502 88.9369 259.6 88.8084 260.862 88.8084C261.82 88.8084 262.754 88.8902 263.665 89.0538C264.577 89.2173 265.359 89.4393 266.013 89.7196L265.313 91.8925C264.869 91.729 264.378 91.5888 263.841 91.472C263.327 91.3318 262.789 91.2266 262.228 91.1566C261.691 91.0631 261.142 91.0164 260.581 91.0164C259.53 91.0164 258.677 91.1449 258.023 91.4019C257.369 91.6589 256.89 92.0094 256.586 92.4533C256.282 92.8738 256.13 93.3645 256.13 93.9252C256.13 94.5094 256.282 95 256.586 95.3972C256.913 95.771 257.334 96.1098 257.848 96.4136C258.385 96.6939 258.957 96.9626 259.565 97.2196C260.196 97.4533 260.815 97.722 261.422 98.0257C262.053 98.3061 262.626 98.6449 263.14 99.0421C263.677 99.4393 264.098 99.9299 264.401 100.514C264.728 101.098 264.892 101.811 264.892 102.652C264.892 103.4 264.787 104.077 264.577 104.685C264.366 105.269 264.051 105.783 263.63 106.227C263.21 106.671 262.696 107.056 262.088 107.383C261.481 107.687 260.78 107.909 259.985 108.049C259.191 108.213 258.303 108.294 257.322 108.294C256.037 108.294 254.869 108.189 253.817 107.979C252.789 107.769 251.866 107.5 251.048 107.173ZM264.621 107.173L265.357 104.965C265.848 105.152 266.408 105.339 267.039 105.526C267.67 105.689 268.336 105.829 269.037 105.946C269.738 106.04 270.427 106.086 271.105 106.086C272.203 106.086 273.091 105.958 273.768 105.701C274.469 105.444 274.983 105.093 275.31 104.65C275.637 104.182 275.801 103.657 275.801 103.072C275.801 102.465 275.637 101.963 275.31 101.565C275.006 101.168 274.586 100.818 274.048 100.514C273.534 100.21 272.962 99.9416 272.331 99.708C271.724 99.4509 271.105 99.1823 270.474 98.9019C269.866 98.5981 269.294 98.2477 268.756 97.8505C268.242 97.4533 267.822 96.9626 267.495 96.3785C267.191 95.771 267.039 95.0467 267.039 94.2056C267.039 93.3879 267.179 92.6519 267.46 91.9977C267.763 91.3435 268.219 90.7827 268.827 90.3154C269.434 89.8248 270.205 89.4509 271.14 89.1939C272.074 88.9369 273.172 88.8084 274.434 88.8084C275.392 88.8084 276.327 88.8902 277.238 89.0538C278.149 89.2173 278.932 89.4393 279.586 89.7196L278.885 91.8925C278.441 91.729 277.95 91.5888 277.413 91.472C276.899 91.3318 276.362 91.2266 275.801 91.1566C275.263 91.0631 274.714 91.0164 274.154 91.0164C273.102 91.0164 272.249 91.1449 271.595 91.4019C270.941 91.6589 270.462 92.0094 270.158 92.4533C269.855 92.8738 269.703 93.3645 269.703 93.9252C269.703 94.5094 269.855 95 270.158 95.3972C270.485 95.771 270.906 96.1098 271.42 96.4136C271.957 96.6939 272.53 96.9626 273.137 97.2196C273.768 97.4533 274.387 97.722 274.995 98.0257C275.626 98.3061 276.198 98.6449 276.712 99.0421C277.249 99.4393 277.67 99.9299 277.974 100.514C278.301 101.098 278.464 101.811 278.464 102.652C278.464 103.4 278.359 104.077 278.149 104.685C277.939 105.269 277.623 105.783 277.203 106.227C276.782 106.671 276.268 107.056 275.661 107.383C275.053 107.687 274.352 107.909 273.558 108.049C272.763 108.213 271.876 108.294 270.894 108.294C269.609 108.294 268.441 108.189 267.39 107.979C266.362 107.769 265.439 107.5 264.621 107.173ZM286.495 108.294C285.023 108.294 283.796 108.061 282.815 107.593C281.834 107.103 281.086 106.367 280.572 105.386C280.058 104.404 279.801 103.166 279.801 101.671C279.801 100.572 279.871 99.5094 280.011 98.4813C280.175 97.4299 280.408 96.4252 280.712 95.4673C281.016 94.486 281.401 93.5981 281.869 92.8038C282.336 91.986 282.885 91.2734 283.516 90.6659C284.147 90.0584 284.859 89.5911 285.654 89.264C286.471 88.9369 287.359 88.7734 288.317 88.7734C289.719 88.7734 290.911 89.0187 291.892 89.5094C292.873 90 293.621 90.7477 294.135 91.7524C294.672 92.7337 294.941 93.972 294.941 95.4673C294.941 96.6122 294.859 97.722 294.696 98.7967C294.555 99.8481 294.334 100.853 294.03 101.811C293.726 102.769 293.341 103.645 292.873 104.439C292.429 105.234 291.892 105.923 291.261 106.507C290.654 107.068 289.953 107.512 289.158 107.839C288.364 108.143 287.476 108.294 286.495 108.294ZM286.39 106.086C287.044 106.086 287.64 105.946 288.177 105.666C288.738 105.362 289.228 104.965 289.649 104.474C290.069 103.96 290.443 103.365 290.77 102.687C291.098 102.009 291.366 101.273 291.577 100.479C291.787 99.6612 291.939 98.8201 292.032 97.9556C292.149 97.0911 292.207 96.215 292.207 95.3271C292.207 93.8552 291.857 92.7687 291.156 92.0678C290.478 91.3435 289.544 90.9813 288.352 90.9813C287.698 90.9813 287.102 91.1332 286.565 91.4369C286.027 91.7407 285.537 92.1612 285.093 92.6986C284.649 93.2126 284.263 93.8201 283.936 94.521C283.633 95.1986 283.364 95.9346 283.13 96.729C282.92 97.5234 282.756 98.3411 282.64 99.1823C282.546 100 282.499 100.818 282.499 101.636C282.499 103.178 282.827 104.311 283.481 105.035C284.158 105.736 285.128 106.086 286.39 106.086ZM204.752 166.355L210.717 128.738H235.813L234.684 135.939H217.971L216.682 143.946H232.158L230.976 150.717H215.553L214.263 159.208H231.836L230.654 166.355H204.752ZM269.85 166.893C268.705 166.893 267.684 166.696 266.787 166.301C265.927 165.907 265.247 165.334 264.745 164.582C264.28 163.794 264.046 162.862 264.046 161.787C264.046 161.429 264.1 160.838 264.207 160.014C264.315 159.19 264.441 158.241 264.584 157.166C264.763 156.055 264.943 154.927 265.121 153.78C265.336 152.598 265.534 151.47 265.712 150.395C265.892 149.32 266.034 148.407 266.142 147.654C266.249 146.902 266.303 146.382 266.303 146.096C266.303 145.379 266.107 144.806 265.712 144.376C265.32 143.911 264.656 143.678 263.724 143.678C263.009 143.678 262.31 143.803 261.628 144.054C260.983 144.304 260.284 144.663 259.532 145.129C259.532 145.272 259.516 145.505 259.478 145.827C259.443 146.15 259.425 146.418 259.425 146.633C259.317 147.278 259.193 148.012 259.048 148.836C258.941 149.625 258.817 150.484 258.672 151.416C258.53 152.347 258.369 153.315 258.189 154.318C258.046 155.321 257.885 156.342 257.705 157.381C257.562 158.42 257.401 159.459 257.221 160.498C257.079 161.501 256.918 162.504 256.738 163.507C256.595 164.51 256.453 165.46 256.308 166.355H248.14C248.32 165.28 248.499 164.134 248.677 162.916C248.892 161.698 249.091 160.462 249.268 159.208C249.483 157.918 249.682 156.682 249.859 155.5C250.074 154.282 250.273 153.154 250.45 152.115C250.63 151.04 250.773 150.072 250.88 149.213C251.025 148.353 251.133 147.672 251.203 147.171C251.275 146.633 251.31 146.293 251.31 146.15C251.31 145.648 251.221 145.218 251.041 144.86C250.864 144.466 250.577 144.161 250.182 143.946C249.824 143.731 249.341 143.624 248.731 143.624C248.123 143.624 247.478 143.749 246.796 144C246.116 144.251 245.399 144.573 244.647 144.967L241.315 166.355H233.039L237.661 137.122H245.13L244.754 139.647C246.366 138.572 247.89 137.802 249.322 137.336C250.756 136.835 252.135 136.584 253.46 136.584C255.072 136.584 256.327 136.889 257.221 137.498C258.154 138.107 258.817 138.931 259.21 139.97C260.322 139.182 261.343 138.537 262.273 138.035C263.24 137.533 264.191 137.175 265.121 136.96C266.088 136.71 267.093 136.584 268.13 136.584C269.707 136.584 270.997 136.853 271.999 137.39C273.039 137.892 273.791 138.608 274.256 139.54C274.759 140.435 275.009 141.474 275.009 142.657C275.009 142.979 274.955 143.552 274.848 144.376C274.74 145.2 274.598 146.168 274.418 147.278C274.24 148.353 274.041 149.499 273.827 150.717C273.649 151.9 273.469 153.028 273.289 154.103C273.112 155.178 272.95 156.109 272.805 156.897C272.698 157.685 272.644 158.241 272.644 158.563C272.644 158.957 272.735 159.262 272.913 159.477C273.128 159.692 273.415 159.799 273.773 159.799C273.953 159.799 274.133 159.799 274.31 159.799C274.525 159.763 274.705 159.71 274.848 159.638L274.418 166.033C273.845 166.283 273.128 166.481 272.268 166.624C271.446 166.803 270.64 166.893 269.85 166.893ZM273.89 177.64L280.284 137.014H287.754L287.593 139.54C288.883 138.68 290.172 137.981 291.462 137.444C292.789 136.871 294.256 136.584 295.869 136.584C297.733 136.584 299.254 136.978 300.436 137.766C301.656 138.519 302.551 139.647 303.123 141.152C303.733 142.657 304.037 144.519 304.037 146.741C304.037 149.499 303.714 152.114 303.07 154.586C302.425 157.023 301.457 159.154 300.168 160.981C298.915 162.808 297.32 164.241 295.385 165.28C293.45 166.319 291.212 166.839 288.668 166.839C287.7 166.839 286.805 166.785 285.981 166.678C285.158 166.57 284.46 166.463 283.885 166.355L282.058 177.64H273.89ZM288.023 160.551C289.277 160.551 290.387 160.211 291.355 159.53C292.322 158.814 293.128 157.883 293.773 156.736C294.418 155.554 294.901 154.264 295.224 152.867C295.546 151.47 295.707 150.072 295.707 148.675C295.707 146.956 295.404 145.702 294.794 144.914C294.221 144.125 293.289 143.731 291.999 143.731C291.212 143.731 290.406 143.875 289.581 144.161C288.759 144.412 287.969 144.77 287.217 145.236L284.906 160.014C285.336 160.193 285.803 160.336 286.303 160.444C286.841 160.516 287.415 160.551 288.023 160.551ZM316.1 137.122L315.562 140.507C316.637 139.575 317.623 138.823 318.518 138.25C319.415 137.677 320.256 137.265 321.044 137.014C321.834 136.727 322.656 136.584 323.516 136.584C324.126 136.584 324.717 136.638 325.289 136.745C325.899 136.817 326.471 136.96 327.009 137.175L324.591 145.129C323.983 144.949 323.373 144.824 322.763 144.752C322.191 144.681 321.654 144.645 321.151 144.645C320.291 144.645 319.397 144.788 318.464 145.075C317.57 145.361 316.548 145.899 315.401 146.687L312.231 166.355H304.063L308.738 137.122H316.1ZM330.595 150.287C331.313 150.359 332.1 150.359 332.96 150.287C333.857 150.216 334.717 150.126 335.539 150.019C337.654 149.661 339.301 149.069 340.483 148.245C341.665 147.421 342.256 146.382 342.256 145.129C342.256 144.34 342.041 143.767 341.612 143.409C341.182 143.015 340.467 142.818 339.462 142.818C338.065 142.818 336.794 143.283 335.647 144.215C334.537 145.147 333.658 146.472 333.013 148.192C332.406 149.875 332.084 151.882 332.046 154.21C332.046 155.643 332.245 156.79 332.637 157.65C333.032 158.509 333.658 159.118 334.518 159.477C335.415 159.835 336.56 160.014 337.957 160.014C338.64 160.014 339.408 159.96 340.268 159.853C341.128 159.745 342.06 159.584 343.063 159.369C344.102 159.118 345.142 158.796 346.179 158.402L347.2 165.012C345.553 165.657 343.798 166.122 341.934 166.409C340.072 166.731 338.245 166.893 336.453 166.893C333.766 166.893 331.492 166.445 329.628 165.549C327.766 164.618 326.334 163.274 325.329 161.519C324.362 159.763 323.878 157.668 323.878 155.231C323.878 152.58 324.238 150.126 324.953 147.869C325.67 145.612 326.726 143.642 328.123 141.958C329.558 140.274 331.313 138.967 333.39 138.035C335.504 137.068 337.941 136.584 340.698 136.584C342.67 136.584 344.371 136.889 345.803 137.498C347.273 138.107 348.401 138.967 349.189 140.077C349.978 141.152 350.371 142.46 350.371 144C350.371 146.759 349.261 149.105 347.039 151.04C344.82 152.939 341.738 154.192 337.796 154.801C336.364 155.016 335.002 155.142 333.712 155.178C332.46 155.213 331.259 155.196 330.112 155.124L330.595 150.287ZM348.345 165.065L350.334 158.832C351.123 159.154 352.037 159.459 353.074 159.745C354.149 159.996 355.242 160.211 356.352 160.39C357.464 160.533 358.485 160.605 359.415 160.605C360.49 160.605 361.35 160.498 361.995 160.283C362.64 160.068 363.107 159.781 363.392 159.423C363.679 159.029 363.822 158.581 363.822 158.079C363.822 157.506 363.591 157.023 363.123 156.629C362.693 156.234 362.102 155.894 361.35 155.607C360.635 155.321 359.845 155.034 358.985 154.748C358.126 154.461 357.249 154.121 356.352 153.727C355.492 153.297 354.686 152.777 353.934 152.168C353.219 151.559 352.628 150.789 352.161 149.858C351.731 148.926 351.516 147.78 351.516 146.418C351.516 144.842 351.784 143.463 352.322 142.28C352.897 141.062 353.719 140.041 354.794 139.217C355.906 138.357 357.266 137.713 358.878 137.283C360.49 136.817 362.336 136.584 364.413 136.584C366.17 136.584 367.798 136.727 369.303 137.014C370.808 137.301 372.135 137.659 373.28 138.089L371.345 144.322C370.593 144.072 369.77 143.857 368.873 143.678C367.978 143.463 367.084 143.301 366.186 143.194C365.291 143.086 364.45 143.033 363.661 143.033C362.658 143.033 361.834 143.14 361.189 143.355C360.581 143.57 360.133 143.857 359.845 144.215C359.595 144.573 359.469 145.003 359.469 145.505C359.469 146.042 359.684 146.49 360.114 146.848C360.581 147.171 361.172 147.457 361.887 147.708C362.64 147.959 363.446 148.227 364.305 148.514C365.203 148.801 366.079 149.141 366.939 149.535C367.836 149.929 368.642 150.431 369.357 151.04C370.109 151.649 370.7 152.419 371.13 153.35C371.56 154.246 371.775 155.375 371.775 156.736C371.775 158.241 371.56 159.566 371.13 160.713C370.738 161.823 370.147 162.773 369.357 163.561C368.605 164.349 367.691 164.994 366.616 165.495C365.579 165.961 364.413 166.301 363.123 166.516C361.834 166.767 360.455 166.893 358.985 166.893C356.801 166.893 354.848 166.713 353.128 166.355C351.446 166.033 349.85 165.603 348.345 165.065ZM395.74 166.893C394.95 166.893 394.198 166.785 393.483 166.57C392.801 166.355 392.175 166.033 391.602 165.603C391.065 165.137 390.616 164.6 390.259 163.991C389.506 164.6 388.682 165.119 387.787 165.549C386.927 165.979 386.013 166.301 385.046 166.516C384.114 166.767 383.128 166.893 382.091 166.893C380.334 166.893 378.812 166.516 377.523 165.764C376.233 164.976 375.212 163.811 374.46 162.271C373.742 160.731 373.385 158.814 373.385 156.521C373.385 152.186 374.046 148.55 375.373 145.612C376.733 142.639 378.651 140.4 381.123 138.895C383.63 137.354 386.605 136.584 390.044 136.584C391.046 136.584 392.086 136.638 393.161 136.745C394.235 136.853 395.273 136.996 396.277 137.175C397.315 137.354 398.282 137.551 399.179 137.766C400.109 137.981 400.934 138.214 401.651 138.465C401.114 141.797 400.647 144.627 400.254 146.956C399.894 149.248 399.591 151.129 399.341 152.598C399.126 154.067 398.946 155.213 398.803 156.037C398.658 156.861 398.551 157.47 398.481 157.864C398.443 158.223 398.427 158.438 398.427 158.509C398.427 158.939 398.516 159.262 398.696 159.477C398.873 159.692 399.161 159.799 399.556 159.799C399.698 159.799 399.859 159.799 400.039 159.799C400.254 159.763 400.45 159.71 400.63 159.638L400.2 165.979C399.663 166.23 398.981 166.445 398.158 166.624C397.369 166.803 396.563 166.893 395.74 166.893ZM390.098 158.617L392.462 143.678C391.995 143.463 391.476 143.319 390.904 143.248C390.366 143.176 389.791 143.14 389.184 143.14C387.822 143.14 386.567 143.678 385.422 144.752C384.31 145.791 383.434 147.224 382.789 149.051C382.144 150.879 381.822 152.921 381.822 155.178C381.822 156.718 382.161 157.882 382.843 158.671C383.558 159.459 384.471 159.853 385.584 159.853C386.084 159.853 386.605 159.799 387.142 159.692C387.679 159.584 388.198 159.441 388.7 159.262C389.238 159.047 389.703 158.832 390.098 158.617ZM400.214 165.065L402.203 158.832C402.99 159.154 403.904 159.459 404.943 159.745C406.018 159.996 407.112 160.211 408.221 160.39C409.331 160.533 410.352 160.605 411.284 160.605C412.359 160.605 413.219 160.498 413.864 160.283C414.509 160.068 414.974 159.781 415.261 159.423C415.548 159.029 415.691 158.581 415.691 158.079C415.691 157.506 415.457 157.023 414.992 156.629C414.563 156.234 413.971 155.894 413.219 155.607C412.502 155.321 411.714 155.034 410.855 154.748C409.995 154.461 409.116 154.121 408.221 153.727C407.362 153.297 406.555 152.777 405.803 152.168C405.086 151.559 404.495 150.789 404.03 149.858C403.6 148.926 403.385 147.78 403.385 146.418C403.385 144.842 403.654 143.463 404.191 142.28C404.763 141.062 405.588 140.041 406.663 139.217C407.773 138.357 409.135 137.713 410.747 137.283C412.359 136.817 414.205 136.584 416.282 136.584C418.037 136.584 419.668 136.727 421.172 137.014C422.677 137.301 424.002 137.659 425.149 138.089L423.214 144.322C422.462 144.072 421.637 143.857 420.742 143.678C419.848 143.463 418.95 143.301 418.056 143.194C417.161 143.086 416.317 143.033 415.53 143.033C414.527 143.033 413.703 143.14 413.058 143.355C412.448 143.57 412.002 143.857 411.714 144.215C411.464 144.573 411.338 145.003 411.338 145.505C411.338 146.042 411.553 146.49 411.983 146.848C412.448 147.171 413.039 147.457 413.756 147.708C414.509 147.959 415.315 148.227 416.175 148.514C417.07 148.801 417.948 149.141 418.808 149.535C419.703 149.929 420.509 150.431 421.226 151.04C421.978 151.649 422.57 152.419 422.999 153.35C423.429 154.246 423.644 155.375 423.644 156.736C423.644 158.241 423.429 159.566 422.999 160.713C422.605 161.823 422.013 162.773 421.226 163.561C420.474 164.349 419.56 164.994 418.485 165.495C417.446 165.961 416.282 166.301 414.992 166.516C413.703 166.767 412.324 166.893 410.855 166.893C408.67 166.893 406.717 166.713 404.997 166.355C403.313 166.033 401.719 165.603 400.214 165.065Z" fill="#363636"/>
</svg>
