<svg width="472" height="240" viewBox="0 0 472 240" fill="none" xmlns="http://www.w3.org/2000/svg">
<path d="M447.883 0H23.4742C10.5097 0 0 10.5097 0 23.4742V215.962C0 228.927 10.5097 239.437 23.4742 239.437H447.883C460.847 239.437 471.357 228.927 471.357 215.962V23.4742C471.357 10.5097 460.847 0 447.883 0Z" fill="#E1FF7B"/>
<path d="M124.413 127.23H112.676C112.676 133.713 107.421 138.968 100.939 138.968C94.4569 138.968 89.2019 133.713 89.2019 127.23H77.4648C77.4648 140.195 87.9747 150.705 100.939 150.705C113.903 150.705 124.413 140.195 124.413 127.23Z" fill="#363636"/>
<path d="M89.2019 109.624C89.2019 112.865 86.5745 115.493 83.3334 115.493C80.0923 115.493 77.4648 112.865 77.4648 109.624C77.4648 106.383 80.0923 103.756 83.3334 103.756C86.5745 103.756 89.2019 106.383 89.2019 109.624Z" fill="#363636"/>
<path d="M118.545 115.493C121.786 115.493 124.413 112.865 124.413 109.624C124.413 106.383 121.786 103.756 118.545 103.756C115.304 103.756 112.676 106.383 112.676 109.624C112.676 112.865 115.304 115.493 118.545 115.493Z" fill="#363636"/>
<path fill-rule="evenodd" clip-rule="evenodd" d="M159.624 121.362C159.624 153.773 133.35 180.048 100.939 180.048C68.5278 180.048 42.2534 153.773 42.2534 121.362C42.2534 88.9512 68.5278 62.6768 100.939 62.6768C133.35 62.6768 159.624 88.9512 159.624 121.362ZM147.887 121.362C147.887 147.291 126.868 168.311 100.939 168.311C75.01 168.311 53.9905 147.291 53.9905 121.362C53.9905 95.4333 75.01 74.4138 100.939 74.4138C126.868 74.4138 147.887 95.4333 147.887 121.362Z" fill="#363636"/>
<path d="M179.66 110.799L191.279 85.8691H194.73L198.639 110.799H195.54L194.589 104.355H185.751L182.758 110.799H179.66ZM186.667 102.031H194.413L192.617 88.686L186.667 102.031ZM206.745 111.151C205.243 111.151 203.975 110.893 202.943 110.376C201.91 109.86 201.123 109.12 200.583 108.158C200.067 107.195 199.809 106.033 199.809 104.672C199.809 102.771 200.032 101.022 200.478 99.4255C200.924 97.8058 201.581 96.409 202.45 95.2353C203.318 94.0616 204.363 93.1579 205.583 92.5241C206.804 91.8903 208.177 91.5734 209.703 91.5734C210.266 91.5734 210.83 91.5968 211.393 91.6438C211.957 91.6907 212.52 91.7612 213.083 91.8551C213.647 91.949 214.187 92.0898 214.703 92.2776L213.893 94.6015C213.119 94.3903 212.379 94.2494 211.675 94.179C210.994 94.0851 210.302 94.0382 209.597 94.0382C208.565 94.0382 207.626 94.2964 206.781 94.8128C205.935 95.3292 205.196 96.0569 204.562 96.9959C203.928 97.9349 203.435 99.0264 203.083 100.271C202.731 101.491 202.555 102.806 202.555 104.214C202.555 105.177 202.755 105.998 203.154 106.679C203.576 107.336 204.151 107.841 204.879 108.193C205.607 108.545 206.475 108.721 207.485 108.721C208.048 108.721 208.588 108.698 209.104 108.651C209.621 108.604 210.114 108.533 210.583 108.44C211.076 108.346 211.546 108.228 211.992 108.087L212.274 110.306C211.757 110.47 211.205 110.623 210.619 110.764C210.032 110.881 209.41 110.975 208.752 111.045C208.119 111.116 207.45 111.151 206.745 111.151ZM216.01 100.658C216.691 100.705 217.407 100.705 218.158 100.658C218.932 100.587 219.684 100.494 220.411 100.376C222.312 100.071 223.791 99.5663 224.847 98.8621C225.927 98.1344 226.467 97.1954 226.467 96.0452C226.467 95.294 226.209 94.7306 225.693 94.3551C225.2 93.956 224.437 93.7565 223.404 93.7565C222.066 93.7565 220.869 94.179 219.813 95.0241C218.756 95.8457 217.935 96.9959 217.348 98.4748C216.761 99.9302 216.468 101.632 216.468 103.58C216.468 104.707 216.644 105.67 216.996 106.468C217.371 107.242 217.911 107.829 218.616 108.228C219.343 108.604 220.224 108.792 221.256 108.792C221.796 108.792 222.359 108.745 222.946 108.651C223.556 108.557 224.178 108.428 224.812 108.263C225.47 108.099 226.127 107.888 226.784 107.63L227.207 109.883C226.268 110.282 225.235 110.587 224.108 110.799C223.005 111.033 221.901 111.151 220.798 111.151C219.296 111.151 218.017 110.869 216.961 110.306C215.904 109.719 215.094 108.886 214.531 107.806C213.991 106.702 213.721 105.388 213.721 103.862C213.721 102.055 213.944 100.4 214.39 98.8973C214.86 97.395 215.529 96.1039 216.397 95.0241C217.289 93.9208 218.357 93.0757 219.601 92.4889C220.869 91.8785 222.3 91.5734 223.897 91.5734C224.977 91.5734 225.916 91.7377 226.714 92.0663C227.512 92.395 228.122 92.8644 228.545 93.4748C228.991 94.0851 229.214 94.8128 229.214 95.6579C229.214 97.3715 228.486 98.8034 227.031 99.9536C225.599 101.104 223.603 101.89 221.045 102.313C220.106 102.477 219.191 102.583 218.299 102.63C217.407 102.653 216.573 102.641 215.799 102.594L216.01 100.658ZM227.805 110.024L228.545 107.806C229.038 107.994 229.601 108.181 230.235 108.369C230.869 108.533 231.538 108.674 232.242 108.792C232.946 108.886 233.639 108.933 234.319 108.933C235.423 108.933 236.315 108.803 236.995 108.545C237.7 108.287 238.216 107.935 238.545 107.489C238.873 107.019 239.038 106.491 239.038 105.904C239.038 105.294 238.873 104.789 238.545 104.39C238.239 103.991 237.817 103.639 237.277 103.334C236.761 103.029 236.185 102.759 235.552 102.524C234.941 102.266 234.319 101.996 233.685 101.714C233.075 101.409 232.5 101.057 231.96 100.658C231.444 100.259 231.021 99.7658 230.693 99.179C230.387 98.5687 230.235 97.841 230.235 96.9959C230.235 96.1743 230.376 95.4349 230.657 94.7776C230.962 94.1203 231.42 93.5569 232.031 93.0875C232.641 92.5945 233.416 92.2189 234.354 91.9607C235.293 91.7025 236.397 91.5734 237.664 91.5734C238.627 91.5734 239.566 91.6555 240.481 91.8198C241.397 91.9842 242.183 92.2072 242.84 92.4889L242.136 94.672C241.69 94.5076 241.197 94.3668 240.657 94.2494C240.141 94.1086 239.601 94.0029 239.038 93.9325C238.498 93.8386 237.946 93.7917 237.383 93.7917C236.326 93.7917 235.47 93.9208 234.812 94.179C234.155 94.4372 233.674 94.7893 233.369 95.2353C233.063 95.6579 232.911 96.1508 232.911 96.7142C232.911 97.3011 233.063 97.794 233.369 98.1931C233.697 98.5687 234.12 98.909 234.636 99.2142C235.176 99.4959 235.751 99.7659 236.362 100.024C236.995 100.259 237.617 100.529 238.228 100.834C238.862 101.116 239.437 101.456 239.953 101.855C240.493 102.254 240.916 102.747 241.221 103.334C241.549 103.921 241.714 104.637 241.714 105.482C241.714 106.233 241.608 106.914 241.397 107.524C241.185 108.111 240.869 108.627 240.446 109.073C240.024 109.519 239.507 109.907 238.897 110.235C238.286 110.54 237.582 110.763 236.784 110.904C235.986 111.069 235.094 111.151 234.108 111.151C232.817 111.151 231.643 111.045 230.587 110.834C229.554 110.623 228.627 110.353 227.805 110.024ZM241.441 110.024L242.181 107.806C242.674 107.994 243.237 108.181 243.871 108.369C244.505 108.533 245.174 108.674 245.878 108.792C246.582 108.886 247.275 108.933 247.955 108.933C249.059 108.933 249.951 108.803 250.631 108.545C251.336 108.287 251.852 107.935 252.181 107.489C252.509 107.019 252.674 106.491 252.674 105.904C252.674 105.294 252.509 104.789 252.181 104.39C251.876 103.991 251.453 103.639 250.913 103.334C250.397 103.029 249.822 102.759 249.188 102.524C248.577 102.266 247.955 101.996 247.322 101.714C246.711 101.409 246.136 101.057 245.596 100.658C245.08 100.259 244.657 99.7658 244.329 99.179C244.024 98.5687 243.871 97.841 243.871 96.9959C243.871 96.1743 244.012 95.4349 244.293 94.7776C244.599 94.1203 245.056 93.5569 245.667 93.0875C246.277 92.5945 247.052 92.2189 247.991 91.9607C248.93 91.7025 250.033 91.5734 251.301 91.5734C252.263 91.5734 253.202 91.6555 254.117 91.8198C255.033 91.9842 255.819 92.2072 256.477 92.4889L255.772 94.672C255.326 94.5076 254.833 94.3668 254.293 94.2494C253.777 94.1086 253.237 94.0029 252.674 93.9325C252.134 93.8386 251.582 93.7917 251.019 93.7917C249.962 93.7917 249.106 93.9208 248.448 94.179C247.791 94.4372 247.31 94.7893 247.005 95.2353C246.7 95.6579 246.547 96.1508 246.547 96.7142C246.547 97.3011 246.7 97.794 247.005 98.1931C247.333 98.5687 247.756 98.909 248.272 99.2142C248.812 99.4959 249.387 99.7659 249.998 100.024C250.631 100.259 251.254 100.529 251.864 100.834C252.498 101.116 253.073 101.456 253.589 101.855C254.129 102.254 254.552 102.747 254.857 103.334C255.185 103.921 255.35 104.637 255.35 105.482C255.35 106.233 255.244 106.914 255.033 107.524C254.822 108.111 254.505 108.627 254.082 109.073C253.66 109.519 253.143 109.907 252.533 110.235C251.923 110.54 251.218 110.763 250.42 110.904C249.622 111.069 248.73 111.151 247.744 111.151C246.453 111.151 245.279 111.045 244.223 110.834C243.19 110.623 242.263 110.353 241.441 110.024ZM263.418 111.151C261.939 111.151 260.707 110.916 259.721 110.447C258.735 109.954 257.984 109.214 257.467 108.228C256.951 107.242 256.693 105.998 256.693 104.496C256.693 103.393 256.763 102.325 256.904 101.292C257.068 100.235 257.303 99.2259 257.608 98.2635C257.913 97.2776 258.301 96.3856 258.77 95.5874C259.239 94.7659 259.791 94.0499 260.425 93.4396C261.059 92.8292 261.775 92.3598 262.573 92.0311C263.394 91.7025 264.286 91.5381 265.249 91.5381C266.657 91.5381 267.854 91.7846 268.84 92.2776C269.826 92.7705 270.577 93.5217 271.094 94.5311C271.634 95.517 271.904 96.7612 271.904 98.2635C271.904 99.4137 271.822 100.529 271.657 101.609C271.516 102.665 271.293 103.674 270.988 104.637C270.683 105.599 270.296 106.479 269.826 107.278C269.38 108.076 268.84 108.768 268.207 109.355C267.596 109.918 266.892 110.364 266.094 110.693C265.296 110.998 264.404 111.151 263.418 111.151ZM263.312 108.933C263.97 108.933 264.568 108.792 265.108 108.51C265.671 108.205 266.164 107.806 266.587 107.313C267.009 106.796 267.385 106.198 267.714 105.517C268.042 104.836 268.312 104.097 268.524 103.299C268.735 102.477 268.887 101.632 268.981 100.764C269.099 99.895 269.157 99.0147 269.157 98.1227C269.157 96.6438 268.805 95.5522 268.101 94.848C267.42 94.1203 266.481 93.7565 265.284 93.7565C264.627 93.7565 264.028 93.909 263.488 94.2142C262.948 94.5194 262.455 94.9419 262.009 95.4818C261.563 95.9982 261.176 96.6086 260.847 97.3128C260.542 97.9936 260.272 98.733 260.038 99.5311C259.826 100.329 259.662 101.151 259.545 101.996C259.451 102.817 259.404 103.639 259.404 104.461C259.404 106.01 259.732 107.148 260.39 107.876C261.07 108.58 262.045 108.933 263.312 108.933ZM181.293 162.294L186.765 128.083C188.671 127.918 190.38 127.787 191.892 127.688C193.437 127.59 194.801 127.524 195.984 127.491C197.167 127.458 198.185 127.442 199.04 127.442C201.833 127.442 204.085 127.705 205.793 128.231C207.502 128.724 208.751 129.479 209.54 130.498C210.329 131.517 210.723 132.782 210.723 134.294C210.723 135.346 210.575 136.348 210.279 137.301C210.016 138.254 209.606 139.141 209.047 139.963C208.488 140.752 207.815 141.458 207.026 142.083C206.27 142.707 205.416 143.217 204.462 143.611C205.613 143.874 206.566 144.334 207.322 144.991C208.11 145.616 208.702 146.388 209.096 147.308C209.524 148.228 209.737 149.264 209.737 150.414C209.737 152.09 209.474 153.602 208.948 154.949C208.423 156.296 207.667 157.463 206.681 158.449C205.728 159.435 204.594 160.273 203.279 160.963C201.998 161.62 200.585 162.113 199.04 162.442C197.495 162.771 195.869 162.935 194.16 162.935C193.075 162.935 192.024 162.918 191.005 162.886C190.019 162.853 189.016 162.803 187.998 162.738C186.979 162.705 185.927 162.639 184.843 162.54C183.758 162.475 182.575 162.393 181.293 162.294ZM192.286 142.181H198.251C198.777 142.181 199.319 142.066 199.878 141.836C200.47 141.573 200.995 141.212 201.455 140.752C201.916 140.259 202.277 139.667 202.54 138.977C202.836 138.287 202.984 137.531 202.984 136.71C202.984 135.954 202.819 135.362 202.491 134.935C202.195 134.475 201.685 134.163 200.962 133.998C200.239 133.834 199.286 133.752 198.103 133.752C197.545 133.752 197.035 133.768 196.575 133.801C196.148 133.801 195.688 133.817 195.195 133.85C194.735 133.883 194.193 133.933 193.568 133.998L192.286 142.181ZM191.35 147.9L189.97 156.526C190.397 156.559 190.791 156.592 191.153 156.625C191.547 156.658 191.925 156.691 192.286 156.724C192.681 156.724 193.042 156.74 193.371 156.773C193.732 156.773 194.094 156.773 194.455 156.773C195.376 156.773 196.214 156.691 196.97 156.526C197.725 156.362 198.399 156.148 198.991 155.886C199.582 155.59 200.075 155.212 200.47 154.752C200.897 154.292 201.209 153.749 201.406 153.125C201.636 152.501 201.751 151.794 201.751 151.005C201.751 150.447 201.653 149.97 201.455 149.576C201.258 149.181 200.979 148.869 200.617 148.639C200.256 148.376 199.812 148.195 199.286 148.097C198.761 147.965 198.169 147.9 197.512 147.9H191.35ZM216.982 147.702C217.639 147.768 218.362 147.768 219.151 147.702C219.973 147.637 220.761 147.555 221.516 147.456C223.455 147.127 224.967 146.585 226.052 145.829C227.136 145.073 227.678 144.12 227.678 142.97C227.678 142.247 227.481 141.721 227.087 141.393C226.693 141.031 226.035 140.85 225.115 140.85C223.833 140.85 222.667 141.278 221.615 142.132C220.597 142.987 219.792 144.202 219.201 145.78C218.642 147.325 218.346 149.165 218.313 151.301C218.313 152.616 218.494 153.667 218.855 154.456C219.217 155.245 219.792 155.803 220.581 156.132C221.401 156.461 222.453 156.625 223.735 156.625C224.359 156.625 225.066 156.576 225.854 156.477C226.643 156.379 227.498 156.231 228.418 156.033C229.371 155.803 230.324 155.508 231.277 155.146L232.214 161.21C230.702 161.801 229.092 162.228 227.383 162.491C225.674 162.787 223.998 162.935 222.354 162.935C219.891 162.935 217.804 162.524 216.095 161.702C214.386 160.848 213.071 159.616 212.151 158.005C211.264 156.395 210.82 154.472 210.82 152.238C210.82 149.806 211.149 147.555 211.806 145.484C212.463 143.414 213.433 141.606 214.715 140.062C216.029 138.517 217.639 137.317 219.546 136.463C221.484 135.576 223.718 135.132 226.249 135.132C228.056 135.132 229.617 135.411 230.932 135.97C232.279 136.529 233.315 137.317 234.038 138.336C234.761 139.322 235.122 140.522 235.122 141.935C235.122 144.465 234.103 146.618 232.066 148.393C230.028 150.134 227.202 151.285 223.587 151.843C222.272 152.041 221.024 152.156 219.841 152.188C218.691 152.221 217.59 152.205 216.539 152.139L216.982 147.702ZM238.491 135.625H245.392L245.047 137.942C245.967 137.317 246.887 136.808 247.808 136.414C248.761 135.987 249.714 135.674 250.667 135.477C251.62 135.247 252.589 135.132 253.575 135.132C255.613 135.132 257.174 135.641 258.258 136.66C259.343 137.679 259.885 139.076 259.885 140.85C259.885 141.146 259.819 141.688 259.688 142.477C259.589 143.233 259.458 144.12 259.293 145.139C259.129 146.158 258.948 147.226 258.751 148.343C258.587 149.428 258.423 150.479 258.258 151.498C258.094 152.484 257.946 153.339 257.815 154.062C257.716 154.752 257.667 155.195 257.667 155.393C257.667 155.721 257.749 155.984 257.913 156.181C258.11 156.346 258.373 156.428 258.702 156.428C258.866 156.428 259.031 156.428 259.195 156.428C259.392 156.395 259.556 156.346 259.688 156.28L259.293 162.146C258.768 162.376 258.11 162.557 257.322 162.688C256.566 162.853 255.843 162.935 255.153 162.935C254.101 162.935 253.164 162.754 252.343 162.393C251.554 161.998 250.93 161.472 250.47 160.815C250.042 160.125 249.829 159.336 249.829 158.449C249.829 158.055 249.878 157.479 249.977 156.724C250.075 155.935 250.19 155.048 250.322 154.062C250.486 153.043 250.667 151.991 250.864 150.907C251.061 149.822 251.225 148.803 251.357 147.85C251.521 146.864 251.653 146.01 251.751 145.287C251.85 144.564 251.899 144.071 251.899 143.808C251.899 143.118 251.702 142.576 251.308 142.181C250.946 141.787 250.338 141.59 249.484 141.59C249.024 141.59 248.531 141.656 248.005 141.787C247.479 141.886 246.953 142.05 246.427 142.28C245.934 142.477 245.441 142.707 244.948 142.97L241.793 162.442H234.251L238.491 135.625ZM267.298 147.702C267.955 147.768 268.678 147.768 269.467 147.702C270.289 147.637 271.078 147.555 271.833 147.456C273.772 147.127 275.284 146.585 276.369 145.829C277.453 145.073 277.995 144.12 277.995 142.97C277.995 142.247 277.798 141.721 277.404 141.393C277.009 141.031 276.352 140.85 275.432 140.85C274.15 140.85 272.984 141.278 271.932 142.132C270.913 142.987 270.108 144.202 269.516 145.78C268.958 147.325 268.662 149.165 268.629 151.301C268.629 152.616 268.81 153.667 269.171 154.456C269.533 155.245 270.108 155.803 270.897 156.132C271.718 156.461 272.77 156.625 274.052 156.625C274.676 156.625 275.383 156.576 276.171 156.477C276.96 156.379 277.815 156.231 278.735 156.033C279.688 155.803 280.641 155.508 281.594 155.146L282.531 161.21C281.019 161.801 279.408 162.228 277.7 162.491C275.991 162.787 274.315 162.935 272.671 162.935C270.207 162.935 268.12 162.524 266.411 161.702C264.702 160.848 263.387 159.616 262.467 158.005C261.58 156.395 261.136 154.472 261.136 152.238C261.136 149.806 261.465 147.555 262.122 145.484C262.779 143.414 263.749 141.606 265.031 140.062C266.345 138.517 267.955 137.317 269.862 136.463C271.801 135.576 274.035 135.132 276.566 135.132C278.373 135.132 279.934 135.411 281.249 135.97C282.596 136.529 283.631 137.317 284.354 138.336C285.078 139.322 285.439 140.522 285.439 141.935C285.439 144.465 284.42 146.618 282.383 148.393C280.345 150.134 277.519 151.285 273.904 151.843C272.589 152.041 271.34 152.156 270.157 152.188C269.007 152.221 267.906 152.205 266.854 152.139L267.298 147.702ZM284.46 173.287C282.981 173.287 281.47 172.991 279.925 172.4L281.65 166.386C281.946 166.484 282.242 166.55 282.538 166.583C282.801 166.648 283.063 166.681 283.326 166.681C283.918 166.681 284.427 166.517 284.854 166.188C285.282 165.893 285.627 165.416 285.89 164.759C286.185 164.134 286.399 163.362 286.531 162.442L289.538 143.512H286.185L287.073 138.139L290.524 137.646C290.984 134.721 291.822 132.371 293.038 130.597C294.254 128.822 295.798 127.524 297.671 126.702C299.545 125.881 301.648 125.47 303.981 125.47C304.671 125.47 305.362 125.503 306.052 125.569C306.775 125.602 307.563 125.684 308.418 125.815C309.272 125.947 310.193 126.144 311.178 126.407C312.197 126.637 313.331 126.949 314.58 127.343L312.411 133.111C311.491 132.881 310.538 132.667 309.552 132.47C308.599 132.24 307.678 132.059 306.791 131.928C305.937 131.764 305.131 131.681 304.376 131.681C302.502 131.681 301.04 132.158 299.988 133.111C298.97 134.064 298.279 135.576 297.918 137.646H312.805L308.862 162.442H301.319L304.326 143.512H297.031L293.925 162.738C293.563 165.071 292.972 167.01 292.15 168.555C291.362 170.132 290.326 171.315 289.045 172.104C287.763 172.893 286.235 173.287 284.46 173.287ZM324.181 162.935C321.716 162.935 319.662 162.541 318.019 161.752C316.376 160.963 315.16 159.829 314.371 158.35C313.582 156.839 313.188 155.031 313.188 152.928C313.188 150.266 313.5 147.85 314.124 145.681C314.782 143.479 315.751 141.59 317.033 140.012C318.315 138.435 319.908 137.235 321.815 136.414C323.721 135.559 325.923 135.132 328.42 135.132C329.34 135.132 330.261 135.181 331.181 135.28C332.101 135.346 333.005 135.444 333.892 135.576C334.779 135.707 335.585 135.904 336.308 136.167L334.237 142.329C333.153 142.001 332.117 141.787 331.131 141.688C330.178 141.59 329.209 141.541 328.223 141.541C327.106 141.541 326.087 141.803 325.167 142.329C324.279 142.855 323.507 143.594 322.85 144.548C322.193 145.468 321.683 146.536 321.322 147.752C320.993 148.968 320.829 150.266 320.829 151.646C320.829 152.665 321.042 153.552 321.47 154.308C321.93 155.031 322.57 155.59 323.392 155.984C324.214 156.346 325.183 156.526 326.3 156.526C326.991 156.526 327.648 156.51 328.272 156.477C328.93 156.411 329.587 156.329 330.244 156.231C330.901 156.132 331.592 156.001 332.315 155.836L332.857 161.653C332.035 161.916 331.131 162.163 330.146 162.393C329.193 162.59 328.19 162.721 327.139 162.787C326.12 162.886 325.134 162.935 324.181 162.935ZM334.646 162.442L338.885 135.625H346.427L342.188 162.442H334.646ZM344.406 124.681C345.688 124.681 346.641 124.928 347.265 125.421C347.89 125.914 348.202 126.67 348.202 127.688C348.202 128.74 347.988 129.66 347.561 130.449C347.167 131.205 346.592 131.796 345.836 132.224C345.08 132.618 344.143 132.815 343.026 132.815C341.744 132.815 340.791 132.569 340.167 132.076C339.542 131.55 339.23 130.778 339.23 129.759C339.23 128.773 339.411 127.902 339.772 127.146C340.134 126.357 340.693 125.749 341.448 125.322C342.204 124.895 343.19 124.681 344.406 124.681ZM366.97 162.935C366.247 162.935 365.556 162.836 364.899 162.639C364.275 162.442 363.7 162.146 363.174 161.752C362.681 161.325 362.27 160.832 361.941 160.273C361.251 160.832 360.495 161.308 359.674 161.702C358.885 162.097 358.047 162.393 357.16 162.59C356.305 162.82 355.401 162.935 354.448 162.935C352.838 162.935 351.441 162.59 350.258 161.9C349.075 161.177 348.139 160.109 347.448 158.695C346.791 157.282 346.462 155.524 346.462 153.421C346.462 149.444 347.07 146.109 348.286 143.414C349.535 140.686 351.293 138.632 353.561 137.252C355.862 135.839 358.589 135.132 361.744 135.132C362.664 135.132 363.617 135.181 364.603 135.28C365.589 135.379 366.542 135.51 367.462 135.674C368.416 135.839 369.303 136.019 370.124 136.217C370.979 136.414 371.735 136.627 372.392 136.857C371.899 139.914 371.472 142.51 371.11 144.646C370.782 146.749 370.502 148.475 370.272 149.822C370.075 151.17 369.911 152.221 369.779 152.977C369.648 153.733 369.549 154.292 369.484 154.653C369.451 154.982 369.434 155.179 369.434 155.245C369.434 155.639 369.516 155.935 369.681 156.132C369.845 156.329 370.108 156.428 370.47 156.428C370.601 156.428 370.749 156.428 370.913 156.428C371.11 156.395 371.291 156.346 371.455 156.28L371.061 162.097C370.568 162.327 369.944 162.524 369.188 162.688C368.465 162.853 367.725 162.935 366.97 162.935ZM361.793 155.343L363.962 141.639C363.535 141.442 363.059 141.31 362.533 141.245C362.04 141.179 361.514 141.146 360.955 141.146C359.707 141.146 358.556 141.639 357.505 142.625C356.486 143.578 355.681 144.893 355.089 146.569C354.498 148.245 354.202 150.118 354.202 152.188C354.202 153.602 354.514 154.67 355.139 155.393C355.796 156.116 356.634 156.477 357.653 156.477C358.113 156.477 358.589 156.428 359.082 156.329C359.575 156.231 360.052 156.099 360.512 155.935C361.005 155.738 361.432 155.54 361.793 155.343ZM358.244 133.062L363.765 123.498H371.308L364.012 133.062H358.244ZM383.15 135.625L382.657 138.731C383.643 137.876 384.547 137.186 385.369 136.66C386.19 136.134 386.962 135.756 387.685 135.526C388.409 135.264 389.164 135.132 389.953 135.132C390.512 135.132 391.054 135.181 391.58 135.28C392.139 135.346 392.664 135.477 393.157 135.674L390.939 142.97C390.38 142.806 389.822 142.691 389.263 142.625C388.737 142.559 388.244 142.526 387.784 142.526C386.995 142.526 386.174 142.658 385.319 142.921C384.498 143.184 383.561 143.677 382.509 144.4L379.601 162.442H372.108L376.397 135.625H383.15ZM390.07 162.442L394.31 135.625H401.852L397.613 162.442H390.07ZM399.831 124.681C401.113 124.681 402.066 124.928 402.69 125.421C403.315 125.914 403.627 126.67 403.627 127.688C403.627 128.74 403.413 129.66 402.986 130.449C402.592 131.205 402.016 131.796 401.261 132.224C400.505 132.618 399.568 132.815 398.451 132.815C397.169 132.815 396.216 132.569 395.592 132.076C394.967 131.55 394.655 130.778 394.655 129.759C394.655 128.773 394.836 127.902 395.197 127.146C395.559 126.357 396.117 125.749 396.873 125.322C397.629 124.895 398.615 124.681 399.831 124.681ZM413.324 162.935C410.859 162.935 408.789 162.557 407.113 161.801C405.47 161.012 404.221 159.862 403.366 158.35C402.512 156.806 402.085 154.867 402.085 152.533C402.085 150.989 402.183 149.494 402.38 148.048C402.61 146.602 402.939 145.238 403.366 143.956C403.826 142.641 404.401 141.458 405.092 140.407C405.815 139.322 406.653 138.386 407.606 137.597C408.592 136.775 409.709 136.151 410.958 135.724C412.207 135.296 413.603 135.083 415.148 135.083C417.481 135.083 419.453 135.477 421.063 136.266C422.707 137.022 423.955 138.172 424.81 139.717C425.697 141.261 426.141 143.2 426.141 145.533C426.141 147.111 426.026 148.639 425.796 150.118C425.566 151.597 425.221 152.977 424.761 154.259C424.333 155.54 423.775 156.724 423.085 157.808C422.394 158.86 421.573 159.78 420.62 160.569C419.7 161.325 418.615 161.916 417.366 162.343C416.15 162.738 414.803 162.935 413.324 162.935ZM413.225 157.069C413.883 157.036 414.474 156.839 415 156.477C415.526 156.116 415.986 155.623 416.38 154.998C416.775 154.374 417.103 153.651 417.366 152.829C417.662 152.008 417.892 151.137 418.056 150.217C418.254 149.296 418.385 148.36 418.451 147.407C418.516 146.454 418.549 145.55 418.549 144.695C418.516 143.381 418.171 142.428 417.514 141.836C416.857 141.245 416.002 140.949 414.951 140.949C414.293 140.949 413.702 141.146 413.176 141.541C412.65 141.935 412.174 142.461 411.747 143.118C411.352 143.742 411.007 144.465 410.711 145.287C410.448 146.109 410.218 146.979 410.021 147.9C409.857 148.787 409.742 149.674 409.676 150.562C409.61 151.449 409.577 152.303 409.577 153.125C409.61 154.538 409.939 155.557 410.563 156.181C411.221 156.773 412.108 157.069 413.225 157.069Z" fill="#363636"/>
</svg>
