<svg width="213" height="114" viewBox="0 0 213 114" fill="none" xmlns="http://www.w3.org/2000/svg">
<g filter="url(#filter0_d_983_1968)">
<rect x="6" y="4" width="200.798" height="102" rx="10" fill="#E1FF7B"/>
<path d="M54.3892 58H49.3892C49.3892 60.7614 47.1506 63 44.3892 63C41.6277 63 39.3892 60.7614 39.3892 58H34.3892C34.3892 63.5228 38.8663 68 44.3892 68C49.912 68 54.3892 63.5228 54.3892 58Z" fill="#363636"/>
<path d="M39.3892 50.5C39.3892 51.8807 38.2699 53 36.8892 53C35.5084 53 34.3892 51.8807 34.3892 50.5C34.3892 49.1193 35.5084 48 36.8892 48C38.2699 48 39.3892 49.1193 39.3892 50.5Z" fill="#363636"/>
<path d="M51.8892 53C53.2699 53 54.3892 51.8807 54.3892 50.5C54.3892 49.1193 53.2699 48 51.8892 48C50.5084 48 49.3892 49.1193 49.3892 50.5C49.3892 51.8807 50.5084 53 51.8892 53Z" fill="#363636"/>
<path fill-rule="evenodd" clip-rule="evenodd" d="M69.3892 55.5C69.3892 69.3071 58.1963 80.5 44.3892 80.5C30.582 80.5 19.3892 69.3071 19.3892 55.5C19.3892 41.6929 30.582 30.5 44.3892 30.5C58.1963 30.5 69.3892 41.6929 69.3892 55.5ZM64.3892 55.5C64.3892 66.5457 55.4349 75.5 44.3892 75.5C33.3435 75.5 24.3892 66.5457 24.3892 55.5C24.3892 44.4543 33.3435 35.5 44.3892 35.5C55.4349 35.5 64.3892 44.4543 64.3892 55.5Z" fill="#363636"/>
<path d="M80.535 53.2L85.485 42.58H86.955L88.62 53.2H87.3L86.895 50.455H83.13L81.855 53.2H80.535ZM83.52 49.465H86.82L86.055 43.78L83.52 49.465ZM92.0735 53.35C91.4335 53.35 90.8935 53.24 90.4535 53.02C90.0135 52.8 89.6785 52.485 89.4485 52.075C89.2285 51.665 89.1185 51.17 89.1185 50.59C89.1185 49.78 89.2135 49.035 89.4035 48.355C89.5935 47.665 89.8735 47.07 90.2435 46.57C90.6135 46.07 91.0585 45.685 91.5785 45.415C92.0985 45.145 92.6835 45.01 93.3335 45.01C93.5735 45.01 93.8135 45.02 94.0535 45.04C94.2935 45.06 94.5335 45.09 94.7735 45.13C95.0135 45.17 95.2435 45.23 95.4635 45.31L95.1185 46.3C94.7885 46.21 94.4735 46.15 94.1735 46.12C93.8835 46.08 93.5885 46.06 93.2885 46.06C92.8485 46.06 92.4485 46.17 92.0885 46.39C91.7285 46.61 91.4135 46.92 91.1435 47.32C90.8735 47.72 90.6635 48.185 90.5135 48.715C90.3635 49.235 90.2885 49.795 90.2885 50.395C90.2885 50.805 90.3735 51.155 90.5435 51.445C90.7235 51.725 90.9685 51.94 91.2785 52.09C91.5885 52.24 91.9585 52.315 92.3885 52.315C92.6285 52.315 92.8585 52.305 93.0785 52.285C93.2985 52.265 93.5085 52.235 93.7085 52.195C93.9185 52.155 94.1185 52.105 94.3085 52.045L94.4285 52.99C94.2085 53.06 93.9735 53.125 93.7235 53.185C93.4735 53.235 93.2085 53.275 92.9285 53.305C92.6585 53.335 92.3735 53.35 92.0735 53.35ZM96.0202 48.88C96.3102 48.9 96.6152 48.9 96.9352 48.88C97.2652 48.85 97.5852 48.81 97.8952 48.76C98.7052 48.63 99.3352 48.415 99.7852 48.115C100.245 47.805 100.475 47.405 100.475 46.915C100.475 46.595 100.365 46.355 100.145 46.195C99.9352 46.025 99.6102 45.94 99.1702 45.94C98.6002 45.94 98.0902 46.12 97.6402 46.48C97.1902 46.83 96.8402 47.32 96.5902 47.95C96.3402 48.57 96.2152 49.295 96.2152 50.125C96.2152 50.605 96.2902 51.015 96.4402 51.355C96.6002 51.685 96.8302 51.935 97.1302 52.105C97.4402 52.265 97.8152 52.345 98.2552 52.345C98.4852 52.345 98.7252 52.325 98.9752 52.285C99.2352 52.245 99.5002 52.19 99.7702 52.12C100.05 52.05 100.33 51.96 100.61 51.85L100.79 52.81C100.39 52.98 99.9502 53.11 99.4702 53.2C99.0002 53.3 98.5302 53.35 98.0602 53.35C97.4202 53.35 96.8752 53.23 96.4252 52.99C95.9752 52.74 95.6302 52.385 95.3902 51.925C95.1602 51.455 95.0452 50.895 95.0452 50.245C95.0452 49.475 95.1402 48.77 95.3302 48.13C95.5302 47.49 95.8152 46.94 96.1852 46.48C96.5652 46.01 97.0202 45.65 97.5502 45.4C98.0902 45.14 98.7002 45.01 99.3802 45.01C99.8402 45.01 100.24 45.08 100.58 45.22C100.92 45.36 101.18 45.56 101.36 45.82C101.55 46.08 101.645 46.39 101.645 46.75C101.645 47.48 101.335 48.09 100.715 48.58C100.105 49.07 99.2552 49.405 98.1652 49.585C97.7652 49.655 97.3752 49.7 96.9952 49.72C96.6152 49.73 96.2602 49.725 95.9302 49.705L96.0202 48.88ZM101.045 52.87L101.36 51.925C101.57 52.005 101.81 52.085 102.08 52.165C102.35 52.235 102.635 52.295 102.935 52.345C103.235 52.385 103.53 52.405 103.82 52.405C104.29 52.405 104.67 52.35 104.96 52.24C105.26 52.13 105.48 51.98 105.62 51.79C105.76 51.59 105.83 51.365 105.83 51.115C105.83 50.855 105.76 50.64 105.62 50.47C105.49 50.3 105.31 50.15 105.08 50.02C104.86 49.89 104.615 49.775 104.345 49.675C104.085 49.565 103.82 49.45 103.55 49.33C103.29 49.2 103.045 49.05 102.815 48.88C102.595 48.71 102.415 48.5 102.275 48.25C102.145 47.99 102.08 47.68 102.08 47.32C102.08 46.97 102.14 46.655 102.26 46.375C102.39 46.095 102.585 45.855 102.845 45.655C103.105 45.445 103.435 45.285 103.835 45.175C104.235 45.065 104.705 45.01 105.245 45.01C105.655 45.01 106.055 45.045 106.445 45.115C106.835 45.185 107.17 45.28 107.45 45.4L107.15 46.33C106.96 46.26 106.75 46.2 106.52 46.15C106.3 46.09 106.07 46.045 105.83 46.015C105.6 45.975 105.365 45.955 105.125 45.955C104.675 45.955 104.31 46.01 104.03 46.12C103.75 46.23 103.545 46.38 103.415 46.57C103.285 46.75 103.22 46.96 103.22 47.2C103.22 47.45 103.285 47.66 103.415 47.83C103.555 47.99 103.735 48.135 103.955 48.265C104.185 48.385 104.43 48.5 104.69 48.61C104.96 48.71 105.225 48.825 105.485 48.955C105.755 49.075 106 49.22 106.22 49.39C106.45 49.56 106.63 49.77 106.76 50.02C106.9 50.27 106.97 50.575 106.97 50.935C106.97 51.255 106.925 51.545 106.835 51.805C106.745 52.055 106.61 52.275 106.43 52.465C106.25 52.655 106.03 52.82 105.77 52.96C105.51 53.09 105.21 53.185 104.87 53.245C104.53 53.315 104.15 53.35 103.73 53.35C103.18 53.35 102.68 53.305 102.23 53.215C101.79 53.125 101.395 53.01 101.045 52.87ZM106.854 52.87L107.169 51.925C107.379 52.005 107.619 52.085 107.889 52.165C108.159 52.235 108.444 52.295 108.744 52.345C109.044 52.385 109.339 52.405 109.629 52.405C110.099 52.405 110.479 52.35 110.769 52.24C111.069 52.13 111.289 51.98 111.429 51.79C111.569 51.59 111.639 51.365 111.639 51.115C111.639 50.855 111.569 50.64 111.429 50.47C111.299 50.3 111.119 50.15 110.889 50.02C110.669 49.89 110.424 49.775 110.154 49.675C109.894 49.565 109.629 49.45 109.359 49.33C109.099 49.2 108.854 49.05 108.624 48.88C108.404 48.71 108.224 48.5 108.084 48.25C107.954 47.99 107.889 47.68 107.889 47.32C107.889 46.97 107.949 46.655 108.069 46.375C108.199 46.095 108.394 45.855 108.654 45.655C108.914 45.445 109.244 45.285 109.644 45.175C110.044 45.065 110.514 45.01 111.054 45.01C111.464 45.01 111.864 45.045 112.254 45.115C112.644 45.185 112.979 45.28 113.259 45.4L112.959 46.33C112.769 46.26 112.559 46.2 112.329 46.15C112.109 46.09 111.879 46.045 111.639 46.015C111.409 45.975 111.174 45.955 110.934 45.955C110.484 45.955 110.119 46.01 109.839 46.12C109.559 46.23 109.354 46.38 109.224 46.57C109.094 46.75 109.029 46.96 109.029 47.2C109.029 47.45 109.094 47.66 109.224 47.83C109.364 47.99 109.544 48.135 109.764 48.265C109.994 48.385 110.239 48.5 110.499 48.61C110.769 48.71 111.034 48.825 111.294 48.955C111.564 49.075 111.809 49.22 112.029 49.39C112.259 49.56 112.439 49.77 112.569 50.02C112.709 50.27 112.779 50.575 112.779 50.935C112.779 51.255 112.734 51.545 112.644 51.805C112.554 52.055 112.419 52.275 112.239 52.465C112.059 52.655 111.839 52.82 111.579 52.96C111.319 53.09 111.019 53.185 110.679 53.245C110.339 53.315 109.959 53.35 109.539 53.35C108.989 53.35 108.489 53.305 108.039 53.215C107.599 53.125 107.204 53.01 106.854 52.87ZM116.216 53.35C115.586 53.35 115.061 53.25 114.641 53.05C114.221 52.84 113.901 52.525 113.681 52.105C113.461 51.685 113.351 51.155 113.351 50.515C113.351 50.045 113.381 49.59 113.441 49.15C113.511 48.7 113.611 48.27 113.741 47.86C113.871 47.44 114.036 47.06 114.236 46.72C114.436 46.37 114.671 46.065 114.941 45.805C115.211 45.545 115.516 45.345 115.856 45.205C116.206 45.065 116.586 44.995 116.996 44.995C117.596 44.995 118.106 45.1 118.526 45.31C118.946 45.52 119.266 45.84 119.486 46.27C119.716 46.69 119.831 47.22 119.831 47.86C119.831 48.35 119.796 48.825 119.726 49.285C119.666 49.735 119.571 50.165 119.441 50.575C119.311 50.985 119.146 51.36 118.946 51.7C118.756 52.04 118.526 52.335 118.256 52.585C117.996 52.825 117.696 53.015 117.356 53.155C117.016 53.285 116.636 53.35 116.216 53.35ZM116.171 52.405C116.451 52.405 116.706 52.345 116.936 52.225C117.176 52.095 117.386 51.925 117.566 51.715C117.746 51.495 117.906 51.24 118.046 50.95C118.186 50.66 118.301 50.345 118.391 50.005C118.481 49.655 118.546 49.295 118.586 48.925C118.636 48.555 118.661 48.18 118.661 47.8C118.661 47.17 118.511 46.705 118.211 46.405C117.921 46.095 117.521 45.94 117.011 45.94C116.731 45.94 116.476 46.005 116.246 46.135C116.016 46.265 115.806 46.445 115.616 46.675C115.426 46.895 115.261 47.155 115.121 47.455C114.991 47.745 114.876 48.06 114.776 48.4C114.686 48.74 114.616 49.09 114.566 49.45C114.526 49.8 114.506 50.15 114.506 50.5C114.506 51.16 114.646 51.645 114.926 51.955C115.216 52.255 115.631 52.405 116.171 52.405ZM81.19 71.2L83.318 57.881C83.888 57.8557 84.4073 57.8303 84.876 57.805C85.3447 57.7797 85.769 57.7607 86.149 57.748C86.5417 57.7353 86.8837 57.729 87.175 57.729C87.4663 57.7163 87.7133 57.71 87.916 57.71C89.17 57.71 90.1833 57.8557 90.956 58.147C91.7287 58.4383 92.286 58.8753 92.628 59.458C92.9827 60.0407 93.16 60.7817 93.16 61.681C93.16 62.6437 93.0333 63.4923 92.78 64.227C92.5267 64.9617 92.1403 65.576 91.621 66.07C91.1143 66.564 90.4747 66.9377 89.702 67.191C88.9293 67.4317 88.0173 67.552 86.966 67.552C86.7127 67.552 86.4847 67.552 86.282 67.552C86.0793 67.552 85.864 67.5457 85.636 67.533C85.408 67.5203 85.123 67.5013 84.781 67.476L84.173 71.2H81.19ZM85.94 60.218L85.161 65.044C85.427 65.0567 85.6487 65.0693 85.826 65.082C86.016 65.082 86.187 65.0883 86.339 65.101C86.5037 65.101 86.6683 65.101 86.833 65.101C87.4283 65.101 87.935 65.0313 88.353 64.892C88.771 64.74 89.113 64.531 89.379 64.265C89.645 63.9863 89.835 63.6697 89.949 63.315C90.0757 62.9603 90.139 62.5677 90.139 62.137C90.139 61.681 90.063 61.3073 89.911 61.016C89.7717 60.7247 89.531 60.5093 89.189 60.37C88.8597 60.218 88.4163 60.142 87.859 60.142C87.707 60.142 87.5613 60.1483 87.422 60.161C87.2953 60.161 87.1623 60.1673 87.023 60.18C86.8837 60.18 86.7253 60.1863 86.548 60.199C86.3833 60.199 86.1807 60.2053 85.94 60.218ZM95.1404 65.519C95.3938 65.5443 95.6724 65.5443 95.9764 65.519C96.2931 65.4937 96.5971 65.462 96.8884 65.424C97.6358 65.2973 98.2184 65.0883 98.6364 64.797C99.0544 64.5057 99.2634 64.1383 99.2634 63.695C99.2634 63.4163 99.1874 63.2137 99.0354 63.087C98.8834 62.9477 98.6301 62.878 98.2754 62.878C97.7814 62.878 97.3318 63.0427 96.9264 63.372C96.5338 63.7013 96.2234 64.17 95.9954 64.778C95.7801 65.3733 95.6661 66.0827 95.6534 66.906C95.6534 67.4127 95.7231 67.818 95.8624 68.122C96.0018 68.426 96.2234 68.6413 96.5274 68.768C96.8441 68.8947 97.2494 68.958 97.7434 68.958C97.9841 68.958 98.2564 68.939 98.5604 68.901C98.8644 68.863 99.1938 68.806 99.5484 68.73C99.9158 68.6413 100.283 68.5273 100.65 68.388L101.011 70.725C100.429 70.953 99.8081 71.1177 99.1494 71.219C98.4908 71.333 97.8448 71.39 97.2114 71.39C96.2614 71.39 95.4571 71.2317 94.7984 70.915C94.1398 70.5857 93.6331 70.1107 93.2784 69.49C92.9364 68.8693 92.7654 68.1283 92.7654 67.267C92.7654 66.3297 92.8921 65.462 93.1454 64.664C93.3988 63.866 93.7724 63.1693 94.2664 62.574C94.7731 61.9787 95.3938 61.5163 96.1284 61.187C96.8758 60.845 97.7371 60.674 98.7124 60.674C99.4091 60.674 100.011 60.7817 100.517 60.997C101.037 61.2123 101.436 61.5163 101.714 61.909C101.993 62.289 102.132 62.7513 102.132 63.296C102.132 64.2713 101.74 65.101 100.954 65.785C100.169 66.4563 99.0798 66.8997 97.6864 67.115C97.1798 67.191 96.6984 67.2353 96.2424 67.248C95.7991 67.2607 95.3748 67.2543 94.9694 67.229L95.1404 65.519ZM101.331 70.744L102.034 68.54C102.313 68.654 102.636 68.7617 103.003 68.863C103.383 68.9517 103.769 69.0277 104.162 69.091C104.555 69.1417 104.916 69.167 105.245 69.167C105.625 69.167 105.929 69.129 106.157 69.053C106.385 68.977 106.55 68.8757 106.651 68.749C106.752 68.6097 106.803 68.4513 106.803 68.274C106.803 68.0713 106.721 67.9003 106.556 67.761C106.404 67.6217 106.195 67.5013 105.929 67.4C105.676 67.2987 105.397 67.1973 105.093 67.096C104.789 66.9947 104.479 66.8743 104.162 66.735C103.858 66.583 103.573 66.3993 103.307 66.184C103.054 65.9687 102.845 65.6963 102.68 65.367C102.528 65.0377 102.452 64.6323 102.452 64.151C102.452 63.5937 102.547 63.106 102.737 62.688C102.94 62.2573 103.231 61.8963 103.611 61.605C104.004 61.301 104.485 61.073 105.055 60.921C105.625 60.7563 106.277 60.674 107.012 60.674C107.633 60.674 108.209 60.7247 108.741 60.826C109.273 60.9273 109.742 61.054 110.147 61.206L109.463 63.41C109.197 63.3213 108.906 63.2453 108.589 63.182C108.272 63.106 107.956 63.049 107.639 63.011C107.322 62.973 107.025 62.954 106.746 62.954C106.391 62.954 106.1 62.992 105.872 63.068C105.657 63.144 105.498 63.2453 105.397 63.372C105.308 63.4987 105.264 63.6507 105.264 63.828C105.264 64.018 105.34 64.1763 105.492 64.303C105.657 64.417 105.866 64.5183 106.119 64.607C106.385 64.6957 106.67 64.7907 106.974 64.892C107.291 64.9933 107.601 65.1137 107.905 65.253C108.222 65.3923 108.507 65.5697 108.76 65.785C109.026 66.0003 109.235 66.2727 109.387 66.602C109.539 66.9187 109.615 67.3177 109.615 67.799C109.615 68.331 109.539 68.7997 109.387 69.205C109.248 69.5977 109.039 69.9333 108.76 70.212C108.494 70.4907 108.171 70.7187 107.791 70.896C107.424 71.0607 107.012 71.181 106.556 71.257C106.1 71.3457 105.612 71.39 105.093 71.39C104.32 71.39 103.63 71.3267 103.022 71.2C102.427 71.086 101.863 70.934 101.331 70.744ZM109.283 70.744L109.986 68.54C110.265 68.654 110.588 68.7617 110.955 68.863C111.335 68.9517 111.722 69.0277 112.114 69.091C112.507 69.1417 112.868 69.167 113.197 69.167C113.577 69.167 113.881 69.129 114.109 69.053C114.337 68.977 114.502 68.8757 114.603 68.749C114.705 68.6097 114.755 68.4513 114.755 68.274C114.755 68.0713 114.673 67.9003 114.508 67.761C114.356 67.6217 114.147 67.5013 113.881 67.4C113.628 67.2987 113.349 67.1973 113.045 67.096C112.741 66.9947 112.431 66.8743 112.114 66.735C111.81 66.583 111.525 66.3993 111.259 66.184C111.006 65.9687 110.797 65.6963 110.632 65.367C110.48 65.0377 110.404 64.6323 110.404 64.151C110.404 63.5937 110.499 63.106 110.689 62.688C110.892 62.2573 111.183 61.8963 111.563 61.605C111.956 61.301 112.437 61.073 113.007 60.921C113.577 60.7563 114.23 60.674 114.964 60.674C115.585 60.674 116.161 60.7247 116.693 60.826C117.225 60.9273 117.694 61.054 118.099 61.206L117.415 63.41C117.149 63.3213 116.858 63.2453 116.541 63.182C116.225 63.106 115.908 63.049 115.591 63.011C115.275 62.973 114.977 62.954 114.698 62.954C114.344 62.954 114.052 62.992 113.824 63.068C113.609 63.144 113.451 63.2453 113.349 63.372C113.261 63.4987 113.216 63.6507 113.216 63.828C113.216 64.018 113.292 64.1763 113.444 64.303C113.609 64.417 113.818 64.5183 114.071 64.607C114.337 64.6957 114.622 64.7907 114.926 64.892C115.243 64.9933 115.553 65.1137 115.857 65.253C116.174 65.3923 116.459 65.5697 116.712 65.785C116.978 66.0003 117.187 66.2727 117.339 66.602C117.491 66.9187 117.567 67.3177 117.567 67.799C117.567 68.331 117.491 68.7997 117.339 69.205C117.2 69.5977 116.991 69.9333 116.712 70.212C116.446 70.4907 116.123 70.7187 115.743 70.896C115.376 71.0607 114.964 71.181 114.508 71.257C114.052 71.3457 113.565 71.39 113.045 71.39C112.273 71.39 111.582 71.3267 110.974 71.2C110.379 71.086 109.815 70.934 109.283 70.744ZM122.422 71.39C121.472 71.39 120.674 71.2443 120.028 70.953C119.394 70.649 118.913 70.2057 118.584 69.623C118.254 69.0277 118.09 68.2803 118.09 67.381C118.09 66.7857 118.128 66.2093 118.204 65.652C118.292 65.0947 118.419 64.569 118.584 64.075C118.761 63.5683 118.983 63.1123 119.249 62.707C119.527 62.289 119.85 61.928 120.218 61.624C120.598 61.3073 121.028 61.0667 121.51 60.902C121.991 60.7373 122.529 60.655 123.125 60.655C124.024 60.655 124.784 60.807 125.405 61.111C126.038 61.4023 126.519 61.8457 126.849 62.441C127.191 63.0363 127.362 63.7837 127.362 64.683C127.362 65.291 127.317 65.88 127.229 66.45C127.14 67.02 127.007 67.552 126.83 68.046C126.665 68.54 126.45 68.996 126.184 69.414C125.918 69.8193 125.601 70.174 125.234 70.478C124.879 70.7693 124.461 70.9973 123.98 71.162C123.511 71.314 122.992 71.39 122.422 71.39ZM122.384 69.129C122.637 69.1163 122.865 69.0403 123.068 68.901C123.27 68.7617 123.448 68.5717 123.6 68.331C123.752 68.0903 123.878 67.8117 123.98 67.495C124.094 67.1783 124.182 66.8427 124.246 66.488C124.322 66.1333 124.372 65.7723 124.398 65.405C124.423 65.0377 124.436 64.6893 124.436 64.36C124.423 63.8533 124.29 63.486 124.037 63.258C123.783 63.03 123.454 62.916 123.049 62.916C122.795 62.916 122.567 62.992 122.365 63.144C122.162 63.296 121.978 63.4987 121.814 63.752C121.662 63.9927 121.529 64.2713 121.415 64.588C121.313 64.9047 121.225 65.2403 121.149 65.595C121.085 65.937 121.041 66.279 121.016 66.621C120.99 66.963 120.978 67.2923 120.978 67.609C120.99 68.1537 121.117 68.5463 121.358 68.787C121.611 69.015 121.953 69.129 122.384 69.129ZM135.633 71.39C135.354 71.39 135.088 71.352 134.835 71.276C134.594 71.2 134.372 71.086 134.17 70.934C133.98 70.7693 133.821 70.5793 133.695 70.364C133.429 70.5793 133.137 70.763 132.821 70.915C132.517 71.067 132.194 71.181 131.852 71.257C131.522 71.3457 131.174 71.39 130.807 71.39C130.186 71.39 129.648 71.257 129.192 70.991C128.736 70.7123 128.375 70.3007 128.109 69.756C127.855 69.2113 127.729 68.5337 127.729 67.723C127.729 66.1903 127.963 64.9047 128.432 63.866C128.913 62.8147 129.591 62.023 130.465 61.491C131.351 60.9463 132.403 60.674 133.619 60.674C133.973 60.674 134.341 60.693 134.721 60.731C135.101 60.769 135.468 60.8197 135.823 60.883C136.19 60.9463 136.532 61.016 136.849 61.092C137.178 61.168 137.469 61.2503 137.723 61.339C137.533 62.517 137.368 63.5177 137.229 64.341C137.102 65.1517 136.994 65.8167 136.906 66.336C136.83 66.8553 136.766 67.2607 136.716 67.552C136.665 67.8433 136.627 68.0587 136.602 68.198C136.589 68.3247 136.583 68.4007 136.583 68.426C136.583 68.578 136.614 68.692 136.678 68.768C136.741 68.844 136.842 68.882 136.982 68.882C137.032 68.882 137.089 68.882 137.153 68.882C137.229 68.8693 137.298 68.8503 137.362 68.825L137.21 71.067C137.02 71.1557 136.779 71.2317 136.488 71.295C136.209 71.3583 135.924 71.39 135.633 71.39ZM133.638 68.464L134.474 63.182C134.309 63.106 134.125 63.0553 133.923 63.03C133.733 63.0047 133.53 62.992 133.315 62.992C132.833 62.992 132.39 63.182 131.985 63.562C131.592 63.9293 131.282 64.436 131.054 65.082C130.826 65.728 130.712 66.45 130.712 67.248C130.712 67.7927 130.832 68.2043 131.073 68.483C131.326 68.7617 131.649 68.901 132.042 68.901C132.219 68.901 132.403 68.882 132.593 68.844C132.783 68.806 132.966 68.7553 133.144 68.692C133.334 68.616 133.498 68.54 133.638 68.464ZM142.219 71.2L144.366 57.9H153.163L152.726 60.484H146.931L146.361 64.113H151.377L150.94 66.64H145.962L145.221 71.2H142.219ZM154.653 71.2H151.727L153.38 60.864H156.287L154.653 71.2ZM153.627 59.876L155.755 56.19H158.662L155.85 59.876H153.627ZM155.458 70.744L156.161 68.54C156.439 68.654 156.762 68.7617 157.13 68.863C157.51 68.9517 157.896 69.0277 158.289 69.091C158.681 69.1417 159.042 69.167 159.372 69.167C159.752 69.167 160.056 69.129 160.284 69.053C160.512 68.977 160.676 68.8757 160.778 68.749C160.879 68.6097 160.93 68.4513 160.93 68.274C160.93 68.0713 160.847 67.9003 160.683 67.761C160.531 67.6217 160.322 67.5013 160.056 67.4C159.802 67.2987 159.524 67.1973 159.22 67.096C158.916 66.9947 158.605 66.8743 158.289 66.735C157.985 66.583 157.7 66.3993 157.434 66.184C157.18 65.9687 156.971 65.6963 156.807 65.367C156.655 65.0377 156.579 64.6323 156.579 64.151C156.579 63.5937 156.674 63.106 156.864 62.688C157.066 62.2573 157.358 61.8963 157.738 61.605C158.13 61.301 158.612 61.073 159.182 60.921C159.752 60.7563 160.404 60.674 161.139 60.674C161.759 60.674 162.336 60.7247 162.868 60.826C163.4 60.9273 163.868 61.054 164.274 61.206L163.59 63.41C163.324 63.3213 163.032 63.2453 162.716 63.182C162.399 63.106 162.082 63.049 161.766 63.011C161.449 62.973 161.151 62.954 160.873 62.954C160.518 62.954 160.227 62.992 159.999 63.068C159.783 63.144 159.625 63.2453 159.524 63.372C159.435 63.4987 159.391 63.6507 159.391 63.828C159.391 64.018 159.467 64.1763 159.619 64.303C159.783 64.417 159.992 64.5183 160.246 64.607C160.512 64.6957 160.797 64.7907 161.101 64.892C161.417 64.9933 161.728 65.1137 162.032 65.253C162.348 65.3923 162.633 65.5697 162.887 65.785C163.153 66.0003 163.362 66.2727 163.514 66.602C163.666 66.9187 163.742 67.3177 163.742 67.799C163.742 68.331 163.666 68.7997 163.514 69.205C163.374 69.5977 163.165 69.9333 162.887 70.212C162.621 70.4907 162.298 70.7187 161.918 70.896C161.55 71.0607 161.139 71.181 160.683 71.257C160.227 71.3457 159.739 71.39 159.22 71.39C158.447 71.39 157.757 71.3267 157.149 71.2C156.553 71.086 155.99 70.934 155.458 70.744ZM163.959 71.2L165.593 60.864H168.5L166.866 71.2H163.959ZM167.721 56.646C168.215 56.646 168.582 56.741 168.823 56.931C169.063 57.121 169.184 57.4123 169.184 57.805C169.184 58.2103 169.101 58.565 168.937 58.869C168.785 59.1603 168.563 59.3883 168.272 59.553C167.98 59.705 167.619 59.781 167.189 59.781C166.695 59.781 166.327 59.686 166.087 59.496C165.846 59.2933 165.726 58.9957 165.726 58.603C165.726 58.223 165.795 57.8873 165.935 57.596C166.074 57.292 166.289 57.0577 166.581 56.893C166.872 56.7283 167.252 56.646 167.721 56.646ZM172.723 71.39C171.773 71.39 170.981 71.238 170.348 70.934C169.714 70.63 169.246 70.193 168.942 69.623C168.638 69.0403 168.486 68.3437 168.486 67.533C168.486 66.507 168.606 65.576 168.847 64.74C169.1 63.8913 169.474 63.163 169.968 62.555C170.462 61.947 171.076 61.4847 171.811 61.168C172.545 60.8387 173.394 60.674 174.357 60.674C174.711 60.674 175.066 60.693 175.421 60.731C175.775 60.7563 176.124 60.7943 176.466 60.845C176.808 60.8957 177.118 60.9717 177.397 61.073L176.599 63.448C176.181 63.3213 175.782 63.239 175.402 63.201C175.034 63.163 174.661 63.144 174.281 63.144C173.85 63.144 173.457 63.2453 173.103 63.448C172.761 63.6507 172.463 63.9357 172.21 64.303C171.956 64.6577 171.76 65.0693 171.621 65.538C171.494 66.0067 171.431 66.507 171.431 67.039C171.431 67.4317 171.513 67.7737 171.678 68.065C171.855 68.3437 172.102 68.559 172.419 68.711C172.735 68.8503 173.109 68.92 173.54 68.92C173.806 68.92 174.059 68.9137 174.3 68.901C174.553 68.8757 174.806 68.844 175.06 68.806C175.313 68.768 175.579 68.7173 175.858 68.654L176.067 70.896C175.75 70.9973 175.402 71.0923 175.022 71.181C174.654 71.257 174.268 71.3077 173.863 71.333C173.47 71.371 173.09 71.39 172.723 71.39ZM184.675 71.39C184.397 71.39 184.131 71.352 183.877 71.276C183.637 71.2 183.415 71.086 183.212 70.934C183.022 70.7693 182.864 70.5793 182.737 70.364C182.471 70.5793 182.18 70.763 181.863 70.915C181.559 71.067 181.236 71.181 180.894 71.257C180.565 71.3457 180.217 71.39 179.849 71.39C179.229 71.39 178.69 71.257 178.234 70.991C177.778 70.7123 177.417 70.3007 177.151 69.756C176.898 69.2113 176.771 68.5337 176.771 67.723C176.771 66.1903 177.006 64.9047 177.474 63.866C177.956 62.8147 178.633 62.023 179.507 61.491C180.394 60.9463 181.445 60.674 182.661 60.674C183.016 60.674 183.383 60.693 183.763 60.731C184.143 60.769 184.511 60.8197 184.865 60.883C185.233 60.9463 185.575 61.016 185.891 61.092C186.221 61.168 186.512 61.2503 186.765 61.339C186.575 62.517 186.411 63.5177 186.271 64.341C186.145 65.1517 186.037 65.8167 185.948 66.336C185.872 66.8553 185.809 67.2607 185.758 67.552C185.708 67.8433 185.67 68.0587 185.644 68.198C185.632 68.3247 185.625 68.4007 185.625 68.426C185.625 68.578 185.657 68.692 185.72 68.768C185.784 68.844 185.885 68.882 186.024 68.882C186.075 68.882 186.132 68.882 186.195 68.882C186.271 68.8693 186.341 68.8503 186.404 68.825L186.252 71.067C186.062 71.1557 185.822 71.2317 185.53 71.295C185.252 71.3583 184.967 71.39 184.675 71.39ZM182.68 68.464L183.516 63.182C183.352 63.106 183.168 63.0553 182.965 63.03C182.775 63.0047 182.573 62.992 182.357 62.992C181.876 62.992 181.433 63.182 181.027 63.562C180.635 63.9293 180.324 64.436 180.096 65.082C179.868 65.728 179.754 66.45 179.754 67.248C179.754 67.7927 179.875 68.2043 180.115 68.483C180.369 68.7617 180.692 68.901 181.084 68.901C181.262 68.901 181.445 68.882 181.635 68.844C181.825 68.806 182.009 68.7553 182.186 68.692C182.376 68.616 182.541 68.54 182.68 68.464Z" fill="#363636"/>
</g>
<defs>
<filter id="filter0_d_983_1968" x="0" y="0" width="212.798" height="114" filterUnits="userSpaceOnUse" color-interpolation-filters="sRGB">
<feFlood flood-opacity="0" result="BackgroundImageFix"/>
<feColorMatrix in="SourceAlpha" type="matrix" values="0 0 0 0 0 0 0 0 0 0 0 0 0 0 0 0 0 0 127 0" result="hardAlpha"/>
<feMorphology radius="2" operator="erode" in="SourceAlpha" result="effect1_dropShadow_983_1968"/>
<feOffset dy="2"/>
<feGaussianBlur stdDeviation="4"/>
<feComposite in2="hardAlpha" operator="out"/>
<feColorMatrix type="matrix" values="0 0 0 0 0.133333 0 0 0 0 0.133333 0 0 0 0 0.133333 0 0 0 0.4 0"/>
<feBlend mode="normal" in2="BackgroundImageFix" result="effect1_dropShadow_983_1968"/>
<feBlend mode="normal" in="SourceGraphic" in2="effect1_dropShadow_983_1968" result="shape"/>
</filter>
</defs>
</svg>
