<svg width="470" height="239" viewBox="0 0 470 239" fill="none" xmlns="http://www.w3.org/2000/svg">
<path d="M445.79 0H23.3645C10.4606 0 0 10.4606 0 23.3645V214.953C0 227.857 10.4606 238.318 23.3645 238.318H445.79C458.694 238.318 469.154 227.857 469.154 214.953V23.3645C469.154 10.4606 458.694 0 445.79 0Z" fill="#FF627F"/>
<path d="M101.412 143.233L78.8833 120.705L86.3929 113.195L101.412 128.214L131.451 98.1758L138.96 105.685L101.412 143.233Z" fill="#363636"/>
<path fill-rule="evenodd" clip-rule="evenodd" d="M52.333 120.327C52.333 88.0676 78.4846 61.916 110.744 61.916C143.004 61.916 169.155 88.0676 169.155 120.327C169.155 152.587 143.004 178.738 110.744 178.738C78.4846 178.738 52.333 152.587 52.333 120.327ZM110.744 168.118C84.3498 168.118 62.9531 146.721 62.9531 120.327C62.9531 93.9331 84.3498 72.5363 110.744 72.5363C137.138 72.5363 158.535 93.9331 158.535 120.327C158.535 146.721 137.138 168.118 110.744 168.118Z" fill="#363636"/>
<path d="M196.591 89.2525L208.156 64.4395H211.591L215.481 89.2525H212.397L211.451 82.839H202.654L199.675 89.2525H196.591ZM203.565 80.5259H211.275L209.488 67.2432L203.565 80.5259ZM223.549 89.603C222.053 89.603 220.792 89.346 219.764 88.832C218.736 88.318 217.954 87.582 217.417 86.624C216.903 85.6661 216.646 84.5095 216.646 83.1544C216.646 81.2619 216.868 79.5212 217.312 77.9324C217.756 76.3203 218.41 74.9301 219.273 73.7619C220.138 72.5937 221.177 71.6941 222.392 71.0633C223.607 70.4324 224.974 70.117 226.493 70.117C227.053 70.117 227.614 70.1404 228.175 70.1871C228.736 70.2338 229.296 70.3039 229.857 70.3974C230.418 70.4909 230.955 70.631 231.469 70.818L230.663 73.131C229.892 72.9208 229.156 72.7806 228.455 72.7105C227.778 72.617 227.088 72.5703 226.388 72.5703C225.36 72.5703 224.425 72.8273 223.584 73.3413C222.743 73.8553 222.007 74.5796 221.376 75.5142C220.745 76.4488 220.254 77.5352 219.904 78.7736C219.553 79.9885 219.378 81.2969 219.378 82.6988C219.378 83.6567 219.577 84.4745 219.974 85.1521C220.395 85.8063 220.967 86.3086 221.691 86.6591C222.416 87.0095 223.28 87.1848 224.285 87.1848C224.845 87.1848 225.383 87.1614 225.897 87.1147C226.411 87.068 226.902 86.9979 227.369 86.9044C227.86 86.8109 228.327 86.6941 228.771 86.5539L229.051 88.7619C228.537 88.9254 227.988 89.0773 227.404 89.2175C226.82 89.3343 226.201 89.4278 225.546 89.4979C224.916 89.568 224.25 89.603 223.549 89.603ZM232.771 79.1591C233.448 79.2058 234.161 79.2058 234.909 79.1591C235.68 79.089 236.427 78.9955 237.152 78.8787C239.044 78.575 240.516 78.0726 241.567 77.3717C242.642 76.6474 243.18 75.7128 243.18 74.568C243.18 73.8203 242.923 73.2595 242.409 72.8857C241.918 72.4885 241.159 72.2899 240.131 72.2899C238.799 72.2899 237.607 72.7105 236.556 73.5516C235.504 74.3694 234.687 75.5142 234.102 76.9862C233.518 78.4348 233.226 80.1287 233.226 82.068C233.226 83.1894 233.402 84.1474 233.752 84.9418C234.126 85.7128 234.663 86.2969 235.364 86.6941C236.088 87.068 236.965 87.2549 237.993 87.2549C238.53 87.2549 239.091 87.2081 239.675 87.1147C240.282 87.0212 240.902 86.8927 241.532 86.7292C242.187 86.5656 242.841 86.3553 243.495 86.0983L243.916 88.3413C242.981 88.7385 241.953 89.0423 240.831 89.2525C239.733 89.4862 238.635 89.603 237.537 89.603C236.042 89.603 234.768 89.3226 233.717 88.7619C232.666 88.1778 231.86 87.3483 231.299 86.2736C230.761 85.1754 230.493 83.867 230.493 82.3483C230.493 80.5493 230.715 78.9021 231.159 77.4067C231.626 75.9114 232.292 74.6264 233.156 73.5516C234.044 72.4535 235.107 71.6123 236.345 71.0282C237.607 70.4208 239.032 70.117 240.621 70.117C241.696 70.117 242.631 70.2806 243.425 70.6077C244.219 70.9348 244.827 71.4021 245.247 72.0095C245.691 72.617 245.913 73.3413 245.913 74.1824C245.913 75.888 245.189 77.3133 243.74 78.4581C242.315 79.603 240.329 80.3857 237.782 80.8063C236.848 80.9698 235.937 81.075 235.049 81.1217C234.161 81.1451 233.331 81.1334 232.56 81.0866L232.771 79.1591ZM244.511 88.4815L245.247 86.2736C245.738 86.4605 246.299 86.6474 246.93 86.8343C247.56 86.9979 248.226 87.1381 248.927 87.2549C249.628 87.3483 250.317 87.3951 250.995 87.3951C252.093 87.3951 252.981 87.2666 253.659 87.0095C254.36 86.7525 254.874 86.4021 255.201 85.9581C255.528 85.4909 255.691 84.9652 255.691 84.381C255.691 83.7736 255.528 83.2712 255.201 82.874C254.897 82.4768 254.476 82.1264 253.939 81.8226C253.425 81.5189 252.852 81.2502 252.222 81.0166C251.614 80.7595 250.995 80.4909 250.364 80.2105C249.757 79.9067 249.184 79.5563 248.647 79.1591C248.133 78.7619 247.712 78.2712 247.385 77.6871C247.081 77.0796 246.93 76.3553 246.93 75.5142C246.93 74.6965 247.07 73.9605 247.35 73.3063C247.654 72.6521 248.11 72.0913 248.717 71.624C249.324 71.1334 250.095 70.7595 251.03 70.5025C251.965 70.2455 253.063 70.117 254.324 70.117C255.282 70.117 256.217 70.1988 257.128 70.3624C258.039 70.5259 258.822 70.7479 259.476 71.0282L258.775 73.2011C258.331 73.0376 257.841 72.8974 257.303 72.7806C256.789 72.6404 256.252 72.5352 255.691 72.4651C255.154 72.3717 254.605 72.325 254.044 72.325C252.993 72.325 252.14 72.4535 251.486 72.7105C250.831 72.9675 250.352 73.318 250.049 73.7619C249.745 74.1824 249.593 74.6731 249.593 75.2338C249.593 75.818 249.745 76.3086 250.049 76.7058C250.376 77.0796 250.796 77.4184 251.31 77.7222C251.848 78.0025 252.42 78.2712 253.028 78.5282C253.659 78.7619 254.278 79.0306 254.885 79.3343C255.516 79.6147 256.088 79.9535 256.602 80.3507C257.14 80.7479 257.56 81.2385 257.864 81.8226C258.191 82.4067 258.355 83.1194 258.355 83.9605C258.355 84.7081 258.25 85.3857 258.039 85.9932C257.829 86.5773 257.514 87.0913 257.093 87.5352C256.673 87.9792 256.159 88.3647 255.551 88.6918C254.944 88.9955 254.243 89.2175 253.448 89.3577C252.654 89.5212 251.766 89.603 250.785 89.603C249.5 89.603 248.331 89.4979 247.28 89.2876C246.252 89.0773 245.329 88.8086 244.511 88.4815ZM258.084 88.4815L258.82 86.2736C259.31 86.4605 259.871 86.6474 260.502 86.8343C261.133 86.9979 261.799 87.1381 262.5 87.2549C263.201 87.3483 263.89 87.3951 264.567 87.3951C265.666 87.3951 266.553 87.2666 267.231 87.0095C267.932 86.7525 268.446 86.4021 268.773 85.9581C269.1 85.4909 269.264 84.9652 269.264 84.381C269.264 83.7736 269.1 83.2712 268.773 82.874C268.469 82.4768 268.049 82.1264 267.511 81.8226C266.997 81.5189 266.425 81.2502 265.794 81.0166C265.187 80.7595 264.567 80.4909 263.937 80.2105C263.329 79.9067 262.757 79.5563 262.219 79.1591C261.705 78.7619 261.285 78.2712 260.958 77.6871C260.654 77.0796 260.502 76.3553 260.502 75.5142C260.502 74.6965 260.642 73.9605 260.923 73.3063C261.226 72.6521 261.682 72.0913 262.289 71.624C262.897 71.1334 263.668 70.7595 264.602 70.5025C265.537 70.2455 266.635 70.117 267.897 70.117C268.855 70.117 269.789 70.1988 270.701 70.3624C271.612 70.5259 272.395 70.7479 273.049 71.0282L272.348 73.2011C271.904 73.0376 271.413 72.8974 270.876 72.7806C270.362 72.6404 269.824 72.5352 269.264 72.4651C268.726 72.3717 268.177 72.325 267.617 72.325C266.565 72.325 265.712 72.4535 265.058 72.7105C264.404 72.9675 263.925 73.318 263.621 73.7619C263.317 74.1824 263.166 74.6731 263.166 75.2338C263.166 75.818 263.317 76.3086 263.621 76.7058C263.948 77.0796 264.369 77.4184 264.883 77.7222C265.42 78.0025 265.993 78.2712 266.6 78.5282C267.231 78.7619 267.85 79.0306 268.458 79.3343C269.088 79.6147 269.661 79.9535 270.175 80.3507C270.712 80.7479 271.133 81.2385 271.437 81.8226C271.764 82.4067 271.927 83.1194 271.927 83.9605C271.927 84.7081 271.822 85.3857 271.612 85.9932C271.402 86.5773 271.086 87.0913 270.666 87.5352C270.245 87.9792 269.731 88.3647 269.124 88.6918C268.516 88.9955 267.815 89.2175 267.021 89.3577C266.226 89.5212 265.338 89.603 264.357 89.603C263.072 89.603 261.904 89.4979 260.852 89.2876C259.824 89.0773 258.902 88.8086 258.084 88.4815ZM279.958 89.603C278.486 89.603 277.259 89.3694 276.278 88.9021C275.296 88.4114 274.549 87.6754 274.035 86.6941C273.521 85.7128 273.264 84.4745 273.264 82.9792C273.264 81.881 273.334 80.818 273.474 79.7899C273.638 78.7385 273.871 77.7338 274.175 76.7759C274.479 75.7946 274.864 74.9067 275.331 74.1123C275.799 73.2946 276.348 72.582 276.979 71.9745C277.61 71.367 278.322 70.8997 279.117 70.5726C279.934 70.2455 280.822 70.082 281.78 70.082C283.182 70.082 284.374 70.3273 285.355 70.818C286.336 71.3086 287.084 72.0563 287.598 73.0609C288.135 74.0423 288.404 75.2806 288.404 76.7759C288.404 77.9208 288.322 79.0306 288.159 80.1053C288.018 81.1567 287.796 82.1614 287.493 83.1194C287.189 84.0773 286.803 84.9535 286.336 85.7479C285.892 86.5423 285.355 87.2315 284.724 87.8156C284.117 88.3764 283.416 88.8203 282.621 89.1474C281.827 89.4511 280.939 89.603 279.958 89.603ZM279.852 87.3951C280.507 87.3951 281.102 87.2549 281.64 86.9745C282.201 86.6708 282.691 86.2736 283.112 85.7829C283.532 85.2689 283.906 84.6731 284.233 83.9955C284.56 83.318 284.829 82.582 285.039 81.7876C285.25 80.9698 285.402 80.1287 285.495 79.2642C285.612 78.3997 285.67 77.5236 285.67 76.6357C285.67 75.1637 285.32 74.0773 284.619 73.3764C283.941 72.6521 283.007 72.2899 281.815 72.2899C281.161 72.2899 280.565 72.4418 280.028 72.7455C279.49 73.0493 279 73.4698 278.556 74.0072C278.112 74.5212 277.726 75.1287 277.399 75.8296C277.095 76.5072 276.827 77.2432 276.593 78.0376C276.383 78.832 276.219 79.6497 276.103 80.4909C276.009 81.3086 275.962 82.1264 275.962 82.9441C275.962 84.4862 276.289 85.6194 276.944 86.3437C277.621 87.0446 278.591 87.3951 279.852 87.3951ZM212.726 138.762C209.826 138.762 207.37 138.362 205.357 137.563C203.374 136.764 201.865 135.536 200.829 133.879C199.823 132.221 199.32 130.105 199.32 127.531C199.32 124.364 199.69 121.508 200.43 118.963C201.17 116.418 202.235 114.242 203.626 112.437C205.046 110.632 206.748 109.241 208.731 108.264C210.743 107.288 213.007 106.799 215.523 106.799C216.618 106.799 217.684 106.844 218.719 106.932C219.754 107.021 220.775 107.184 221.782 107.421C222.817 107.628 223.81 107.939 224.757 108.353L222.981 113.813C222.301 113.606 221.574 113.428 220.806 113.281C220.037 113.133 219.238 113.014 218.409 112.925C217.61 112.807 216.796 112.748 215.967 112.748C214.458 112.748 213.126 113.088 211.972 113.769C210.817 114.449 209.841 115.426 209.042 116.699C208.243 117.942 207.621 119.407 207.177 121.094C206.763 122.781 206.556 124.601 206.556 126.554C206.556 128.122 206.852 129.365 207.444 130.283C208.035 131.171 208.879 131.822 209.974 132.236C211.099 132.621 212.46 132.813 214.058 132.813C215.212 132.813 216.322 132.739 217.388 132.591C218.453 132.414 219.504 132.221 220.539 132.014L220.983 137.696C219.652 138.052 218.32 138.318 216.988 138.496C215.656 138.673 214.236 138.762 212.726 138.762ZM232.257 138.762C230.037 138.762 228.173 138.421 226.663 137.741C225.184 137.031 224.058 135.995 223.289 134.633C222.521 133.242 222.135 131.496 222.135 129.395C222.135 128.004 222.224 126.657 222.402 125.355C222.61 124.053 222.904 122.825 223.289 121.671C223.703 120.487 224.222 119.421 224.843 118.474C225.495 117.498 226.25 116.654 227.107 115.944C227.995 115.204 229.002 114.642 230.126 114.257C231.25 113.872 232.509 113.68 233.899 113.68C236 113.68 237.775 114.035 239.226 114.746C240.705 115.426 241.831 116.462 242.6 117.853C243.399 119.244 243.799 120.99 243.799 123.091C243.799 124.512 243.696 125.888 243.488 127.22C243.28 128.552 242.969 129.795 242.556 130.949C242.17 132.103 241.668 133.168 241.046 134.145C240.425 135.092 239.684 135.921 238.827 136.631C237.997 137.312 237.021 137.844 235.897 138.229C234.801 138.584 233.588 138.762 232.257 138.762ZM232.168 133.479C232.759 133.45 233.292 133.272 233.766 132.946C234.24 132.621 234.654 132.177 235.009 131.615C235.364 131.052 235.661 130.401 235.897 129.661C236.163 128.921 236.371 128.137 236.518 127.309C236.696 126.48 236.815 125.636 236.874 124.778C236.932 123.92 236.962 123.106 236.962 122.337C236.932 121.153 236.621 120.295 236.03 119.762C235.439 119.229 234.668 118.963 233.722 118.963C233.131 118.963 232.598 119.14 232.124 119.496C231.649 119.851 231.222 120.324 230.836 120.916C230.481 121.478 230.17 122.129 229.904 122.869C229.668 123.609 229.46 124.393 229.282 125.222C229.135 126.021 229.03 126.82 228.972 127.619C228.913 128.418 228.883 129.188 228.883 129.928C228.913 131.2 229.208 132.118 229.771 132.68C230.362 133.213 231.161 133.479 232.168 133.479ZM247.719 114.168H253.934L253.624 116.255C254.453 115.692 255.282 115.234 256.11 114.879C256.969 114.494 257.827 114.213 258.684 114.035C259.544 113.828 260.416 113.724 261.303 113.724C263.14 113.724 264.544 114.183 265.521 115.101C266.497 116.018 266.986 117.276 266.986 118.874C266.986 119.14 266.927 119.629 266.808 120.339C266.719 121.02 266.602 121.819 266.453 122.736C266.306 123.654 266.142 124.615 265.965 125.622C265.817 126.598 265.67 127.545 265.521 128.463C265.374 129.351 265.24 130.12 265.121 130.771C265.032 131.393 264.988 131.792 264.988 131.97C264.988 132.266 265.063 132.503 265.21 132.68C265.388 132.828 265.626 132.902 265.92 132.902C266.07 132.902 266.217 132.902 266.364 132.902C266.542 132.872 266.691 132.828 266.808 132.769L266.453 138.052C265.981 138.259 265.388 138.421 264.677 138.54C263.997 138.688 263.345 138.762 262.724 138.762C261.778 138.762 260.934 138.599 260.194 138.274C259.483 137.918 258.923 137.445 258.507 136.853C258.124 136.232 257.93 135.521 257.93 134.722C257.93 134.367 257.974 133.849 258.063 133.168C258.152 132.458 258.257 131.659 258.374 130.771C258.523 129.854 258.684 128.907 258.862 127.93C259.039 126.953 259.189 126.036 259.306 125.178C259.455 124.29 259.572 123.521 259.661 122.869C259.75 122.218 259.794 121.774 259.794 121.538C259.794 120.916 259.617 120.428 259.261 120.073C258.937 119.717 258.39 119.54 257.619 119.54C257.205 119.54 256.761 119.599 256.287 119.717C255.815 119.806 255.341 119.954 254.867 120.161C254.423 120.339 253.979 120.546 253.535 120.783L250.694 138.318H243.902L247.719 114.168ZM266.187 137.253L267.829 132.103C268.481 132.369 269.236 132.621 270.093 132.858C270.981 133.065 271.885 133.242 272.801 133.39C273.719 133.509 274.563 133.568 275.331 133.568C276.219 133.568 276.93 133.479 277.462 133.302C277.995 133.124 278.381 132.887 278.617 132.591C278.855 132.266 278.972 131.896 278.972 131.482C278.972 131.008 278.78 130.608 278.395 130.283C278.039 129.957 277.551 129.676 276.93 129.439C276.338 129.203 275.687 128.966 274.976 128.729C274.266 128.492 273.542 128.211 272.801 127.886C272.091 127.531 271.425 127.101 270.803 126.598C270.212 126.095 269.724 125.459 269.338 124.689C268.983 123.92 268.806 122.973 268.806 121.848C268.806 120.546 269.028 119.407 269.472 118.43C269.946 117.424 270.626 116.58 271.514 115.9C272.432 115.189 273.556 114.657 274.888 114.302C276.219 113.917 277.745 113.724 279.46 113.724C280.911 113.724 282.257 113.843 283.5 114.08C284.743 114.316 285.838 114.612 286.785 114.967L285.187 120.117C284.565 119.91 283.885 119.732 283.145 119.584C282.406 119.407 281.666 119.274 280.925 119.185C280.187 119.096 279.49 119.052 278.838 119.052C278.011 119.052 277.329 119.14 276.796 119.318C276.294 119.496 275.925 119.732 275.687 120.028C275.481 120.324 275.376 120.679 275.376 121.094C275.376 121.538 275.553 121.907 275.909 122.203C276.294 122.47 276.782 122.707 277.374 122.914C277.995 123.121 278.661 123.343 279.371 123.58C280.112 123.816 280.836 124.098 281.546 124.423C282.287 124.749 282.953 125.163 283.544 125.666C284.166 126.169 284.654 126.806 285.009 127.575C285.364 128.315 285.542 129.247 285.542 130.372C285.542 131.615 285.364 132.71 285.009 133.657C284.684 134.574 284.196 135.358 283.544 136.01C282.923 136.661 282.168 137.193 281.28 137.608C280.423 137.992 279.46 138.274 278.395 138.451C277.329 138.658 276.191 138.762 274.976 138.762C273.173 138.762 271.558 138.614 270.138 138.318C268.747 138.052 267.43 137.696 266.187 137.253ZM292.49 138.762C290.567 138.762 289.103 138.303 288.095 137.386C287.119 136.468 286.631 135.24 286.631 133.701C286.631 133.316 286.661 132.843 286.719 132.281C286.78 131.718 286.883 130.993 287.03 130.105C287.18 129.188 287.357 128.034 287.563 126.643C287.801 125.222 288.081 123.491 288.406 121.449C288.761 119.407 289.161 116.98 289.605 114.168H296.353C295.997 116.358 295.687 118.267 295.42 119.895C295.184 121.523 294.962 122.914 294.754 124.068C294.577 125.222 294.416 126.228 294.266 127.087C294.149 127.915 294.044 128.64 293.955 129.262C293.867 129.883 293.794 130.46 293.733 130.993C293.733 131.615 293.911 132.103 294.266 132.458C294.621 132.813 295.14 132.991 295.82 132.991C296.294 132.991 296.752 132.946 297.196 132.858C297.64 132.769 298.084 132.636 298.528 132.458C298.972 132.251 299.416 132.029 299.859 131.792L302.656 114.168H309.404C308.871 117.513 308.427 120.265 308.072 122.425C307.717 124.586 307.437 126.288 307.229 127.531C307.051 128.774 306.918 129.691 306.829 130.283C306.74 130.875 306.682 131.26 306.652 131.437C306.652 131.615 306.652 131.733 306.652 131.792C306.652 132.207 306.726 132.517 306.874 132.724C307.051 132.902 307.273 132.991 307.539 132.991C307.628 132.991 307.747 132.976 307.895 132.946C308.072 132.917 308.266 132.872 308.472 132.813L308.117 137.563C307.584 137.948 306.948 138.244 306.208 138.451C305.497 138.658 304.803 138.762 304.121 138.762C303.086 138.762 302.184 138.51 301.413 138.007C300.675 137.475 300.17 136.794 299.904 135.965C299.077 136.587 298.247 137.105 297.418 137.519C296.619 137.933 295.806 138.244 294.976 138.451C294.149 138.658 293.32 138.762 292.49 138.762ZM314.203 105.467H320.995L317.088 130.017C317.058 130.253 317.03 130.49 317 130.727C316.969 130.934 316.955 131.141 316.955 131.348C316.955 131.585 317 131.807 317.088 132.014C317.177 132.221 317.324 132.384 317.532 132.503C317.74 132.591 317.99 132.636 318.287 132.636C318.612 132.636 318.923 132.606 319.219 132.547C319.544 132.488 319.916 132.414 320.329 132.325L320.018 137.741C319.25 138.037 318.39 138.274 317.444 138.451C316.525 138.658 315.61 138.762 314.691 138.762C313.035 138.762 311.806 138.377 311.007 137.608C310.208 136.809 309.808 135.64 309.808 134.101C309.808 133.746 309.822 133.376 309.853 132.991C309.911 132.577 309.972 132.177 310.03 131.792L314.203 105.467ZM334.383 132.236L334.028 137.608C332.962 137.992 331.913 138.274 330.876 138.451C329.871 138.658 328.82 138.762 327.724 138.762C326.659 138.762 325.698 138.599 324.838 138.274C323.981 137.948 323.301 137.4 322.796 136.631C322.294 135.862 322.042 134.796 322.042 133.435C322.042 132.991 322.072 132.458 322.131 131.837C322.191 131.185 322.264 130.564 322.352 129.972L324.039 119.407H320.932L321.775 114.612L325.016 114.168L326.659 109.019H332.563L331.719 114.168H337.357L336.469 119.451H330.831L329.233 129.484C329.175 129.721 329.131 129.942 329.1 130.15C329.1 130.327 329.1 130.52 329.1 130.727C329.1 131.378 329.264 131.881 329.588 132.236C329.944 132.591 330.521 132.769 331.32 132.769C331.764 132.769 332.224 132.725 332.696 132.636C333.201 132.517 333.761 132.384 334.383 132.236ZM346.037 138.762C343.817 138.762 341.953 138.421 340.444 137.741C338.962 137.031 337.838 135.995 337.07 134.633C336.299 133.242 335.916 131.496 335.916 129.395C335.916 128.004 336.004 126.657 336.182 125.355C336.388 124.053 336.684 122.825 337.07 121.671C337.483 120.487 338.002 119.421 338.624 118.474C339.273 117.498 340.028 116.654 340.888 115.944C341.775 115.204 342.78 114.642 343.906 114.257C345.03 113.872 346.287 113.68 347.68 113.68C349.78 113.68 351.556 114.035 353.007 114.746C354.486 115.426 355.61 116.462 356.381 117.853C357.18 119.244 357.579 120.99 357.579 123.091C357.579 124.512 357.474 125.888 357.268 127.22C357.06 128.552 356.75 129.795 356.336 130.949C355.951 132.103 355.448 133.168 354.827 134.145C354.205 135.092 353.465 135.921 352.607 136.631C351.778 137.312 350.801 137.844 349.677 138.229C348.581 138.584 347.369 138.762 346.037 138.762ZM345.948 133.479C346.539 133.45 347.072 133.272 347.546 132.946C348.018 132.621 348.434 132.177 348.789 131.615C349.145 131.052 349.439 130.401 349.677 129.661C349.944 128.921 350.149 128.137 350.299 127.309C350.476 126.48 350.593 125.636 350.654 124.778C350.712 123.92 350.743 123.106 350.743 122.337C350.712 121.153 350.402 120.295 349.81 119.762C349.217 119.229 348.448 118.963 347.502 118.963C346.909 118.963 346.376 119.14 345.904 119.496C345.43 119.851 345 120.324 344.617 120.916C344.261 121.478 343.951 122.129 343.684 122.869C343.446 123.609 343.24 124.393 343.063 125.222C342.913 126.021 342.81 126.82 342.752 127.619C342.691 128.418 342.663 129.188 342.663 129.928C342.691 131.2 342.988 132.118 343.551 132.68C344.142 133.213 344.941 133.479 345.948 133.479ZM367.626 114.168L367.182 116.965C368.07 116.196 368.885 115.574 369.624 115.101C370.364 114.627 371.06 114.287 371.71 114.08C372.362 113.843 373.042 113.724 373.752 113.724C374.257 113.724 374.745 113.769 375.217 113.858C375.722 113.917 376.194 114.035 376.638 114.213L374.64 120.783C374.138 120.635 373.635 120.531 373.131 120.472C372.659 120.413 372.215 120.383 371.799 120.383C371.088 120.383 370.35 120.502 369.579 120.739C368.841 120.975 367.997 121.419 367.049 122.07L364.43 138.318H357.682L361.544 114.168H367.626ZM379.402 125.045C379.993 125.104 380.645 125.104 381.355 125.045C382.095 124.985 382.806 124.911 383.486 124.823C385.231 124.527 386.593 124.038 387.57 123.358C388.546 122.677 389.035 121.819 389.035 120.783C389.035 120.132 388.857 119.658 388.502 119.362C388.147 119.037 387.556 118.874 386.726 118.874C385.572 118.874 384.521 119.259 383.574 120.028C382.656 120.798 381.932 121.893 381.399 123.313C380.897 124.704 380.631 126.362 380.6 128.285C380.6 129.469 380.764 130.416 381.088 131.126C381.413 131.837 381.932 132.34 382.642 132.636C383.383 132.932 384.329 133.08 385.483 133.08C386.046 133.08 386.682 133.035 387.392 132.946C388.102 132.858 388.871 132.724 389.701 132.547C390.558 132.34 391.418 132.073 392.275 131.748L393.119 137.208C391.757 137.741 390.308 138.126 388.768 138.362C387.229 138.629 385.719 138.762 384.24 138.762C382.021 138.762 380.142 138.392 378.603 137.652C377.063 136.883 375.881 135.773 375.051 134.323C374.252 132.872 373.852 131.141 373.852 129.129C373.852 126.939 374.149 124.911 374.74 123.047C375.331 121.182 376.205 119.555 377.36 118.164C378.544 116.773 379.993 115.692 381.71 114.923C383.455 114.124 385.469 113.724 387.747 113.724C389.376 113.724 390.78 113.976 391.965 114.479C393.177 114.982 394.11 115.692 394.761 116.61C395.413 117.498 395.738 118.578 395.738 119.851C395.738 122.129 394.82 124.068 392.986 125.666C391.152 127.235 388.605 128.271 385.35 128.774C384.166 128.951 383.042 129.055 381.976 129.084C380.941 129.114 379.948 129.099 379.002 129.04L379.402 125.045ZM393.864 137.253L395.507 132.103C396.159 132.369 396.913 132.621 397.771 132.858C398.659 133.065 399.563 133.242 400.479 133.39C401.397 133.509 402.24 133.568 403.009 133.568C403.897 133.568 404.607 133.479 405.14 133.302C405.673 133.124 406.058 132.887 406.294 132.591C406.532 132.266 406.649 131.896 406.649 131.482C406.649 131.008 406.458 130.608 406.072 130.283C405.717 129.957 405.229 129.676 404.607 129.439C404.016 129.203 403.364 128.966 402.654 128.729C401.944 128.492 401.219 128.211 400.479 127.886C399.768 127.531 399.103 127.101 398.481 126.598C397.89 126.095 397.402 125.459 397.016 124.689C396.661 123.92 396.483 122.973 396.483 121.848C396.483 120.546 396.705 119.407 397.149 118.43C397.624 117.424 398.303 116.58 399.191 115.9C400.11 115.189 401.233 114.657 402.565 114.302C403.897 113.917 405.423 113.724 407.138 113.724C408.588 113.724 409.934 113.843 411.177 114.08C412.42 114.316 413.516 114.612 414.462 114.967L412.864 120.117C412.243 119.91 411.563 119.732 410.822 119.584C410.084 119.407 409.343 119.274 408.603 119.185C407.864 119.096 407.168 119.052 406.516 119.052C405.689 119.052 405.007 119.14 404.474 119.318C403.972 119.496 403.602 119.732 403.364 120.028C403.159 120.324 403.053 120.679 403.053 121.094C403.053 121.538 403.231 121.907 403.586 122.203C403.972 122.47 404.46 122.707 405.051 122.914C405.673 123.121 406.338 123.343 407.049 123.58C407.789 123.816 408.514 124.098 409.224 124.423C409.965 124.749 410.631 125.163 411.222 125.666C411.843 126.169 412.331 126.806 412.687 127.575C413.042 128.315 413.219 129.247 413.219 130.372C413.219 131.615 413.042 132.71 412.687 133.657C412.362 134.574 411.874 135.358 411.222 136.01C410.6 136.661 409.845 137.193 408.958 137.608C408.1 137.992 407.138 138.274 406.072 138.451C405.007 138.658 403.869 138.762 402.654 138.762C400.85 138.762 399.236 138.614 397.815 138.318C396.425 138.052 395.107 137.696 393.864 137.253ZM217.032 178.482C216.352 178.482 215.715 178.393 215.124 178.215C214.532 178.038 214.014 177.771 213.57 177.416C213.126 177.031 212.756 176.602 212.46 176.129C211.898 176.573 211.247 176.972 210.507 177.327C209.796 177.682 209.042 177.964 208.243 178.171C207.444 178.378 206.63 178.482 205.801 178.482C204.351 178.482 203.078 178.185 201.983 177.594C200.918 176.972 200.074 176.025 199.453 174.753C198.861 173.48 198.565 171.867 198.565 169.914C198.565 167.28 198.876 164.957 199.497 162.944C200.119 160.902 200.992 159.185 202.117 157.795C203.241 156.374 204.528 155.294 205.979 154.554C207.458 153.814 209.056 153.444 210.773 153.444C211.631 153.444 212.416 153.503 213.126 153.622C213.866 153.74 214.532 153.903 215.124 154.11L216.544 145.187H223.336C223.247 145.809 223.114 146.667 222.937 147.762C222.789 148.827 222.595 150.041 222.36 151.402C222.152 152.734 221.93 154.154 221.694 155.664C221.458 157.143 221.219 158.623 220.983 160.103C220.775 161.583 220.553 163.003 220.317 164.365C220.11 165.726 219.918 166.939 219.74 168.005C219.593 169.07 219.474 169.928 219.385 170.58C219.296 171.231 219.252 171.601 219.252 171.689C219.252 171.985 219.31 172.222 219.43 172.4C219.577 172.548 219.815 172.622 220.14 172.622C220.287 172.622 220.437 172.622 220.584 172.622C220.731 172.592 220.881 172.548 221.028 172.489L220.673 177.727C220.198 177.964 219.621 178.141 218.941 178.26C218.261 178.407 217.624 178.482 217.032 178.482ZM208.553 172.622C209.175 172.622 209.826 172.533 210.507 172.355C211.187 172.178 211.794 171.941 212.327 171.645L214.324 159.26C213.91 159.112 213.466 159.008 212.993 158.949C212.549 158.89 212.06 158.86 211.528 158.86C210.67 158.86 209.856 159.141 209.086 159.703C208.346 160.266 207.71 161.05 207.177 162.056C206.645 163.033 206.215 164.157 205.89 165.43C205.594 166.673 205.446 167.975 205.446 169.337C205.446 170.017 205.579 170.609 205.845 171.112C206.112 171.615 206.482 172 206.955 172.267C207.429 172.503 207.962 172.622 208.553 172.622ZM227.768 164.764C228.359 164.823 229.011 164.823 229.722 164.764C230.46 164.705 231.17 164.631 231.852 164.542C233.598 164.246 234.96 163.758 235.937 163.077C236.913 162.397 237.402 161.538 237.402 160.503C237.402 159.851 237.224 159.378 236.869 159.082C236.514 158.757 235.92 158.594 235.093 158.594C233.939 158.594 232.888 158.978 231.941 159.748C231.023 160.517 230.299 161.612 229.766 163.033C229.261 164.424 228.995 166.081 228.967 168.005C228.967 169.189 229.128 170.136 229.455 170.846C229.78 171.556 230.299 172.059 231.009 172.355C231.747 172.651 232.696 172.799 233.85 172.799C234.411 172.799 235.049 172.755 235.759 172.666C236.469 172.577 237.238 172.444 238.067 172.267C238.925 172.059 239.782 171.793 240.642 171.467L241.486 176.928C240.124 177.46 238.673 177.845 237.135 178.082C235.595 178.348 234.086 178.482 232.607 178.482C230.388 178.482 228.507 178.112 226.969 177.372C225.43 176.602 224.245 175.492 223.418 174.042C222.619 172.592 222.219 170.861 222.219 168.848C222.219 166.658 222.514 164.631 223.107 162.767C223.698 160.902 224.572 159.274 225.726 157.883C226.909 156.492 228.359 155.412 230.077 154.643C231.822 153.844 233.834 153.444 236.114 153.444C237.74 153.444 239.147 153.696 240.331 154.199C241.544 154.702 242.476 155.412 243.128 156.33C243.778 157.217 244.105 158.298 244.105 159.57C244.105 161.849 243.187 163.788 241.352 165.386C239.516 166.954 236.972 167.99 233.717 168.493C232.532 168.671 231.409 168.774 230.343 168.804C229.306 168.834 228.315 168.819 227.369 168.76L227.768 164.764ZM268.208 178.038H260.084L256.088 146.963L263.68 146.918L265.455 171.601C266.404 169.588 267.292 167.724 268.119 166.007C268.948 164.291 269.689 162.707 270.338 161.257C271.021 159.807 271.626 158.46 272.159 157.217C272.691 155.945 273.135 154.776 273.49 153.71C273.845 152.645 274.112 151.639 274.289 150.692C274.467 149.715 274.556 148.783 274.556 147.895C274.556 147.717 274.556 147.57 274.556 147.451C274.556 147.333 274.542 147.17 274.511 146.963H281.925C281.925 147.14 281.925 147.333 281.925 147.54C281.925 147.717 281.911 147.91 281.881 148.117C281.764 149.153 281.57 150.203 281.303 151.269C281.037 152.305 280.682 153.444 280.238 154.687C279.824 155.9 279.278 157.247 278.595 158.727C277.916 160.207 277.086 161.879 276.11 163.743C275.163 165.608 274.039 167.709 272.736 170.047C271.434 172.385 269.925 175.049 268.208 178.038ZM283.726 164.764C284.317 164.823 284.969 164.823 285.68 164.764C286.418 164.705 287.128 164.631 287.81 164.542C289.556 164.246 290.918 163.758 291.895 163.077C292.871 162.397 293.359 161.538 293.359 160.503C293.359 159.851 293.182 159.378 292.827 159.082C292.472 158.757 291.878 158.594 291.051 158.594C289.897 158.594 288.846 158.978 287.899 159.748C286.981 160.517 286.257 161.612 285.724 163.033C285.219 164.424 284.953 166.081 284.925 168.005C284.925 169.189 285.086 170.136 285.413 170.846C285.738 171.556 286.257 172.059 286.967 172.355C287.705 172.651 288.654 172.799 289.808 172.799C290.369 172.799 291.007 172.755 291.717 172.666C292.427 172.577 293.196 172.444 294.025 172.267C294.883 172.059 295.74 171.793 296.6 171.467L297.444 176.928C296.081 177.46 294.631 177.845 293.093 178.082C291.553 178.348 290.044 178.482 288.565 178.482C286.345 178.482 284.465 178.112 282.927 177.372C281.388 176.602 280.203 175.492 279.376 174.042C278.577 172.592 278.177 170.861 278.177 168.848C278.177 166.658 278.472 164.631 279.065 162.767C279.656 160.902 280.53 159.274 281.684 157.883C282.867 156.492 284.317 155.412 286.035 154.643C287.78 153.844 289.792 153.444 292.072 153.444C293.698 153.444 295.105 153.696 296.289 154.199C297.502 154.702 298.434 155.412 299.086 156.33C299.736 157.217 300.063 158.298 300.063 159.57C300.063 161.849 299.145 163.788 297.31 165.386C295.474 166.954 292.93 167.99 289.675 168.493C288.49 168.671 287.367 168.774 286.301 168.804C285.264 168.834 284.273 168.819 283.327 168.76L283.726 164.764ZM302.986 153.888H309.201L308.89 155.974C309.717 155.412 310.546 154.953 311.376 154.598C312.233 154.214 313.091 153.932 313.951 153.755C314.808 153.548 315.682 153.444 316.57 153.444C318.404 153.444 319.81 153.903 320.787 154.82C321.764 155.738 322.252 156.996 322.252 158.594C322.252 158.86 322.191 159.348 322.074 160.059C321.986 160.739 321.867 161.538 321.719 162.456C321.57 163.373 321.409 164.335 321.231 165.341C321.081 166.318 320.934 167.265 320.787 168.182C320.638 169.07 320.504 169.84 320.388 170.491C320.299 171.112 320.254 171.512 320.254 171.689C320.254 171.985 320.327 172.222 320.476 172.4C320.654 172.548 320.89 172.622 321.187 172.622C321.334 172.622 321.481 172.622 321.631 172.622C321.808 172.592 321.955 172.548 322.074 172.489L321.719 177.771C321.245 177.978 320.654 178.141 319.944 178.26C319.261 178.407 318.612 178.482 317.99 178.482C317.042 178.482 316.198 178.319 315.46 177.993C314.75 177.638 314.187 177.164 313.773 176.573C313.388 175.951 313.196 175.241 313.196 174.442C313.196 174.087 313.24 173.569 313.329 172.888C313.418 172.178 313.521 171.379 313.64 170.491C313.787 169.573 313.951 168.626 314.128 167.65C314.306 166.673 314.453 165.756 314.572 164.897C314.719 164.01 314.838 163.24 314.927 162.589C315.016 161.938 315.06 161.494 315.06 161.257C315.06 160.636 314.883 160.147 314.528 159.792C314.201 159.437 313.654 159.26 312.885 159.26C312.469 159.26 312.025 159.319 311.553 159.437C311.079 159.526 310.605 159.674 310.133 159.881C309.689 160.059 309.245 160.266 308.801 160.503L305.96 178.038H299.168L302.986 153.888ZM341.694 178.482C341.014 178.482 340.376 178.393 339.785 178.215C339.194 178.038 338.675 177.771 338.231 177.416C337.787 177.031 337.418 176.602 337.121 176.129C336.558 176.573 335.909 176.972 335.168 177.327C334.458 177.682 333.703 177.964 332.904 178.171C332.105 178.378 331.292 178.482 330.462 178.482C329.011 178.482 327.74 178.185 326.645 177.594C325.579 176.972 324.736 176.025 324.114 174.753C323.523 173.48 323.226 171.867 323.226 169.914C323.226 167.28 323.537 164.957 324.159 162.944C324.78 160.902 325.654 159.185 326.778 157.795C327.902 156.374 329.189 155.294 330.64 154.554C332.119 153.814 333.717 153.444 335.434 153.444C336.292 153.444 337.077 153.503 337.787 153.622C338.528 153.74 339.194 153.903 339.785 154.11L341.205 145.187H347.997C347.909 145.809 347.775 146.667 347.598 147.762C347.451 148.827 347.257 150.041 347.021 151.402C346.813 152.734 346.591 154.154 346.355 155.664C346.119 157.143 345.881 158.623 345.645 160.103C345.437 161.583 345.215 163.003 344.979 164.365C344.771 165.726 344.579 166.939 344.402 168.005C344.254 169.07 344.135 169.928 344.046 170.58C343.958 171.231 343.913 171.601 343.913 171.689C343.913 171.985 343.972 172.222 344.091 172.4C344.238 172.548 344.476 172.622 344.801 172.622C344.948 172.622 345.098 172.622 345.245 172.622C345.392 172.592 345.542 172.548 345.689 172.489L345.334 177.727C344.86 177.964 344.282 178.141 343.602 178.26C342.923 178.407 342.285 178.482 341.694 178.482ZM333.215 172.622C333.836 172.622 334.488 172.533 335.168 172.355C335.848 172.178 336.455 171.941 336.988 171.645L338.986 159.26C338.572 159.112 338.128 159.008 337.654 158.949C337.21 158.89 336.722 158.86 336.189 158.86C335.331 158.86 334.516 159.141 333.747 159.703C333.007 160.266 332.371 161.05 331.838 162.056C331.306 163.033 330.876 164.157 330.551 165.43C330.254 166.673 330.107 167.975 330.107 169.337C330.107 170.017 330.24 170.609 330.507 171.112C330.773 171.615 331.142 172 331.617 172.267C332.091 172.503 332.624 172.622 333.215 172.622ZM365.303 178.482C364.652 178.482 364.03 178.393 363.439 178.215C362.876 178.038 362.357 177.771 361.885 177.416C361.441 177.031 361.07 176.587 360.775 176.084C360.154 176.587 359.472 177.017 358.733 177.372C358.023 177.727 357.268 177.993 356.469 178.171C355.698 178.378 354.885 178.482 354.028 178.482C352.577 178.482 351.32 178.171 350.254 177.549C349.189 176.898 348.345 175.936 347.724 174.664C347.131 173.391 346.836 171.808 346.836 169.914C346.836 166.333 347.383 163.329 348.479 160.902C349.602 158.446 351.187 156.596 353.229 155.353C355.299 154.08 357.757 153.444 360.598 153.444C361.425 153.444 362.285 153.489 363.173 153.577C364.06 153.666 364.918 153.785 365.747 153.932C366.605 154.08 367.404 154.243 368.145 154.421C368.913 154.598 369.593 154.791 370.187 154.998C369.743 157.75 369.357 160.088 369.032 162.012C368.736 163.906 368.483 165.46 368.278 166.673C368.1 167.886 367.951 168.834 367.834 169.514C367.715 170.195 367.626 170.698 367.567 171.024C367.537 171.32 367.523 171.497 367.523 171.556C367.523 171.911 367.595 172.178 367.745 172.355C367.892 172.533 368.128 172.622 368.455 172.622C368.572 172.622 368.705 172.622 368.855 172.622C369.032 172.592 369.194 172.548 369.343 172.489L368.988 177.727C368.544 177.934 367.981 178.112 367.301 178.26C366.649 178.407 365.983 178.482 365.303 178.482ZM360.642 171.645L362.596 159.304C362.21 159.126 361.78 159.008 361.308 158.949C360.864 158.89 360.39 158.86 359.888 158.86C358.761 158.86 357.726 159.304 356.78 160.192C355.862 161.05 355.138 162.234 354.605 163.743C354.072 165.253 353.806 166.939 353.806 168.804C353.806 170.077 354.086 171.038 354.649 171.689C355.24 172.341 355.995 172.666 356.913 172.666C357.327 172.666 357.757 172.622 358.201 172.533C358.645 172.444 359.072 172.326 359.488 172.178C359.932 172 360.315 171.823 360.642 171.645ZM368.799 176.972L370.441 171.823C371.093 172.089 371.848 172.341 372.705 172.577C373.593 172.785 374.497 172.962 375.413 173.11C376.331 173.228 377.175 173.288 377.944 173.288C378.831 173.288 379.542 173.199 380.074 173.021C380.607 172.844 380.993 172.607 381.229 172.311C381.467 171.985 381.584 171.615 381.584 171.201C381.584 170.728 381.392 170.328 381.007 170.003C380.652 169.677 380.163 169.396 379.542 169.159C378.951 168.922 378.299 168.685 377.588 168.449C376.878 168.212 376.154 167.931 375.413 167.605C374.703 167.25 374.037 166.821 373.416 166.318C372.824 165.815 372.336 165.178 371.951 164.409C371.596 163.64 371.418 162.692 371.418 161.568C371.418 160.266 371.64 159.126 372.084 158.15C372.558 157.143 373.238 156.3 374.126 155.619C375.044 154.909 376.168 154.376 377.5 154.021C378.831 153.636 380.357 153.444 382.072 153.444C383.523 153.444 384.869 153.563 386.112 153.799C387.355 154.036 388.451 154.332 389.397 154.687L387.799 159.837C387.177 159.629 386.497 159.452 385.757 159.304C385.018 159.126 384.278 158.993 383.537 158.904C382.799 158.816 382.102 158.771 381.451 158.771C380.624 158.771 379.941 158.86 379.409 159.038C378.906 159.215 378.537 159.452 378.299 159.748C378.093 160.044 377.988 160.399 377.988 160.813C377.988 161.257 378.166 161.627 378.521 161.923C378.906 162.189 379.395 162.426 379.986 162.633C380.607 162.841 381.273 163.063 381.983 163.299C382.724 163.536 383.448 163.817 384.159 164.143C384.899 164.468 385.565 164.883 386.156 165.386C386.778 165.889 387.266 166.525 387.621 167.295C387.976 168.035 388.154 168.967 388.154 170.091C388.154 171.334 387.976 172.429 387.621 173.376C387.296 174.294 386.808 175.078 386.156 175.729C385.535 176.38 384.78 176.913 383.892 177.327C383.035 177.712 382.072 177.993 381.007 178.171C379.941 178.378 378.803 178.482 377.588 178.482C375.785 178.482 374.17 178.334 372.75 178.038C371.36 177.771 370.042 177.416 368.799 176.972Z" fill="#363636"/>
</svg>
