<svg width="213" height="114" viewBox="0 0 213 114" fill="none" xmlns="http://www.w3.org/2000/svg">
<g filter="url(#filter0_d_983_1941)">
<rect x="6" y="4" width="200.798" height="102" rx="10" fill="#CC9DFF"/>
<path d="M44.389 56.1666C48.0402 56.1666 51.0001 53.244 51.0001 49.6388C51.0001 46.0336 48.0402 43.111 44.389 43.111C40.7378 43.111 37.7779 46.0336 37.7779 49.6388C37.7779 53.244 40.7378 56.1666 44.389 56.1666Z" fill="#363636"/>
<path d="M34.3612 50.2916H35.0279V49.6943C35.0319 47.9577 35.5219 46.2568 36.4423 44.7841C37.3628 43.3114 38.6769 42.1256 40.2362 41.361C39.7746 40.2979 39.0337 39.3797 38.0921 38.7038C37.1505 38.028 36.0435 37.6198 34.8886 37.5226C33.7337 37.4254 32.574 37.6428 31.5327 38.1518C30.4914 38.6607 29.6074 39.4422 28.9746 40.4132C28.3418 41.3842 27.9838 42.5085 27.9387 43.6666C27.8935 44.8247 28.1629 45.9735 28.7181 46.9908C29.2734 48.0082 30.0938 48.8561 31.0923 49.4446C32.0908 50.0331 33.23 50.3402 34.389 50.3332L34.3612 50.2916ZM53.7779 49.6388V50.236H54.4445C55.5881 50.2245 56.7074 49.905 57.6847 49.311C58.6619 48.717 59.461 47.8705 59.9977 46.8607C60.5344 45.8509 60.789 44.7151 60.7346 43.5727C60.6803 42.4304 60.3189 41.3239 59.6887 40.3696C59.0585 39.4154 58.1826 38.6486 57.1534 38.1502C56.1241 37.6517 54.9795 37.4399 53.84 37.5371C52.7006 37.6343 51.6084 38.0369 50.6784 38.7025C49.7485 39.3681 49.0152 40.2721 48.5557 41.3193C50.1154 42.081 51.4311 43.2637 52.3539 44.7339C53.2767 46.204 53.77 47.903 53.7779 49.6388ZM50.3473 56.8193C53.1088 57.3659 55.7789 58.3011 58.2779 59.5971C58.63 59.7905 58.9488 60.039 59.2223 60.3332H66.6112V55.5832C66.6126 55.401 66.5641 55.2219 66.4711 55.0653C66.3781 54.9086 66.244 54.7804 66.0834 54.6943C62.4836 52.8114 58.4792 51.8342 54.4168 51.8471H53.5001C53.0188 53.8037 51.9117 55.5495 50.3473 56.8193ZM28.4584 63.0277C28.4559 62.3282 28.6448 61.6413 29.0047 61.0415C29.3646 60.4417 29.8817 59.9518 30.5001 59.6249C32.9991 58.3289 35.6692 57.3937 38.4307 56.8471C36.8738 55.5881 35.7675 53.858 35.2779 51.9166H34.3612C30.2988 51.9036 26.2943 52.8809 22.6946 54.7638C22.534 54.8498 22.3999 54.9781 22.3069 55.1347C22.2139 55.2914 22.1654 55.4705 22.1668 55.6527V64.5277H28.4584V63.0277ZM49.1945 71.0416H57.4723V72.986H49.1945V71.0416Z" fill="#363636"/>
<path d="M64.9585 63.4999H55.4168V62.111C55.4168 61.7426 55.2705 61.3894 55.01 61.1289C54.7495 60.8684 54.3963 60.7221 54.0279 60.7221C53.6595 60.7221 53.3063 60.8684 53.0458 61.1289C52.7853 61.3894 52.639 61.7426 52.639 62.111V63.4999H49.9446V59.5693C48.1172 59.1856 46.2561 58.9855 44.389 58.9721C40.0054 58.9538 35.6843 60.0126 31.8057 62.0554C31.6329 62.1451 31.4883 62.2807 31.3878 62.4474C31.2873 62.614 31.2349 62.8053 31.2362 62.9999V70.7915H41.1112V79.2499C41.1112 79.6182 41.2576 79.9715 41.518 80.232C41.7785 80.4924 42.1318 80.6388 42.5001 80.6388H64.9585C65.3268 80.6388 65.6801 80.4924 65.9405 80.232C66.201 79.9715 66.3473 79.6182 66.3473 79.2499V64.8888C66.3473 64.5204 66.201 64.1671 65.9405 63.9067C65.6801 63.6462 65.3268 63.4999 64.9585 63.4999ZM63.5696 77.8888H43.889V66.2777H52.639V67.5415C52.639 67.9099 52.7853 68.2632 53.0458 68.5236C53.3063 68.7841 53.6595 68.9304 54.0279 68.9304C54.3963 68.9304 54.7495 68.7841 55.01 68.5236C55.2705 68.2632 55.4168 67.9099 55.4168 67.5415V66.2777H63.5696V77.8888Z" fill="#363636"/>
<path d="M81.343 57.2L86.293 46.58H87.763L89.428 57.2H88.108L87.703 54.455H83.938L82.663 57.2H81.343ZM84.328 53.465H87.628L86.863 47.78L84.328 53.465ZM92.8814 57.35C92.2414 57.35 91.7014 57.24 91.2614 57.02C90.8214 56.8 90.4864 56.485 90.2564 56.075C90.0364 55.665 89.9264 55.17 89.9264 54.59C89.9264 53.78 90.0214 53.035 90.2114 52.355C90.4014 51.665 90.6814 51.07 91.0514 50.57C91.4214 50.07 91.8664 49.685 92.3864 49.415C92.9064 49.145 93.4914 49.01 94.1414 49.01C94.3814 49.01 94.6214 49.02 94.8614 49.04C95.1014 49.06 95.3414 49.09 95.5814 49.13C95.8214 49.17 96.0514 49.23 96.2714 49.31L95.9264 50.3C95.5964 50.21 95.2814 50.15 94.9814 50.12C94.6914 50.08 94.3964 50.06 94.0964 50.06C93.6564 50.06 93.2564 50.17 92.8964 50.39C92.5364 50.61 92.2214 50.92 91.9514 51.32C91.6814 51.72 91.4714 52.185 91.3214 52.715C91.1714 53.235 91.0964 53.795 91.0964 54.395C91.0964 54.805 91.1814 55.155 91.3514 55.445C91.5314 55.725 91.7764 55.94 92.0864 56.09C92.3964 56.24 92.7664 56.315 93.1964 56.315C93.4364 56.315 93.6664 56.305 93.8864 56.285C94.1064 56.265 94.3164 56.235 94.5164 56.195C94.7264 56.155 94.9264 56.105 95.1164 56.045L95.2364 56.99C95.0164 57.06 94.7814 57.125 94.5314 57.185C94.2814 57.235 94.0164 57.275 93.7364 57.305C93.4664 57.335 93.1814 57.35 92.8814 57.35ZM96.8281 52.88C97.1181 52.9 97.4231 52.9 97.7431 52.88C98.0731 52.85 98.3931 52.81 98.7031 52.76C99.5131 52.63 100.143 52.415 100.593 52.115C101.053 51.805 101.283 51.405 101.283 50.915C101.283 50.595 101.173 50.355 100.953 50.195C100.743 50.025 100.418 49.94 99.9781 49.94C99.4081 49.94 98.8981 50.12 98.4481 50.48C97.9981 50.83 97.6481 51.32 97.3981 51.95C97.1481 52.57 97.0231 53.295 97.0231 54.125C97.0231 54.605 97.0981 55.015 97.2481 55.355C97.4081 55.685 97.6381 55.935 97.9381 56.105C98.2481 56.265 98.6231 56.345 99.0631 56.345C99.2931 56.345 99.5331 56.325 99.7831 56.285C100.043 56.245 100.308 56.19 100.578 56.12C100.858 56.05 101.138 55.96 101.418 55.85L101.598 56.81C101.198 56.98 100.758 57.11 100.278 57.2C99.8081 57.3 99.3381 57.35 98.8681 57.35C98.2281 57.35 97.6831 57.23 97.2331 56.99C96.7831 56.74 96.4381 56.385 96.1981 55.925C95.9681 55.455 95.8531 54.895 95.8531 54.245C95.8531 53.475 95.9481 52.77 96.1381 52.13C96.3381 51.49 96.6231 50.94 96.9931 50.48C97.3731 50.01 97.8281 49.65 98.3581 49.4C98.8981 49.14 99.5081 49.01 100.188 49.01C100.648 49.01 101.048 49.08 101.388 49.22C101.728 49.36 101.988 49.56 102.168 49.82C102.358 50.08 102.453 50.39 102.453 50.75C102.453 51.48 102.143 52.09 101.523 52.58C100.913 53.07 100.063 53.405 98.9731 53.585C98.5731 53.655 98.1831 53.7 97.8031 53.72C97.4231 53.73 97.0681 53.725 96.7381 53.705L96.8281 52.88ZM101.853 56.87L102.168 55.925C102.378 56.005 102.618 56.085 102.888 56.165C103.158 56.235 103.443 56.295 103.743 56.345C104.043 56.385 104.338 56.405 104.628 56.405C105.098 56.405 105.478 56.35 105.768 56.24C106.068 56.13 106.288 55.98 106.428 55.79C106.568 55.59 106.638 55.365 106.638 55.115C106.638 54.855 106.568 54.64 106.428 54.47C106.298 54.3 106.118 54.15 105.888 54.02C105.668 53.89 105.423 53.775 105.153 53.675C104.893 53.565 104.628 53.45 104.358 53.33C104.098 53.2 103.853 53.05 103.623 52.88C103.403 52.71 103.223 52.5 103.083 52.25C102.953 51.99 102.888 51.68 102.888 51.32C102.888 50.97 102.948 50.655 103.068 50.375C103.198 50.095 103.393 49.855 103.653 49.655C103.913 49.445 104.243 49.285 104.643 49.175C105.043 49.065 105.513 49.01 106.053 49.01C106.463 49.01 106.863 49.045 107.253 49.115C107.643 49.185 107.978 49.28 108.258 49.4L107.958 50.33C107.768 50.26 107.558 50.2 107.328 50.15C107.108 50.09 106.878 50.045 106.638 50.015C106.408 49.975 106.173 49.955 105.933 49.955C105.483 49.955 105.118 50.01 104.838 50.12C104.558 50.23 104.353 50.38 104.223 50.57C104.093 50.75 104.028 50.96 104.028 51.2C104.028 51.45 104.093 51.66 104.223 51.83C104.363 51.99 104.543 52.135 104.763 52.265C104.993 52.385 105.238 52.5 105.498 52.61C105.768 52.71 106.033 52.825 106.293 52.955C106.563 53.075 106.808 53.22 107.028 53.39C107.258 53.56 107.438 53.77 107.568 54.02C107.708 54.27 107.778 54.575 107.778 54.935C107.778 55.255 107.733 55.545 107.643 55.805C107.553 56.055 107.418 56.275 107.238 56.465C107.058 56.655 106.838 56.82 106.578 56.96C106.318 57.09 106.018 57.185 105.678 57.245C105.338 57.315 104.958 57.35 104.538 57.35C103.988 57.35 103.488 57.305 103.038 57.215C102.598 57.125 102.203 57.01 101.853 56.87ZM107.662 56.87L107.977 55.925C108.187 56.005 108.427 56.085 108.697 56.165C108.967 56.235 109.252 56.295 109.552 56.345C109.852 56.385 110.147 56.405 110.437 56.405C110.907 56.405 111.287 56.35 111.577 56.24C111.877 56.13 112.097 55.98 112.237 55.79C112.377 55.59 112.447 55.365 112.447 55.115C112.447 54.855 112.377 54.64 112.237 54.47C112.107 54.3 111.927 54.15 111.697 54.02C111.477 53.89 111.232 53.775 110.962 53.675C110.702 53.565 110.437 53.45 110.167 53.33C109.907 53.2 109.662 53.05 109.432 52.88C109.212 52.71 109.032 52.5 108.892 52.25C108.762 51.99 108.697 51.68 108.697 51.32C108.697 50.97 108.757 50.655 108.877 50.375C109.007 50.095 109.202 49.855 109.462 49.655C109.722 49.445 110.052 49.285 110.452 49.175C110.852 49.065 111.322 49.01 111.862 49.01C112.272 49.01 112.672 49.045 113.062 49.115C113.452 49.185 113.787 49.28 114.067 49.4L113.767 50.33C113.577 50.26 113.367 50.2 113.137 50.15C112.917 50.09 112.687 50.045 112.447 50.015C112.217 49.975 111.982 49.955 111.742 49.955C111.292 49.955 110.927 50.01 110.647 50.12C110.367 50.23 110.162 50.38 110.032 50.57C109.902 50.75 109.837 50.96 109.837 51.2C109.837 51.45 109.902 51.66 110.032 51.83C110.172 51.99 110.352 52.135 110.572 52.265C110.802 52.385 111.047 52.5 111.307 52.61C111.577 52.71 111.842 52.825 112.102 52.955C112.372 53.075 112.617 53.22 112.837 53.39C113.067 53.56 113.247 53.77 113.377 54.02C113.517 54.27 113.587 54.575 113.587 54.935C113.587 55.255 113.542 55.545 113.452 55.805C113.362 56.055 113.227 56.275 113.047 56.465C112.867 56.655 112.647 56.82 112.387 56.96C112.127 57.09 111.827 57.185 111.487 57.245C111.147 57.315 110.767 57.35 110.347 57.35C109.797 57.35 109.297 57.305 108.847 57.215C108.407 57.125 108.012 57.01 107.662 56.87ZM117.024 57.35C116.394 57.35 115.869 57.25 115.449 57.05C115.029 56.84 114.709 56.525 114.489 56.105C114.269 55.685 114.159 55.155 114.159 54.515C114.159 54.045 114.189 53.59 114.249 53.15C114.319 52.7 114.419 52.27 114.549 51.86C114.679 51.44 114.844 51.06 115.044 50.72C115.244 50.37 115.479 50.065 115.749 49.805C116.019 49.545 116.324 49.345 116.664 49.205C117.014 49.065 117.394 48.995 117.804 48.995C118.404 48.995 118.914 49.1 119.334 49.31C119.754 49.52 120.074 49.84 120.294 50.27C120.524 50.69 120.639 51.22 120.639 51.86C120.639 52.35 120.604 52.825 120.534 53.285C120.474 53.735 120.379 54.165 120.249 54.575C120.119 54.985 119.954 55.36 119.754 55.7C119.564 56.04 119.334 56.335 119.064 56.585C118.804 56.825 118.504 57.015 118.164 57.155C117.824 57.285 117.444 57.35 117.024 57.35ZM116.979 56.405C117.259 56.405 117.514 56.345 117.744 56.225C117.984 56.095 118.194 55.925 118.374 55.715C118.554 55.495 118.714 55.24 118.854 54.95C118.994 54.66 119.109 54.345 119.199 54.005C119.289 53.655 119.354 53.295 119.394 52.925C119.444 52.555 119.469 52.18 119.469 51.8C119.469 51.17 119.319 50.705 119.019 50.405C118.729 50.095 118.329 49.94 117.819 49.94C117.539 49.94 117.284 50.005 117.054 50.135C116.824 50.265 116.614 50.445 116.424 50.675C116.234 50.895 116.069 51.155 115.929 51.455C115.799 51.745 115.684 52.06 115.584 52.4C115.494 52.74 115.424 53.09 115.374 53.45C115.334 53.8 115.314 54.15 115.314 54.5C115.314 55.16 115.454 55.645 115.734 55.955C116.024 56.255 116.439 56.405 116.979 56.405ZM87.91 74.38C86.734 74.38 85.738 74.218 84.922 73.894C84.118 73.57 83.506 73.072 83.086 72.4C82.678 71.728 82.474 70.87 82.474 69.826C82.474 68.542 82.624 67.384 82.924 66.352C83.224 65.32 83.656 64.438 84.22 63.706C84.796 62.974 85.486 62.41 86.29 62.014C87.106 61.618 88.024 61.42 89.044 61.42C89.488 61.42 89.92 61.438 90.34 61.474C90.76 61.51 91.174 61.576 91.582 61.672C92.002 61.756 92.404 61.882 92.788 62.05L92.068 64.264C91.792 64.18 91.498 64.108 91.186 64.048C90.874 63.988 90.55 63.94 90.214 63.904C89.89 63.856 89.56 63.832 89.224 63.832C88.612 63.832 88.072 63.97 87.604 64.246C87.136 64.522 86.74 64.918 86.416 65.434C86.092 65.938 85.84 66.532 85.66 67.216C85.492 67.9 85.408 68.638 85.408 69.43C85.408 70.066 85.528 70.57 85.768 70.942C86.008 71.302 86.35 71.566 86.794 71.734C87.25 71.89 87.802 71.968 88.45 71.968C88.918 71.968 89.368 71.938 89.8 71.878C90.232 71.806 90.658 71.728 91.078 71.644L91.258 73.948C90.718 74.092 90.178 74.2 89.638 74.272C89.098 74.344 88.522 74.38 87.91 74.38ZM95.8032 74.38C94.9032 74.38 94.1472 74.242 93.5352 73.966C92.9352 73.678 92.4792 73.258 92.1672 72.706C91.8552 72.142 91.6992 71.434 91.6992 70.582C91.6992 70.018 91.7352 69.472 91.8072 68.944C91.8912 68.416 92.0112 67.918 92.1672 67.45C92.3352 66.97 92.5452 66.538 92.7972 66.154C93.0612 65.758 93.3672 65.416 93.7152 65.128C94.0752 64.828 94.4832 64.6 94.9392 64.444C95.3952 64.288 95.9052 64.21 96.4692 64.21C97.3212 64.21 98.0412 64.354 98.6292 64.642C99.2292 64.918 99.6852 65.338 99.9972 65.902C100.321 66.466 100.483 67.174 100.483 68.026C100.483 68.602 100.441 69.16 100.357 69.7C100.273 70.24 100.147 70.744 99.9792 71.212C99.8232 71.68 99.6192 72.112 99.3672 72.508C99.1152 72.892 98.8152 73.228 98.4672 73.516C98.1312 73.792 97.7352 74.008 97.2792 74.164C96.8352 74.308 96.3432 74.38 95.8032 74.38ZM95.7672 72.238C96.0072 72.226 96.2232 72.154 96.4152 72.022C96.6072 71.89 96.7752 71.71 96.9192 71.482C97.0632 71.254 97.1832 70.99 97.2792 70.69C97.3872 70.39 97.4712 70.072 97.5312 69.736C97.6032 69.4 97.6512 69.058 97.6752 68.71C97.6992 68.362 97.7112 68.032 97.7112 67.72C97.6992 67.24 97.5732 66.892 97.3332 66.676C97.0932 66.46 96.7812 66.352 96.3972 66.352C96.1572 66.352 95.9412 66.424 95.7492 66.568C95.5572 66.712 95.3832 66.904 95.2272 67.144C95.0832 67.372 94.9572 67.636 94.8492 67.936C94.7532 68.236 94.6692 68.554 94.5972 68.89C94.5372 69.214 94.4952 69.538 94.4712 69.862C94.4472 70.186 94.4352 70.498 94.4352 70.798C94.4472 71.314 94.5672 71.686 94.7952 71.914C95.0352 72.13 95.3592 72.238 95.7672 72.238ZM102.588 60.88H105.342L103.758 70.834C103.746 70.93 103.734 71.026 103.722 71.122C103.71 71.206 103.704 71.29 103.704 71.374C103.704 71.47 103.722 71.56 103.758 71.644C103.794 71.728 103.854 71.794 103.938 71.842C104.022 71.878 104.124 71.896 104.244 71.896C104.376 71.896 104.502 71.884 104.622 71.86C104.754 71.836 104.904 71.806 105.072 71.77L104.946 73.966C104.634 74.086 104.286 74.182 103.902 74.254C103.53 74.338 103.158 74.38 102.786 74.38C102.114 74.38 101.616 74.224 101.292 73.912C100.968 73.588 100.806 73.114 100.806 72.49C100.806 72.346 100.812 72.196 100.824 72.04C100.848 71.872 100.872 71.71 100.896 71.554L102.588 60.88ZM112.866 74.38C112.602 74.38 112.35 74.344 112.11 74.272C111.882 74.2 111.672 74.092 111.48 73.948C111.3 73.792 111.15 73.612 111.03 73.408C110.778 73.612 110.502 73.786 110.202 73.93C109.914 74.074 109.608 74.182 109.284 74.254C108.972 74.338 108.642 74.38 108.294 74.38C107.706 74.38 107.196 74.254 106.764 74.002C106.332 73.738 105.99 73.348 105.738 72.832C105.498 72.316 105.378 71.674 105.378 70.906C105.378 69.454 105.6 68.236 106.044 67.252C106.5 66.256 107.142 65.506 107.97 65.002C108.81 64.486 109.806 64.228 110.958 64.228C111.294 64.228 111.642 64.246 112.002 64.282C112.362 64.318 112.71 64.366 113.046 64.426C113.394 64.486 113.718 64.552 114.018 64.624C114.33 64.696 114.606 64.774 114.846 64.858C114.666 65.974 114.51 66.922 114.378 67.702C114.258 68.47 114.156 69.1 114.072 69.592C114 70.084 113.94 70.468 113.892 70.744C113.844 71.02 113.808 71.224 113.784 71.356C113.772 71.476 113.766 71.548 113.766 71.572C113.766 71.716 113.796 71.824 113.856 71.896C113.916 71.968 114.012 72.004 114.144 72.004C114.192 72.004 114.246 72.004 114.306 72.004C114.378 71.992 114.444 71.974 114.504 71.95L114.36 74.074C114.18 74.158 113.952 74.23 113.676 74.29C113.412 74.35 113.142 74.38 112.866 74.38ZM110.976 71.608L111.768 66.604C111.612 66.532 111.438 66.484 111.246 66.46C111.066 66.436 110.874 66.424 110.67 66.424C110.214 66.424 109.794 66.604 109.41 66.964C109.038 67.312 108.744 67.792 108.528 68.404C108.312 69.016 108.204 69.7 108.204 70.456C108.204 70.972 108.318 71.362 108.546 71.626C108.786 71.89 109.092 72.022 109.464 72.022C109.632 72.022 109.806 72.004 109.986 71.968C110.166 71.932 110.34 71.884 110.508 71.824C110.688 71.752 110.844 71.68 110.976 71.608ZM119.55 60.88L118.866 65.11C119.31 64.822 119.742 64.606 120.162 64.462C120.594 64.306 121.038 64.228 121.494 64.228C122.094 64.228 122.592 64.36 122.988 64.624C123.396 64.876 123.696 65.254 123.888 65.758C124.092 66.25 124.194 66.862 124.194 67.594C124.206 68.578 124.092 69.484 123.852 70.312C123.612 71.14 123.252 71.86 122.772 72.472C122.292 73.072 121.704 73.54 121.008 73.876C120.312 74.212 119.502 74.38 118.578 74.38C117.774 74.38 117.048 74.326 116.4 74.218C115.752 74.11 115.194 73.996 114.726 73.876L116.796 60.88H119.55ZM120.126 66.622C119.874 66.622 119.616 66.67 119.352 66.766C119.088 66.85 118.83 66.97 118.578 67.126L117.786 72.076C117.93 72.124 118.092 72.166 118.272 72.202C118.452 72.238 118.644 72.256 118.848 72.256C119.256 72.256 119.616 72.142 119.928 71.914C120.252 71.674 120.522 71.362 120.738 70.978C120.954 70.582 121.116 70.15 121.224 69.682C121.344 69.214 121.404 68.746 121.404 68.278C121.404 67.726 121.302 67.312 121.098 67.036C120.906 66.76 120.582 66.622 120.126 66.622ZM128.578 74.38C127.678 74.38 126.922 74.242 126.31 73.966C125.71 73.678 125.254 73.258 124.942 72.706C124.63 72.142 124.474 71.434 124.474 70.582C124.474 70.018 124.51 69.472 124.582 68.944C124.666 68.416 124.786 67.918 124.942 67.45C125.11 66.97 125.32 66.538 125.572 66.154C125.836 65.758 126.142 65.416 126.49 65.128C126.85 64.828 127.258 64.6 127.714 64.444C128.17 64.288 128.68 64.21 129.244 64.21C130.096 64.21 130.816 64.354 131.404 64.642C132.004 64.918 132.46 65.338 132.772 65.902C133.096 66.466 133.258 67.174 133.258 68.026C133.258 68.602 133.216 69.16 133.132 69.7C133.048 70.24 132.922 70.744 132.754 71.212C132.598 71.68 132.394 72.112 132.142 72.508C131.89 72.892 131.59 73.228 131.242 73.516C130.906 73.792 130.51 74.008 130.054 74.164C129.61 74.308 129.118 74.38 128.578 74.38ZM128.542 72.238C128.782 72.226 128.998 72.154 129.19 72.022C129.382 71.89 129.55 71.71 129.694 71.482C129.838 71.254 129.958 70.99 130.054 70.69C130.162 70.39 130.246 70.072 130.306 69.736C130.378 69.4 130.426 69.058 130.45 68.71C130.474 68.362 130.486 68.032 130.486 67.72C130.474 67.24 130.348 66.892 130.108 66.676C129.868 66.46 129.556 66.352 129.172 66.352C128.932 66.352 128.716 66.424 128.524 66.568C128.332 66.712 128.158 66.904 128.002 67.144C127.858 67.372 127.732 67.636 127.624 67.936C127.528 68.236 127.444 68.554 127.372 68.89C127.312 69.214 127.27 69.538 127.246 69.862C127.222 70.186 127.21 70.498 127.21 70.798C127.222 71.314 127.342 71.686 127.57 71.914C127.81 72.13 128.134 72.238 128.542 72.238ZM137.306 64.408L137.126 65.542C137.486 65.23 137.816 64.978 138.116 64.786C138.416 64.594 138.698 64.456 138.962 64.372C139.226 64.276 139.502 64.228 139.79 64.228C139.994 64.228 140.192 64.246 140.384 64.282C140.588 64.306 140.78 64.354 140.96 64.426L140.15 67.09C139.946 67.03 139.742 66.988 139.538 66.964C139.346 66.94 139.166 66.928 138.998 66.928C138.71 66.928 138.41 66.976 138.098 67.072C137.798 67.168 137.456 67.348 137.072 67.612L136.01 74.2H133.274L134.84 64.408H137.306ZM147.345 74.38C147.081 74.38 146.829 74.344 146.589 74.272C146.361 74.2 146.151 74.092 145.959 73.948C145.779 73.792 145.629 73.612 145.509 73.408C145.257 73.612 144.981 73.786 144.681 73.93C144.393 74.074 144.087 74.182 143.763 74.254C143.451 74.338 143.121 74.38 142.773 74.38C142.185 74.38 141.675 74.254 141.243 74.002C140.811 73.738 140.469 73.348 140.217 72.832C139.977 72.316 139.857 71.674 139.857 70.906C139.857 69.454 140.079 68.236 140.523 67.252C140.979 66.256 141.621 65.506 142.449 65.002C143.289 64.486 144.285 64.228 145.437 64.228C145.773 64.228 146.121 64.246 146.481 64.282C146.841 64.318 147.189 64.366 147.525 64.426C147.873 64.486 148.197 64.552 148.497 64.624C148.809 64.696 149.085 64.774 149.325 64.858C149.145 65.974 148.989 66.922 148.857 67.702C148.737 68.47 148.635 69.1 148.551 69.592C148.479 70.084 148.419 70.468 148.371 70.744C148.323 71.02 148.287 71.224 148.263 71.356C148.251 71.476 148.245 71.548 148.245 71.572C148.245 71.716 148.275 71.824 148.335 71.896C148.395 71.968 148.491 72.004 148.623 72.004C148.671 72.004 148.725 72.004 148.785 72.004C148.857 71.992 148.923 71.974 148.983 71.95L148.839 74.074C148.659 74.158 148.431 74.23 148.155 74.29C147.891 74.35 147.621 74.38 147.345 74.38ZM145.455 71.608L146.247 66.604C146.091 66.532 145.917 66.484 145.725 66.46C145.545 66.436 145.353 66.424 145.149 66.424C144.693 66.424 144.273 66.604 143.889 66.964C143.517 67.312 143.223 67.792 143.007 68.404C142.791 69.016 142.683 69.7 142.683 70.456C142.683 70.972 142.797 71.362 143.025 71.626C143.265 71.89 143.571 72.022 143.943 72.022C144.111 72.022 144.285 72.004 144.465 71.968C144.645 71.932 144.819 71.884 144.987 71.824C145.167 71.752 145.323 71.68 145.455 71.608ZM156.892 74.38C156.616 74.38 156.358 74.344 156.118 74.272C155.878 74.2 155.668 74.092 155.488 73.948C155.308 73.792 155.158 73.618 155.038 73.426C154.81 73.606 154.546 73.768 154.246 73.912C153.958 74.056 153.652 74.17 153.328 74.254C153.004 74.338 152.674 74.38 152.338 74.38C151.75 74.38 151.234 74.26 150.79 74.02C150.358 73.768 150.016 73.384 149.764 72.868C149.524 72.352 149.404 71.698 149.404 70.906C149.404 69.838 149.53 68.896 149.782 68.08C150.034 67.252 150.388 66.556 150.844 65.992C151.3 65.416 151.822 64.978 152.41 64.678C153.01 64.378 153.658 64.228 154.354 64.228C154.702 64.228 155.02 64.252 155.308 64.3C155.608 64.348 155.878 64.414 156.118 64.498L156.694 60.88H159.448C159.412 61.132 159.358 61.48 159.286 61.924C159.226 62.356 159.148 62.848 159.052 63.4C158.968 63.94 158.878 64.516 158.782 65.128C158.686 65.728 158.59 66.328 158.494 66.928C158.41 67.528 158.32 68.104 158.224 68.656C158.14 69.208 158.062 69.7 157.99 70.132C157.93 70.564 157.882 70.912 157.846 71.176C157.81 71.44 157.792 71.59 157.792 71.626C157.792 71.746 157.816 71.842 157.864 71.914C157.924 71.974 158.02 72.004 158.152 72.004C158.212 72.004 158.272 72.004 158.332 72.004C158.392 71.992 158.452 71.974 158.512 71.95L158.368 74.074C158.176 74.17 157.942 74.242 157.666 74.29C157.39 74.35 157.132 74.38 156.892 74.38ZM153.454 72.004C153.706 72.004 153.97 71.968 154.246 71.896C154.522 71.824 154.768 71.728 154.984 71.608L155.794 66.586C155.626 66.526 155.446 66.484 155.254 66.46C155.074 66.436 154.876 66.424 154.66 66.424C154.312 66.424 153.982 66.538 153.67 66.766C153.37 66.994 153.112 67.312 152.896 67.72C152.68 68.116 152.506 68.572 152.374 69.088C152.254 69.592 152.194 70.12 152.194 70.672C152.194 70.948 152.248 71.188 152.356 71.392C152.464 71.596 152.614 71.752 152.806 71.86C152.998 71.956 153.214 72.004 153.454 72.004ZM163.127 74.38C162.227 74.38 161.471 74.242 160.859 73.966C160.259 73.678 159.803 73.258 159.491 72.706C159.179 72.142 159.023 71.434 159.023 70.582C159.023 70.018 159.059 69.472 159.131 68.944C159.215 68.416 159.335 67.918 159.491 67.45C159.659 66.97 159.869 66.538 160.121 66.154C160.385 65.758 160.691 65.416 161.039 65.128C161.399 64.828 161.807 64.6 162.263 64.444C162.719 64.288 163.229 64.21 163.793 64.21C164.645 64.21 165.365 64.354 165.953 64.642C166.553 64.918 167.009 65.338 167.321 65.902C167.645 66.466 167.807 67.174 167.807 68.026C167.807 68.602 167.765 69.16 167.681 69.7C167.597 70.24 167.471 70.744 167.303 71.212C167.147 71.68 166.943 72.112 166.691 72.508C166.439 72.892 166.139 73.228 165.791 73.516C165.455 73.792 165.059 74.008 164.603 74.164C164.159 74.308 163.667 74.38 163.127 74.38ZM163.091 72.238C163.331 72.226 163.547 72.154 163.739 72.022C163.931 71.89 164.099 71.71 164.243 71.482C164.387 71.254 164.507 70.99 164.603 70.69C164.711 70.39 164.795 70.072 164.855 69.736C164.927 69.4 164.975 69.058 164.999 68.71C165.023 68.362 165.035 68.032 165.035 67.72C165.023 67.24 164.897 66.892 164.657 66.676C164.417 66.46 164.105 66.352 163.721 66.352C163.481 66.352 163.265 66.424 163.073 66.568C162.881 66.712 162.707 66.904 162.551 67.144C162.407 67.372 162.281 67.636 162.173 67.936C162.077 68.236 161.993 68.554 161.921 68.89C161.861 69.214 161.819 69.538 161.795 69.862C161.771 70.186 161.759 70.498 161.759 70.798C161.771 71.314 161.891 71.686 162.119 71.914C162.359 72.13 162.683 72.238 163.091 72.238ZM171.856 64.408L171.676 65.542C172.036 65.23 172.366 64.978 172.666 64.786C172.966 64.594 173.248 64.456 173.512 64.372C173.776 64.276 174.052 64.228 174.34 64.228C174.544 64.228 174.742 64.246 174.934 64.282C175.138 64.306 175.33 64.354 175.51 64.426L174.7 67.09C174.496 67.03 174.292 66.988 174.088 66.964C173.896 66.94 173.716 66.928 173.548 66.928C173.26 66.928 172.96 66.976 172.648 67.072C172.348 67.168 172.006 67.348 171.622 67.612L170.56 74.2H167.824L169.39 64.408H171.856ZM176.605 68.818C176.845 68.842 177.109 68.842 177.397 68.818C177.697 68.794 177.985 68.764 178.261 68.728C178.969 68.608 179.521 68.41 179.917 68.134C180.313 67.858 180.511 67.51 180.511 67.09C180.511 66.826 180.439 66.634 180.295 66.514C180.151 66.382 179.911 66.316 179.575 66.316C179.107 66.316 178.681 66.472 178.297 66.784C177.925 67.096 177.631 67.54 177.415 68.116C177.211 68.68 177.103 69.352 177.091 70.132C177.091 70.612 177.157 70.996 177.289 71.284C177.421 71.572 177.631 71.776 177.919 71.896C178.219 72.016 178.603 72.076 179.071 72.076C179.299 72.076 179.557 72.058 179.845 72.022C180.133 71.986 180.445 71.932 180.781 71.86C181.129 71.776 181.477 71.668 181.825 71.536L182.167 73.75C181.615 73.966 181.027 74.122 180.403 74.218C179.779 74.326 179.167 74.38 178.567 74.38C177.667 74.38 176.905 74.23 176.281 73.93C175.657 73.618 175.177 73.168 174.841 72.58C174.517 71.992 174.355 71.29 174.355 70.474C174.355 69.586 174.475 68.764 174.715 68.008C174.955 67.252 175.309 66.592 175.777 66.028C176.257 65.464 176.845 65.026 177.541 64.714C178.249 64.39 179.065 64.228 179.989 64.228C180.649 64.228 181.219 64.33 181.699 64.534C182.191 64.738 182.569 65.026 182.833 65.398C183.097 65.758 183.229 66.196 183.229 66.712C183.229 67.636 182.857 68.422 182.113 69.07C181.369 69.706 180.337 70.126 179.017 70.33C178.537 70.402 178.081 70.444 177.649 70.456C177.229 70.468 176.827 70.462 176.443 70.438L176.605 68.818ZM182.443 73.768L183.109 71.68C183.373 71.788 183.679 71.89 184.027 71.986C184.387 72.07 184.753 72.142 185.125 72.202C185.497 72.25 185.839 72.274 186.151 72.274C186.511 72.274 186.799 72.238 187.015 72.166C187.231 72.094 187.387 71.998 187.483 71.878C187.579 71.746 187.627 71.596 187.627 71.428C187.627 71.236 187.549 71.074 187.393 70.942C187.249 70.81 187.051 70.696 186.799 70.6C186.559 70.504 186.295 70.408 186.007 70.312C185.719 70.216 185.425 70.102 185.125 69.97C184.837 69.826 184.567 69.652 184.315 69.448C184.075 69.244 183.877 68.986 183.721 68.674C183.577 68.362 183.505 67.978 183.505 67.522C183.505 66.994 183.595 66.532 183.775 66.136C183.967 65.728 184.243 65.386 184.603 65.11C184.975 64.822 185.431 64.606 185.971 64.462C186.511 64.306 187.129 64.228 187.825 64.228C188.413 64.228 188.959 64.276 189.463 64.372C189.967 64.468 190.411 64.588 190.795 64.732L190.147 66.82C189.895 66.736 189.619 66.664 189.319 66.604C189.019 66.532 188.719 66.478 188.419 66.442C188.119 66.406 187.837 66.388 187.573 66.388C187.237 66.388 186.961 66.424 186.745 66.496C186.541 66.568 186.391 66.664 186.295 66.784C186.211 66.904 186.169 67.048 186.169 67.216C186.169 67.396 186.241 67.546 186.385 67.666C186.541 67.774 186.739 67.87 186.979 67.954C187.231 68.038 187.501 68.128 187.789 68.224C188.089 68.32 188.383 68.434 188.671 68.566C188.971 68.698 189.241 68.866 189.481 69.07C189.733 69.274 189.931 69.532 190.075 69.844C190.219 70.144 190.291 70.522 190.291 70.978C190.291 71.482 190.219 71.926 190.075 72.31C189.943 72.682 189.745 73 189.481 73.264C189.229 73.528 188.923 73.744 188.563 73.912C188.215 74.068 187.825 74.182 187.393 74.254C186.961 74.338 186.499 74.38 186.007 74.38C185.275 74.38 184.621 74.32 184.045 74.2C183.481 74.092 182.947 73.948 182.443 73.768Z" fill="#363636"/>
</g>
<defs>
<filter id="filter0_d_983_1941" x="0" y="0" width="212.798" height="114" filterUnits="userSpaceOnUse" color-interpolation-filters="sRGB">
<feFlood flood-opacity="0" result="BackgroundImageFix"/>
<feColorMatrix in="SourceAlpha" type="matrix" values="0 0 0 0 0 0 0 0 0 0 0 0 0 0 0 0 0 0 127 0" result="hardAlpha"/>
<feMorphology radius="2" operator="erode" in="SourceAlpha" result="effect1_dropShadow_983_1941"/>
<feOffset dy="2"/>
<feGaussianBlur stdDeviation="4"/>
<feComposite in2="hardAlpha" operator="out"/>
<feColorMatrix type="matrix" values="0 0 0 0 0.133333 0 0 0 0 0.133333 0 0 0 0 0.133333 0 0 0 0.4 0"/>
<feBlend mode="normal" in2="BackgroundImageFix" result="effect1_dropShadow_983_1941"/>
<feBlend mode="normal" in="SourceGraphic" in2="effect1_dropShadow_983_1941" result="shape"/>
</filter>
</defs>
</svg>
