<svg width="213" height="114" viewBox="0 0 213 114" fill="none" xmlns="http://www.w3.org/2000/svg">
<g filter="url(#filter0_d_983_1950)">
<rect x="6" y="4" width="200.798" height="102" rx="10" fill="#FF99A7"/>
<path fill-rule="evenodd" clip-rule="evenodd" d="M50.4753 30.5638C45.577 31.0659 41.1116 32.8866 37.2269 35.9657C36.0878 36.8685 34.2962 38.6602 33.381 39.8118C31.3535 42.3631 29.7167 45.4871 28.8745 48.413C28.1871 50.8014 27.8988 52.8926 27.8989 55.4902C27.8991 58.0732 28.1888 60.2289 28.8374 62.4734C29.6959 65.4446 31.3902 68.7116 33.3473 71.1697C34.0938 72.1073 36.3002 74.3137 37.2379 75.0602C40.6414 77.7699 44.6853 79.5503 49.0603 80.2652C50.6145 80.5191 54.0404 80.58 55.7445 80.384C63.8297 79.4538 70.8483 74.759 74.8352 67.6141C76.2992 64.9905 77.2503 62.1245 77.7355 58.875C77.9528 57.4187 77.9536 53.5711 77.7367 52.1065C76.7206 45.2453 73.2849 39.466 67.7788 35.356C64.5409 32.9391 60.7123 31.3521 56.6013 30.7228C55.2745 30.5196 51.7887 30.4291 50.4753 30.5638ZM44.509 44.5027C44.5615 44.6008 44.4151 47.0217 44.0855 51.5068C43.5115 59.3186 43.4944 59.8279 43.7789 60.6314C44.216 61.8661 44.9549 62.6548 46.2616 63.2816C49.0757 64.6311 52.4479 65.0586 55.7815 64.4881C57.4931 64.1951 59.6043 63.4015 60.5329 62.702C61.6082 61.892 62.2556 60.6166 62.2565 59.3068C62.2567 59.0222 62.0236 55.5953 61.7386 51.6915C61.3403 46.2371 61.2435 44.5658 61.3204 44.4732C61.4018 44.3752 61.8447 44.353 63.7017 44.354C64.9566 44.3548 66.038 44.3901 66.1051 44.4325C66.2014 44.4935 66.332 45.9243 66.7286 51.264C67.283 58.7286 67.3254 59.7936 67.1114 60.8945C66.4873 64.1063 64.5046 66.5389 61.3704 67.9385C60.2038 68.4593 58.4757 69.0345 57.3463 69.2778C55.4464 69.6871 52.7124 69.8289 50.6771 69.6237C47.6979 69.3233 44.1208 68.0814 42.3149 66.7206C40.1917 65.1209 38.8841 62.8026 38.5996 60.134C38.5095 59.2895 38.5433 58.6502 39.0299 51.978C39.3203 47.9961 39.5941 44.6516 39.6384 44.5455L39.7189 44.3527H42.0738C44.2291 44.3527 44.4357 44.3654 44.509 44.5027Z" fill="#363636"/>
<path d="M89.4339 52L94.3839 41.38H95.8539L97.5189 52H96.1989L95.7939 49.255H92.0289L90.7539 52H89.4339ZM92.4189 48.265H95.7189L94.9539 42.58L92.4189 48.265ZM100.972 52.15C100.332 52.15 99.7924 52.04 99.3524 51.82C98.9124 51.6 98.5774 51.285 98.3474 50.875C98.1274 50.465 98.0174 49.97 98.0174 49.39C98.0174 48.58 98.1124 47.835 98.3024 47.155C98.4924 46.465 98.7724 45.87 99.1424 45.37C99.5124 44.87 99.9574 44.485 100.477 44.215C100.997 43.945 101.582 43.81 102.232 43.81C102.472 43.81 102.712 43.82 102.952 43.84C103.192 43.86 103.432 43.89 103.672 43.93C103.912 43.97 104.142 44.03 104.362 44.11L104.017 45.1C103.687 45.01 103.372 44.95 103.072 44.92C102.782 44.88 102.487 44.86 102.187 44.86C101.747 44.86 101.347 44.97 100.987 45.19C100.627 45.41 100.312 45.72 100.042 46.12C99.7724 46.52 99.5624 46.985 99.4124 47.515C99.2624 48.035 99.1874 48.595 99.1874 49.195C99.1874 49.605 99.2724 49.955 99.4424 50.245C99.6224 50.525 99.8674 50.74 100.177 50.89C100.487 51.04 100.857 51.115 101.287 51.115C101.527 51.115 101.757 51.105 101.977 51.085C102.197 51.065 102.407 51.035 102.607 50.995C102.817 50.955 103.017 50.905 103.207 50.845L103.327 51.79C103.107 51.86 102.872 51.925 102.622 51.985C102.372 52.035 102.107 52.075 101.827 52.105C101.557 52.135 101.272 52.15 100.972 52.15ZM104.919 47.68C105.209 47.7 105.514 47.7 105.834 47.68C106.164 47.65 106.484 47.61 106.794 47.56C107.604 47.43 108.234 47.215 108.684 46.915C109.144 46.605 109.374 46.205 109.374 45.715C109.374 45.395 109.264 45.155 109.044 44.995C108.834 44.825 108.509 44.74 108.069 44.74C107.499 44.74 106.989 44.92 106.539 45.28C106.089 45.63 105.739 46.12 105.489 46.75C105.239 47.37 105.114 48.095 105.114 48.925C105.114 49.405 105.189 49.815 105.339 50.155C105.499 50.485 105.729 50.735 106.029 50.905C106.339 51.065 106.714 51.145 107.154 51.145C107.384 51.145 107.624 51.125 107.874 51.085C108.134 51.045 108.399 50.99 108.669 50.92C108.949 50.85 109.229 50.76 109.509 50.65L109.689 51.61C109.289 51.78 108.849 51.91 108.369 52C107.899 52.1 107.429 52.15 106.959 52.15C106.319 52.15 105.774 52.03 105.324 51.79C104.874 51.54 104.529 51.185 104.289 50.725C104.059 50.255 103.944 49.695 103.944 49.045C103.944 48.275 104.039 47.57 104.229 46.93C104.429 46.29 104.714 45.74 105.084 45.28C105.464 44.81 105.919 44.45 106.449 44.2C106.989 43.94 107.599 43.81 108.279 43.81C108.739 43.81 109.139 43.88 109.479 44.02C109.819 44.16 110.079 44.36 110.259 44.62C110.449 44.88 110.544 45.19 110.544 45.55C110.544 46.28 110.234 46.89 109.614 47.38C109.004 47.87 108.154 48.205 107.064 48.385C106.664 48.455 106.274 48.5 105.894 48.52C105.514 48.53 105.159 48.525 104.829 48.505L104.919 47.68ZM109.944 51.67L110.259 50.725C110.469 50.805 110.709 50.885 110.979 50.965C111.249 51.035 111.534 51.095 111.834 51.145C112.134 51.185 112.429 51.205 112.719 51.205C113.189 51.205 113.569 51.15 113.859 51.04C114.159 50.93 114.379 50.78 114.519 50.59C114.659 50.39 114.729 50.165 114.729 49.915C114.729 49.655 114.659 49.44 114.519 49.27C114.389 49.1 114.209 48.95 113.979 48.82C113.759 48.69 113.514 48.575 113.244 48.475C112.984 48.365 112.719 48.25 112.449 48.13C112.189 48 111.944 47.85 111.714 47.68C111.494 47.51 111.314 47.3 111.174 47.05C111.044 46.79 110.979 46.48 110.979 46.12C110.979 45.77 111.039 45.455 111.159 45.175C111.289 44.895 111.484 44.655 111.744 44.455C112.004 44.245 112.334 44.085 112.734 43.975C113.134 43.865 113.604 43.81 114.144 43.81C114.554 43.81 114.954 43.845 115.344 43.915C115.734 43.985 116.069 44.08 116.349 44.2L116.049 45.13C115.859 45.06 115.649 45 115.419 44.95C115.199 44.89 114.969 44.845 114.729 44.815C114.499 44.775 114.264 44.755 114.024 44.755C113.574 44.755 113.209 44.81 112.929 44.92C112.649 45.03 112.444 45.18 112.314 45.37C112.184 45.55 112.119 45.76 112.119 46C112.119 46.25 112.184 46.46 112.314 46.63C112.454 46.79 112.634 46.935 112.854 47.065C113.084 47.185 113.329 47.3 113.589 47.41C113.859 47.51 114.124 47.625 114.384 47.755C114.654 47.875 114.899 48.02 115.119 48.19C115.349 48.36 115.529 48.57 115.659 48.82C115.799 49.07 115.869 49.375 115.869 49.735C115.869 50.055 115.824 50.345 115.734 50.605C115.644 50.855 115.509 51.075 115.329 51.265C115.149 51.455 114.929 51.62 114.669 51.76C114.409 51.89 114.109 51.985 113.769 52.045C113.429 52.115 113.049 52.15 112.629 52.15C112.079 52.15 111.579 52.105 111.129 52.015C110.689 51.925 110.294 51.81 109.944 51.67ZM115.753 51.67L116.068 50.725C116.278 50.805 116.518 50.885 116.788 50.965C117.058 51.035 117.343 51.095 117.643 51.145C117.943 51.185 118.238 51.205 118.528 51.205C118.998 51.205 119.378 51.15 119.668 51.04C119.968 50.93 120.188 50.78 120.328 50.59C120.468 50.39 120.538 50.165 120.538 49.915C120.538 49.655 120.468 49.44 120.328 49.27C120.198 49.1 120.018 48.95 119.788 48.82C119.568 48.69 119.323 48.575 119.053 48.475C118.793 48.365 118.528 48.25 118.258 48.13C117.998 48 117.753 47.85 117.523 47.68C117.303 47.51 117.123 47.3 116.983 47.05C116.853 46.79 116.788 46.48 116.788 46.12C116.788 45.77 116.848 45.455 116.968 45.175C117.098 44.895 117.293 44.655 117.553 44.455C117.813 44.245 118.143 44.085 118.543 43.975C118.943 43.865 119.413 43.81 119.953 43.81C120.363 43.81 120.763 43.845 121.153 43.915C121.543 43.985 121.878 44.08 122.158 44.2L121.858 45.13C121.668 45.06 121.458 45 121.228 44.95C121.008 44.89 120.778 44.845 120.538 44.815C120.308 44.775 120.073 44.755 119.833 44.755C119.383 44.755 119.018 44.81 118.738 44.92C118.458 45.03 118.253 45.18 118.123 45.37C117.993 45.55 117.928 45.76 117.928 46C117.928 46.25 117.993 46.46 118.123 46.63C118.263 46.79 118.443 46.935 118.663 47.065C118.893 47.185 119.138 47.3 119.398 47.41C119.668 47.51 119.933 47.625 120.193 47.755C120.463 47.875 120.708 48.02 120.928 48.19C121.158 48.36 121.338 48.57 121.468 48.82C121.608 49.07 121.678 49.375 121.678 49.735C121.678 50.055 121.633 50.345 121.543 50.605C121.453 50.855 121.318 51.075 121.138 51.265C120.958 51.455 120.738 51.62 120.478 51.76C120.218 51.89 119.918 51.985 119.578 52.045C119.238 52.115 118.858 52.15 118.438 52.15C117.888 52.15 117.388 52.105 116.938 52.015C116.498 51.925 116.103 51.81 115.753 51.67ZM125.115 52.15C124.485 52.15 123.96 52.05 123.54 51.85C123.12 51.64 122.8 51.325 122.58 50.905C122.36 50.485 122.25 49.955 122.25 49.315C122.25 48.845 122.28 48.39 122.34 47.95C122.41 47.5 122.51 47.07 122.64 46.66C122.77 46.24 122.935 45.86 123.135 45.52C123.335 45.17 123.57 44.865 123.84 44.605C124.11 44.345 124.415 44.145 124.755 44.005C125.105 43.865 125.485 43.795 125.895 43.795C126.495 43.795 127.005 43.9 127.425 44.11C127.845 44.32 128.165 44.64 128.385 45.07C128.615 45.49 128.73 46.02 128.73 46.66C128.73 47.15 128.695 47.625 128.625 48.085C128.565 48.535 128.47 48.965 128.34 49.375C128.21 49.785 128.045 50.16 127.845 50.5C127.655 50.84 127.425 51.135 127.155 51.385C126.895 51.625 126.595 51.815 126.255 51.955C125.915 52.085 125.535 52.15 125.115 52.15ZM125.07 51.205C125.35 51.205 125.605 51.145 125.835 51.025C126.075 50.895 126.285 50.725 126.465 50.515C126.645 50.295 126.805 50.04 126.945 49.75C127.085 49.46 127.2 49.145 127.29 48.805C127.38 48.455 127.445 48.095 127.485 47.725C127.535 47.355 127.56 46.98 127.56 46.6C127.56 45.97 127.41 45.505 127.11 45.205C126.82 44.895 126.42 44.74 125.91 44.74C125.63 44.74 125.375 44.805 125.145 44.935C124.915 45.065 124.705 45.245 124.515 45.475C124.325 45.695 124.16 45.955 124.02 46.255C123.89 46.545 123.775 46.86 123.675 47.2C123.585 47.54 123.515 47.89 123.465 48.25C123.425 48.6 123.405 48.95 123.405 49.3C123.405 49.96 123.545 50.445 123.825 50.755C124.115 51.055 124.53 51.205 125.07 51.205ZM96.3399 70.19C95.0986 70.19 94.0473 70.019 93.1859 69.677C92.3373 69.335 91.6913 68.8093 91.2479 68.1C90.8173 67.3907 90.6019 66.485 90.6019 65.383C90.6019 64.0277 90.7603 62.8053 91.0769 61.716C91.3936 60.6267 91.8496 59.6957 92.4449 58.923C93.0529 58.1503 93.7813 57.555 94.6299 57.137C95.4913 56.719 96.4603 56.51 97.5369 56.51C98.0056 56.51 98.4616 56.529 98.9049 56.567C99.3483 56.605 99.7853 56.6747 100.216 56.776C100.659 56.8647 101.084 56.9977 101.489 57.175L100.729 59.512C100.438 59.4233 100.127 59.3473 99.7979 59.284C99.4686 59.2207 99.1266 59.17 98.7719 59.132C98.4299 59.0813 98.0816 59.056 97.7269 59.056C97.0809 59.056 96.5109 59.2017 96.0169 59.493C95.5229 59.7843 95.1049 60.2023 94.7629 60.747C94.4209 61.279 94.1549 61.906 93.9649 62.628C93.7876 63.35 93.6989 64.129 93.6989 64.965C93.6989 65.6363 93.8256 66.1683 94.0789 66.561C94.3323 66.941 94.6933 67.2197 95.1619 67.397C95.6433 67.5617 96.2259 67.644 96.9099 67.644C97.4039 67.644 97.8789 67.6123 98.3349 67.549C98.7909 67.473 99.2406 67.3907 99.6839 67.302L99.8739 69.734C99.3039 69.886 98.7339 70 98.1639 70.076C97.5939 70.152 96.9859 70.19 96.3399 70.19ZM104.699 70.19C103.749 70.19 102.951 70.0443 102.305 69.753C101.672 69.449 101.19 69.0057 100.861 68.423C100.532 67.8277 100.367 67.0803 100.367 66.181C100.367 65.5857 100.405 65.0093 100.481 64.452C100.57 63.8947 100.696 63.369 100.861 62.875C101.038 62.3683 101.26 61.9123 101.526 61.507C101.805 61.089 102.128 60.728 102.495 60.424C102.875 60.1073 103.306 59.8667 103.787 59.702C104.268 59.5373 104.807 59.455 105.402 59.455C106.301 59.455 107.061 59.607 107.682 59.911C108.315 60.2023 108.797 60.6457 109.126 61.241C109.468 61.8363 109.639 62.5837 109.639 63.483C109.639 64.091 109.595 64.68 109.506 65.25C109.417 65.82 109.284 66.352 109.107 66.846C108.942 67.34 108.727 67.796 108.461 68.214C108.195 68.6193 107.878 68.974 107.511 69.278C107.156 69.5693 106.738 69.7973 106.257 69.962C105.788 70.114 105.269 70.19 104.699 70.19ZM104.661 67.929C104.914 67.9163 105.142 67.8403 105.345 67.701C105.548 67.5617 105.725 67.3717 105.877 67.131C106.029 66.8903 106.156 66.6117 106.257 66.295C106.371 65.9783 106.46 65.6427 106.523 65.288C106.599 64.9333 106.65 64.5723 106.675 64.205C106.7 63.8377 106.713 63.4893 106.713 63.16C106.7 62.6533 106.567 62.286 106.314 62.058C106.061 61.83 105.731 61.716 105.326 61.716C105.073 61.716 104.845 61.792 104.642 61.944C104.439 62.096 104.256 62.2987 104.091 62.552C103.939 62.7927 103.806 63.0713 103.692 63.388C103.591 63.7047 103.502 64.0403 103.426 64.395C103.363 64.737 103.318 65.079 103.293 65.421C103.268 65.763 103.255 66.0923 103.255 66.409C103.268 66.9537 103.394 67.3463 103.635 67.587C103.888 67.815 104.23 67.929 104.661 67.929ZM114.414 70.19C113.464 70.19 112.666 70.0443 112.02 69.753C111.387 69.449 110.905 69.0057 110.576 68.423C110.247 67.8277 110.082 67.0803 110.082 66.181C110.082 65.5857 110.12 65.0093 110.196 64.452C110.285 63.8947 110.411 63.369 110.576 62.875C110.753 62.3683 110.975 61.9123 111.241 61.507C111.52 61.089 111.843 60.728 112.21 60.424C112.59 60.1073 113.021 59.8667 113.502 59.702C113.983 59.5373 114.522 59.455 115.117 59.455C116.016 59.455 116.776 59.607 117.397 59.911C118.03 60.2023 118.512 60.6457 118.841 61.241C119.183 61.8363 119.354 62.5837 119.354 63.483C119.354 64.091 119.31 64.68 119.221 65.25C119.132 65.82 118.999 66.352 118.822 66.846C118.657 67.34 118.442 67.796 118.176 68.214C117.91 68.6193 117.593 68.974 117.226 69.278C116.871 69.5693 116.453 69.7973 115.972 69.962C115.503 70.114 114.984 70.19 114.414 70.19ZM114.376 67.929C114.629 67.9163 114.857 67.8403 115.06 67.701C115.263 67.5617 115.44 67.3717 115.592 67.131C115.744 66.8903 115.871 66.6117 115.972 66.295C116.086 65.9783 116.175 65.6427 116.238 65.288C116.314 64.9333 116.365 64.5723 116.39 64.205C116.415 63.8377 116.428 63.4893 116.428 63.16C116.415 62.6533 116.282 62.286 116.029 62.058C115.776 61.83 115.446 61.716 115.041 61.716C114.788 61.716 114.56 61.792 114.357 61.944C114.154 62.096 113.971 62.2987 113.806 62.552C113.654 62.7927 113.521 63.0713 113.407 63.388C113.306 63.7047 113.217 64.0403 113.141 64.395C113.078 64.737 113.033 65.079 113.008 65.421C112.983 65.763 112.97 66.0923 112.97 66.409C112.983 66.9537 113.109 67.3463 113.35 67.587C113.603 67.815 113.945 67.929 114.376 67.929ZM118.79 73.99L121.051 59.626H123.692L123.635 60.519C124.091 60.215 124.547 59.968 125.003 59.778C125.472 59.5753 125.991 59.474 126.561 59.474C127.22 59.474 127.758 59.6133 128.176 59.892C128.607 60.158 128.924 60.557 129.126 61.089C129.342 61.621 129.449 62.2797 129.449 63.065C129.449 64.0403 129.335 64.965 129.107 65.839C128.879 66.7003 128.537 67.454 128.081 68.1C127.638 68.746 127.074 69.2527 126.39 69.62C125.706 69.9873 124.915 70.171 124.015 70.171C123.673 70.171 123.357 70.152 123.065 70.114C122.774 70.076 122.527 70.038 122.324 70L121.678 73.99H118.79ZM123.787 67.948C124.231 67.948 124.623 67.8277 124.965 67.587C125.307 67.3337 125.592 67.0043 125.82 66.599C126.048 66.181 126.219 65.725 126.333 65.231C126.447 64.737 126.504 64.243 126.504 63.749C126.504 63.141 126.397 62.6977 126.181 62.419C125.979 62.1403 125.649 62.001 125.193 62.001C124.915 62.001 124.63 62.0517 124.338 62.153C124.047 62.2417 123.768 62.3683 123.502 62.533L122.685 67.758C122.837 67.8213 123.002 67.872 123.179 67.91C123.369 67.9353 123.572 67.948 123.787 67.948ZM132.09 64.319C132.343 64.3443 132.622 64.3443 132.926 64.319C133.243 64.2937 133.547 64.262 133.838 64.224C134.585 64.0973 135.168 63.8883 135.586 63.597C136.004 63.3057 136.213 62.9383 136.213 62.495C136.213 62.2163 136.137 62.0137 135.985 61.887C135.833 61.7477 135.58 61.678 135.225 61.678C134.731 61.678 134.281 61.8427 133.876 62.172C133.483 62.5013 133.173 62.97 132.945 63.578C132.73 64.1733 132.616 64.8827 132.603 65.706C132.603 66.2127 132.673 66.618 132.812 66.922C132.951 67.226 133.173 67.4413 133.477 67.568C133.794 67.6947 134.199 67.758 134.693 67.758C134.934 67.758 135.206 67.739 135.51 67.701C135.814 67.663 136.143 67.606 136.498 67.53C136.865 67.4413 137.233 67.3273 137.6 67.188L137.961 69.525C137.378 69.753 136.758 69.9177 136.099 70.019C135.44 70.133 134.794 70.19 134.161 70.19C133.211 70.19 132.407 70.0317 131.748 69.715C131.089 69.3857 130.583 68.9107 130.228 68.29C129.886 67.6693 129.715 66.9283 129.715 66.067C129.715 65.1297 129.842 64.262 130.095 63.464C130.348 62.666 130.722 61.9693 131.216 61.374C131.723 60.7787 132.343 60.3163 133.078 59.987C133.825 59.645 134.687 59.474 135.662 59.474C136.359 59.474 136.96 59.5817 137.467 59.797C137.986 60.0123 138.385 60.3163 138.664 60.709C138.943 61.089 139.082 61.5513 139.082 62.096C139.082 63.0713 138.689 63.901 137.904 64.585C137.119 65.2563 136.029 65.6997 134.636 65.915C134.129 65.991 133.648 66.0353 133.192 66.048C132.749 66.0607 132.324 66.0543 131.919 66.029L132.09 64.319ZM142.955 59.664L142.765 60.861C143.145 60.5317 143.493 60.2657 143.81 60.063C144.126 59.8603 144.424 59.7147 144.703 59.626C144.981 59.5247 145.273 59.474 145.577 59.474C145.792 59.474 146.001 59.493 146.204 59.531C146.419 59.5563 146.622 59.607 146.812 59.683L145.957 62.495C145.741 62.4317 145.526 62.3873 145.311 62.362C145.108 62.3367 144.918 62.324 144.741 62.324C144.437 62.324 144.12 62.3747 143.791 62.476C143.474 62.5773 143.113 62.7673 142.708 63.046L141.587 70H138.699L140.352 59.664H142.955ZM153.579 70.19C153.3 70.19 153.034 70.152 152.781 70.076C152.54 70 152.319 69.886 152.116 69.734C151.926 69.5693 151.768 69.3793 151.641 69.164C151.375 69.3793 151.084 69.563 150.767 69.715C150.463 69.867 150.14 69.981 149.798 70.057C149.469 70.1457 149.12 70.19 148.753 70.19C148.132 70.19 147.594 70.057 147.138 69.791C146.682 69.5123 146.321 69.1007 146.055 68.556C145.802 68.0113 145.675 67.3337 145.675 66.523C145.675 64.9903 145.909 63.7047 146.378 62.666C146.859 61.6147 147.537 60.823 148.411 60.291C149.298 59.7463 150.349 59.474 151.565 59.474C151.92 59.474 152.287 59.493 152.667 59.531C153.047 59.569 153.414 59.6197 153.769 59.683C154.136 59.7463 154.478 59.816 154.795 59.892C155.124 59.968 155.416 60.0503 155.669 60.139C155.479 61.317 155.314 62.3177 155.175 63.141C155.048 63.9517 154.941 64.6167 154.852 65.136C154.776 65.6553 154.713 66.0607 154.662 66.352C154.611 66.6433 154.573 66.8587 154.548 66.998C154.535 67.1247 154.529 67.2007 154.529 67.226C154.529 67.378 154.561 67.492 154.624 67.568C154.687 67.644 154.789 67.682 154.928 67.682C154.979 67.682 155.036 67.682 155.099 67.682C155.175 67.6693 155.245 67.6503 155.308 67.625L155.156 69.867C154.966 69.9557 154.725 70.0317 154.434 70.095C154.155 70.1583 153.87 70.19 153.579 70.19ZM151.584 67.264L152.42 61.982C152.255 61.906 152.072 61.8553 151.869 61.83C151.679 61.8047 151.476 61.792 151.261 61.792C150.78 61.792 150.336 61.982 149.931 62.362C149.538 62.7293 149.228 63.236 149 63.882C148.772 64.528 148.658 65.25 148.658 66.048C148.658 66.5927 148.778 67.0043 149.019 67.283C149.272 67.5617 149.595 67.701 149.988 67.701C150.165 67.701 150.349 67.682 150.539 67.644C150.729 67.606 150.913 67.5553 151.09 67.492C151.28 67.416 151.445 67.34 151.584 67.264ZM163.684 70.19C163.392 70.19 163.12 70.152 162.867 70.076C162.613 70 162.392 69.886 162.202 69.734C162.012 69.5693 161.853 69.3857 161.727 69.183C161.486 69.373 161.207 69.544 160.891 69.696C160.587 69.848 160.264 69.9683 159.922 70.057C159.58 70.1457 159.231 70.19 158.877 70.19C158.256 70.19 157.711 70.0633 157.243 69.81C156.787 69.544 156.426 69.1387 156.16 68.594C155.906 68.0493 155.78 67.359 155.78 66.523C155.78 65.3957 155.913 64.4013 156.179 63.54C156.445 62.666 156.818 61.9313 157.3 61.336C157.781 60.728 158.332 60.2657 158.953 59.949C159.586 59.6323 160.27 59.474 161.005 59.474C161.372 59.474 161.708 59.4993 162.012 59.55C162.328 59.6007 162.613 59.6703 162.867 59.759L163.475 55.94H166.382C166.344 56.206 166.287 56.5733 166.211 57.042C166.147 57.498 166.065 58.0173 165.964 58.6C165.875 59.17 165.78 59.778 165.679 60.424C165.577 61.0573 165.476 61.6907 165.375 62.324C165.286 62.9573 165.191 63.5653 165.09 64.148C165.001 64.7307 164.919 65.25 164.843 65.706C164.779 66.162 164.729 66.5293 164.691 66.808C164.653 67.0867 164.634 67.245 164.634 67.283C164.634 67.4097 164.659 67.511 164.71 67.587C164.773 67.6503 164.874 67.682 165.014 67.682C165.077 67.682 165.14 67.682 165.204 67.682C165.267 67.6693 165.33 67.6503 165.394 67.625L165.242 69.867C165.039 69.9683 164.792 70.0443 164.501 70.095C164.209 70.1583 163.937 70.19 163.684 70.19ZM160.055 67.682C160.321 67.682 160.599 67.644 160.891 67.568C161.182 67.492 161.442 67.3907 161.67 67.264L162.525 61.963C162.347 61.8997 162.157 61.8553 161.955 61.83C161.765 61.8047 161.556 61.792 161.328 61.792C160.96 61.792 160.612 61.9123 160.283 62.153C159.966 62.3937 159.694 62.7293 159.466 63.16C159.238 63.578 159.054 64.0593 158.915 64.604C158.788 65.136 158.725 65.6933 158.725 66.276C158.725 66.5673 158.782 66.8207 158.896 67.036C159.01 67.2513 159.168 67.416 159.371 67.53C159.573 67.6313 159.801 67.682 160.055 67.682ZM170.292 70.19C169.342 70.19 168.544 70.0443 167.898 69.753C167.265 69.449 166.784 69.0057 166.454 68.423C166.125 67.8277 165.96 67.0803 165.96 66.181C165.96 65.5857 165.998 65.0093 166.074 64.452C166.163 63.8947 166.29 63.369 166.454 62.875C166.632 62.3683 166.853 61.9123 167.119 61.507C167.398 61.089 167.721 60.728 168.088 60.424C168.468 60.1073 168.899 59.8667 169.38 59.702C169.862 59.5373 170.4 59.455 170.995 59.455C171.895 59.455 172.655 59.607 173.275 59.911C173.909 60.2023 174.39 60.6457 174.719 61.241C175.061 61.8363 175.232 62.5837 175.232 63.483C175.232 64.091 175.188 64.68 175.099 65.25C175.011 65.82 174.878 66.352 174.7 66.846C174.536 67.34 174.32 67.796 174.054 68.214C173.788 68.6193 173.472 68.974 173.104 69.278C172.75 69.5693 172.332 69.7973 171.85 69.962C171.382 70.114 170.862 70.19 170.292 70.19ZM170.254 67.929C170.508 67.9163 170.736 67.8403 170.938 67.701C171.141 67.5617 171.318 67.3717 171.47 67.131C171.622 66.8903 171.749 66.6117 171.85 66.295C171.964 65.9783 172.053 65.6427 172.116 65.288C172.192 64.9333 172.243 64.5723 172.268 64.205C172.294 63.8377 172.306 63.4893 172.306 63.16C172.294 62.6533 172.161 62.286 171.907 62.058C171.654 61.83 171.325 61.716 170.919 61.716C170.666 61.716 170.438 61.792 170.235 61.944C170.033 62.096 169.849 62.2987 169.684 62.552C169.532 62.7927 169.399 63.0713 169.285 63.388C169.184 63.7047 169.095 64.0403 169.019 64.395C168.956 64.737 168.912 65.079 168.886 65.421C168.861 65.763 168.848 66.0923 168.848 66.409C168.861 66.9537 168.988 67.3463 169.228 67.587C169.482 67.815 169.824 67.929 170.254 67.929ZM174.729 69.544L175.432 67.34C175.71 67.454 176.033 67.5617 176.401 67.663C176.781 67.7517 177.167 67.8277 177.56 67.891C177.952 67.9417 178.313 67.967 178.643 67.967C179.023 67.967 179.327 67.929 179.555 67.853C179.783 67.777 179.947 67.6757 180.049 67.549C180.15 67.4097 180.201 67.2513 180.201 67.074C180.201 66.8713 180.118 66.7003 179.954 66.561C179.802 66.4217 179.593 66.3013 179.327 66.2C179.073 66.0987 178.795 65.9973 178.491 65.896C178.187 65.7947 177.876 65.6743 177.56 65.535C177.256 65.383 176.971 65.1993 176.705 64.984C176.451 64.7687 176.242 64.4963 176.078 64.167C175.926 63.8377 175.85 63.4323 175.85 62.951C175.85 62.3937 175.945 61.906 176.135 61.488C176.337 61.0573 176.629 60.6963 177.009 60.405C177.401 60.101 177.883 59.873 178.453 59.721C179.023 59.5563 179.675 59.474 180.41 59.474C181.03 59.474 181.607 59.5247 182.139 59.626C182.671 59.7273 183.139 59.854 183.545 60.006L182.861 62.21C182.595 62.1213 182.303 62.0453 181.987 61.982C181.67 61.906 181.353 61.849 181.037 61.811C180.72 61.773 180.422 61.754 180.144 61.754C179.789 61.754 179.498 61.792 179.27 61.868C179.054 61.944 178.896 62.0453 178.795 62.172C178.706 62.2987 178.662 62.4507 178.662 62.628C178.662 62.818 178.738 62.9763 178.89 63.103C179.054 63.217 179.263 63.3183 179.517 63.407C179.783 63.4957 180.068 63.5907 180.372 63.692C180.688 63.7933 180.999 63.9137 181.303 64.053C181.619 64.1923 181.904 64.3697 182.158 64.585C182.424 64.8003 182.633 65.0727 182.785 65.402C182.937 65.7187 183.013 66.1177 183.013 66.599C183.013 67.131 182.937 67.5997 182.785 68.005C182.645 68.3977 182.436 68.7333 182.158 69.012C181.892 69.2907 181.569 69.5187 181.189 69.696C180.821 69.8607 180.41 69.981 179.954 70.057C179.498 70.1457 179.01 70.19 178.491 70.19C177.718 70.19 177.028 70.1267 176.42 70C175.824 69.886 175.261 69.734 174.729 69.544Z" fill="#363636"/>
</g>
<defs>
<filter id="filter0_d_983_1950" x="0" y="0" width="212.798" height="114" filterUnits="userSpaceOnUse" color-interpolation-filters="sRGB">
<feFlood flood-opacity="0" result="BackgroundImageFix"/>
<feColorMatrix in="SourceAlpha" type="matrix" values="0 0 0 0 0 0 0 0 0 0 0 0 0 0 0 0 0 0 127 0" result="hardAlpha"/>
<feMorphology radius="2" operator="erode" in="SourceAlpha" result="effect1_dropShadow_983_1950"/>
<feOffset dy="2"/>
<feGaussianBlur stdDeviation="4"/>
<feComposite in2="hardAlpha" operator="out"/>
<feColorMatrix type="matrix" values="0 0 0 0 0.133333 0 0 0 0 0.133333 0 0 0 0 0.133333 0 0 0 0.4 0"/>
<feBlend mode="normal" in2="BackgroundImageFix" result="effect1_dropShadow_983_1950"/>
<feBlend mode="normal" in="SourceGraphic" in2="effect1_dropShadow_983_1950" result="shape"/>
</filter>
</defs>
</svg>
