<svg width="213" height="114" viewBox="0 0 213 114" fill="none" xmlns="http://www.w3.org/2000/svg">
<g filter="url(#filter0_d_983_1956)">
<rect x="6" y="4" width="200.798" height="102" rx="10" fill="#FF627F"/>
<path d="M49.4049 65.3038L39.7626 55.6615L42.9767 52.4473L49.4049 58.8756L62.2614 46.0191L65.4755 49.2332L49.4049 65.3038Z" fill="#363636"/>
<path fill-rule="evenodd" clip-rule="evenodd" d="M28.3989 55.5C28.3989 41.6929 39.5918 30.5 53.3989 30.5C67.206 30.5 78.3989 41.6929 78.3989 55.5C78.3989 69.3071 67.206 80.5 53.3989 80.5C39.5918 80.5 28.3989 69.3071 28.3989 55.5ZM53.3989 75.9545C42.1022 75.9545 32.9444 66.7967 32.9444 55.5C32.9444 44.2033 42.1022 35.0455 53.3989 35.0455C64.6957 35.0455 73.8535 44.2033 73.8535 55.5C73.8535 66.7967 64.6957 75.9545 53.3989 75.9545Z" fill="#363636"/>
<path d="M89.9339 52L94.8839 41.38H96.3539L98.0189 52H96.6989L96.2939 49.255H92.5289L91.2539 52H89.9339ZM92.9189 48.265H96.2189L95.4539 42.58L92.9189 48.265ZM101.472 52.15C100.832 52.15 100.292 52.04 99.8524 51.82C99.4124 51.6 99.0774 51.285 98.8474 50.875C98.6274 50.465 98.5174 49.97 98.5174 49.39C98.5174 48.58 98.6124 47.835 98.8024 47.155C98.9924 46.465 99.2724 45.87 99.6424 45.37C100.012 44.87 100.457 44.485 100.977 44.215C101.497 43.945 102.082 43.81 102.732 43.81C102.972 43.81 103.212 43.82 103.452 43.84C103.692 43.86 103.932 43.89 104.172 43.93C104.412 43.97 104.642 44.03 104.862 44.11L104.517 45.1C104.187 45.01 103.872 44.95 103.572 44.92C103.282 44.88 102.987 44.86 102.687 44.86C102.247 44.86 101.847 44.97 101.487 45.19C101.127 45.41 100.812 45.72 100.542 46.12C100.272 46.52 100.062 46.985 99.9124 47.515C99.7624 48.035 99.6874 48.595 99.6874 49.195C99.6874 49.605 99.7724 49.955 99.9424 50.245C100.122 50.525 100.367 50.74 100.677 50.89C100.987 51.04 101.357 51.115 101.787 51.115C102.027 51.115 102.257 51.105 102.477 51.085C102.697 51.065 102.907 51.035 103.107 50.995C103.317 50.955 103.517 50.905 103.707 50.845L103.827 51.79C103.607 51.86 103.372 51.925 103.122 51.985C102.872 52.035 102.607 52.075 102.327 52.105C102.057 52.135 101.772 52.15 101.472 52.15ZM105.419 47.68C105.709 47.7 106.014 47.7 106.334 47.68C106.664 47.65 106.984 47.61 107.294 47.56C108.104 47.43 108.734 47.215 109.184 46.915C109.644 46.605 109.874 46.205 109.874 45.715C109.874 45.395 109.764 45.155 109.544 44.995C109.334 44.825 109.009 44.74 108.569 44.74C107.999 44.74 107.489 44.92 107.039 45.28C106.589 45.63 106.239 46.12 105.989 46.75C105.739 47.37 105.614 48.095 105.614 48.925C105.614 49.405 105.689 49.815 105.839 50.155C105.999 50.485 106.229 50.735 106.529 50.905C106.839 51.065 107.214 51.145 107.654 51.145C107.884 51.145 108.124 51.125 108.374 51.085C108.634 51.045 108.899 50.99 109.169 50.92C109.449 50.85 109.729 50.76 110.009 50.65L110.189 51.61C109.789 51.78 109.349 51.91 108.869 52C108.399 52.1 107.929 52.15 107.459 52.15C106.819 52.15 106.274 52.03 105.824 51.79C105.374 51.54 105.029 51.185 104.789 50.725C104.559 50.255 104.444 49.695 104.444 49.045C104.444 48.275 104.539 47.57 104.729 46.93C104.929 46.29 105.214 45.74 105.584 45.28C105.964 44.81 106.419 44.45 106.949 44.2C107.489 43.94 108.099 43.81 108.779 43.81C109.239 43.81 109.639 43.88 109.979 44.02C110.319 44.16 110.579 44.36 110.759 44.62C110.949 44.88 111.044 45.19 111.044 45.55C111.044 46.28 110.734 46.89 110.114 47.38C109.504 47.87 108.654 48.205 107.564 48.385C107.164 48.455 106.774 48.5 106.394 48.52C106.014 48.53 105.659 48.525 105.329 48.505L105.419 47.68ZM110.444 51.67L110.759 50.725C110.969 50.805 111.209 50.885 111.479 50.965C111.749 51.035 112.034 51.095 112.334 51.145C112.634 51.185 112.929 51.205 113.219 51.205C113.689 51.205 114.069 51.15 114.359 51.04C114.659 50.93 114.879 50.78 115.019 50.59C115.159 50.39 115.229 50.165 115.229 49.915C115.229 49.655 115.159 49.44 115.019 49.27C114.889 49.1 114.709 48.95 114.479 48.82C114.259 48.69 114.014 48.575 113.744 48.475C113.484 48.365 113.219 48.25 112.949 48.13C112.689 48 112.444 47.85 112.214 47.68C111.994 47.51 111.814 47.3 111.674 47.05C111.544 46.79 111.479 46.48 111.479 46.12C111.479 45.77 111.539 45.455 111.659 45.175C111.789 44.895 111.984 44.655 112.244 44.455C112.504 44.245 112.834 44.085 113.234 43.975C113.634 43.865 114.104 43.81 114.644 43.81C115.054 43.81 115.454 43.845 115.844 43.915C116.234 43.985 116.569 44.08 116.849 44.2L116.549 45.13C116.359 45.06 116.149 45 115.919 44.95C115.699 44.89 115.469 44.845 115.229 44.815C114.999 44.775 114.764 44.755 114.524 44.755C114.074 44.755 113.709 44.81 113.429 44.92C113.149 45.03 112.944 45.18 112.814 45.37C112.684 45.55 112.619 45.76 112.619 46C112.619 46.25 112.684 46.46 112.814 46.63C112.954 46.79 113.134 46.935 113.354 47.065C113.584 47.185 113.829 47.3 114.089 47.41C114.359 47.51 114.624 47.625 114.884 47.755C115.154 47.875 115.399 48.02 115.619 48.19C115.849 48.36 116.029 48.57 116.159 48.82C116.299 49.07 116.369 49.375 116.369 49.735C116.369 50.055 116.324 50.345 116.234 50.605C116.144 50.855 116.009 51.075 115.829 51.265C115.649 51.455 115.429 51.62 115.169 51.76C114.909 51.89 114.609 51.985 114.269 52.045C113.929 52.115 113.549 52.15 113.129 52.15C112.579 52.15 112.079 52.105 111.629 52.015C111.189 51.925 110.794 51.81 110.444 51.67ZM116.253 51.67L116.568 50.725C116.778 50.805 117.018 50.885 117.288 50.965C117.558 51.035 117.843 51.095 118.143 51.145C118.443 51.185 118.738 51.205 119.028 51.205C119.498 51.205 119.878 51.15 120.168 51.04C120.468 50.93 120.688 50.78 120.828 50.59C120.968 50.39 121.038 50.165 121.038 49.915C121.038 49.655 120.968 49.44 120.828 49.27C120.698 49.1 120.518 48.95 120.288 48.82C120.068 48.69 119.823 48.575 119.553 48.475C119.293 48.365 119.028 48.25 118.758 48.13C118.498 48 118.253 47.85 118.023 47.68C117.803 47.51 117.623 47.3 117.483 47.05C117.353 46.79 117.288 46.48 117.288 46.12C117.288 45.77 117.348 45.455 117.468 45.175C117.598 44.895 117.793 44.655 118.053 44.455C118.313 44.245 118.643 44.085 119.043 43.975C119.443 43.865 119.913 43.81 120.453 43.81C120.863 43.81 121.263 43.845 121.653 43.915C122.043 43.985 122.378 44.08 122.658 44.2L122.358 45.13C122.168 45.06 121.958 45 121.728 44.95C121.508 44.89 121.278 44.845 121.038 44.815C120.808 44.775 120.573 44.755 120.333 44.755C119.883 44.755 119.518 44.81 119.238 44.92C118.958 45.03 118.753 45.18 118.623 45.37C118.493 45.55 118.428 45.76 118.428 46C118.428 46.25 118.493 46.46 118.623 46.63C118.763 46.79 118.943 46.935 119.163 47.065C119.393 47.185 119.638 47.3 119.898 47.41C120.168 47.51 120.433 47.625 120.693 47.755C120.963 47.875 121.208 48.02 121.428 48.19C121.658 48.36 121.838 48.57 121.968 48.82C122.108 49.07 122.178 49.375 122.178 49.735C122.178 50.055 122.133 50.345 122.043 50.605C121.953 50.855 121.818 51.075 121.638 51.265C121.458 51.455 121.238 51.62 120.978 51.76C120.718 51.89 120.418 51.985 120.078 52.045C119.738 52.115 119.358 52.15 118.938 52.15C118.388 52.15 117.888 52.105 117.438 52.015C116.998 51.925 116.603 51.81 116.253 51.67ZM125.615 52.15C124.985 52.15 124.46 52.05 124.04 51.85C123.62 51.64 123.3 51.325 123.08 50.905C122.86 50.485 122.75 49.955 122.75 49.315C122.75 48.845 122.78 48.39 122.84 47.95C122.91 47.5 123.01 47.07 123.14 46.66C123.27 46.24 123.435 45.86 123.635 45.52C123.835 45.17 124.07 44.865 124.34 44.605C124.61 44.345 124.915 44.145 125.255 44.005C125.605 43.865 125.985 43.795 126.395 43.795C126.995 43.795 127.505 43.9 127.925 44.11C128.345 44.32 128.665 44.64 128.885 45.07C129.115 45.49 129.23 46.02 129.23 46.66C129.23 47.15 129.195 47.625 129.125 48.085C129.065 48.535 128.97 48.965 128.84 49.375C128.71 49.785 128.545 50.16 128.345 50.5C128.155 50.84 127.925 51.135 127.655 51.385C127.395 51.625 127.095 51.815 126.755 51.955C126.415 52.085 126.035 52.15 125.615 52.15ZM125.57 51.205C125.85 51.205 126.105 51.145 126.335 51.025C126.575 50.895 126.785 50.725 126.965 50.515C127.145 50.295 127.305 50.04 127.445 49.75C127.585 49.46 127.7 49.145 127.79 48.805C127.88 48.455 127.945 48.095 127.985 47.725C128.035 47.355 128.06 46.98 128.06 46.6C128.06 45.97 127.91 45.505 127.61 45.205C127.32 44.895 126.92 44.74 126.41 44.74C126.13 44.74 125.875 44.805 125.645 44.935C125.415 45.065 125.205 45.245 125.015 45.475C124.825 45.695 124.66 45.955 124.52 46.255C124.39 46.545 124.275 46.86 124.175 47.2C124.085 47.54 124.015 47.89 123.965 48.25C123.925 48.6 123.905 48.95 123.905 49.3C123.905 49.96 124.045 50.445 124.325 50.755C124.615 51.055 125.03 51.205 125.57 51.205ZM96.8399 70.19C95.5986 70.19 94.5473 70.019 93.6859 69.677C92.8373 69.335 92.1913 68.8093 91.7479 68.1C91.3173 67.3907 91.1019 66.485 91.1019 65.383C91.1019 64.0277 91.2603 62.8053 91.5769 61.716C91.8936 60.6267 92.3496 59.6957 92.9449 58.923C93.5529 58.1503 94.2813 57.555 95.1299 57.137C95.9913 56.719 96.9603 56.51 98.0369 56.51C98.5056 56.51 98.9616 56.529 99.4049 56.567C99.8483 56.605 100.285 56.6747 100.716 56.776C101.159 56.8647 101.584 56.9977 101.989 57.175L101.229 59.512C100.938 59.4233 100.627 59.3473 100.298 59.284C99.9686 59.2207 99.6266 59.17 99.2719 59.132C98.9299 59.0813 98.5816 59.056 98.2269 59.056C97.5809 59.056 97.0109 59.2017 96.5169 59.493C96.0229 59.7843 95.6049 60.2023 95.2629 60.747C94.9209 61.279 94.6549 61.906 94.4649 62.628C94.2876 63.35 94.1989 64.129 94.1989 64.965C94.1989 65.6363 94.3256 66.1683 94.5789 66.561C94.8323 66.941 95.1933 67.2197 95.6619 67.397C96.1433 67.5617 96.7259 67.644 97.4099 67.644C97.9039 67.644 98.3789 67.6123 98.8349 67.549C99.2909 67.473 99.7406 67.3907 100.184 67.302L100.374 69.734C99.8039 69.886 99.2339 70 98.6639 70.076C98.0939 70.152 97.4859 70.19 96.8399 70.19ZM105.199 70.19C104.249 70.19 103.451 70.0443 102.805 69.753C102.172 69.449 101.69 69.0057 101.361 68.423C101.032 67.8277 100.867 67.0803 100.867 66.181C100.867 65.5857 100.905 65.0093 100.981 64.452C101.07 63.8947 101.196 63.369 101.361 62.875C101.538 62.3683 101.76 61.9123 102.026 61.507C102.305 61.089 102.628 60.728 102.995 60.424C103.375 60.1073 103.806 59.8667 104.287 59.702C104.768 59.5373 105.307 59.455 105.902 59.455C106.801 59.455 107.561 59.607 108.182 59.911C108.815 60.2023 109.297 60.6457 109.626 61.241C109.968 61.8363 110.139 62.5837 110.139 63.483C110.139 64.091 110.095 64.68 110.006 65.25C109.917 65.82 109.784 66.352 109.607 66.846C109.442 67.34 109.227 67.796 108.961 68.214C108.695 68.6193 108.378 68.974 108.011 69.278C107.656 69.5693 107.238 69.7973 106.757 69.962C106.288 70.114 105.769 70.19 105.199 70.19ZM105.161 67.929C105.414 67.9163 105.642 67.8403 105.845 67.701C106.048 67.5617 106.225 67.3717 106.377 67.131C106.529 66.8903 106.656 66.6117 106.757 66.295C106.871 65.9783 106.96 65.6427 107.023 65.288C107.099 64.9333 107.15 64.5723 107.175 64.205C107.2 63.8377 107.213 63.4893 107.213 63.16C107.2 62.6533 107.067 62.286 106.814 62.058C106.561 61.83 106.231 61.716 105.826 61.716C105.573 61.716 105.345 61.792 105.142 61.944C104.939 62.096 104.756 62.2987 104.591 62.552C104.439 62.7927 104.306 63.0713 104.192 63.388C104.091 63.7047 104.002 64.0403 103.926 64.395C103.863 64.737 103.818 65.079 103.793 65.421C103.768 65.763 103.755 66.0923 103.755 66.409C103.768 66.9537 103.894 67.3463 104.135 67.587C104.388 67.815 104.73 67.929 105.161 67.929ZM111.817 59.664H114.477L114.344 60.557C114.699 60.3163 115.054 60.12 115.408 59.968C115.776 59.8033 116.143 59.683 116.51 59.607C116.878 59.5183 117.251 59.474 117.631 59.474C118.417 59.474 119.018 59.6703 119.436 60.063C119.854 60.4557 120.063 60.994 120.063 61.678C120.063 61.792 120.038 62.001 119.987 62.305C119.949 62.5963 119.899 62.9383 119.835 63.331C119.772 63.7237 119.702 64.1353 119.626 64.566C119.563 64.984 119.5 65.3893 119.436 65.782C119.373 66.162 119.316 66.4913 119.265 66.77C119.227 67.036 119.208 67.207 119.208 67.283C119.208 67.4097 119.24 67.511 119.303 67.587C119.379 67.6503 119.481 67.682 119.607 67.682C119.671 67.682 119.734 67.682 119.797 67.682C119.873 67.6693 119.937 67.6503 119.987 67.625L119.835 69.886C119.633 69.9747 119.379 70.0443 119.075 70.095C118.784 70.1583 118.505 70.19 118.239 70.19C117.834 70.19 117.473 70.1203 117.156 69.981C116.852 69.829 116.612 69.6263 116.434 69.373C116.27 69.107 116.187 68.803 116.187 68.461C116.187 68.309 116.206 68.0873 116.244 67.796C116.282 67.492 116.327 67.15 116.377 66.77C116.441 66.3773 116.51 65.972 116.586 65.554C116.662 65.136 116.726 64.7433 116.776 64.376C116.84 63.996 116.89 63.6667 116.928 63.388C116.966 63.1093 116.985 62.9193 116.985 62.818C116.985 62.552 116.909 62.343 116.757 62.191C116.618 62.039 116.384 61.963 116.054 61.963C115.877 61.963 115.687 61.9883 115.484 62.039C115.282 62.077 115.079 62.1403 114.876 62.229C114.686 62.305 114.496 62.3937 114.306 62.495L113.09 70H110.183L111.817 59.664ZM119.721 69.544L120.424 67.34C120.703 67.454 121.026 67.5617 121.393 67.663C121.773 67.7517 122.16 67.8277 122.552 67.891C122.945 67.9417 123.306 67.967 123.635 67.967C124.015 67.967 124.319 67.929 124.547 67.853C124.775 67.777 124.94 67.6757 125.041 67.549C125.143 67.4097 125.193 67.2513 125.193 67.074C125.193 66.8713 125.111 66.7003 124.946 66.561C124.794 66.4217 124.585 66.3013 124.319 66.2C124.066 66.0987 123.787 65.9973 123.483 65.896C123.179 65.7947 122.869 65.6743 122.552 65.535C122.248 65.383 121.963 65.1993 121.697 64.984C121.444 64.7687 121.235 64.4963 121.07 64.167C120.918 63.8377 120.842 63.4323 120.842 62.951C120.842 62.3937 120.937 61.906 121.127 61.488C121.33 61.0573 121.621 60.6963 122.001 60.405C122.394 60.101 122.875 59.873 123.445 59.721C124.015 59.5563 124.668 59.474 125.402 59.474C126.023 59.474 126.599 59.5247 127.131 59.626C127.663 59.7273 128.132 59.854 128.537 60.006L127.853 62.21C127.587 62.1213 127.296 62.0453 126.979 61.982C126.663 61.906 126.346 61.849 126.029 61.811C125.713 61.773 125.415 61.754 125.136 61.754C124.782 61.754 124.49 61.792 124.262 61.868C124.047 61.944 123.889 62.0453 123.787 62.172C123.699 62.2987 123.654 62.4507 123.654 62.628C123.654 62.818 123.73 62.9763 123.882 63.103C124.047 63.217 124.256 63.3183 124.509 63.407C124.775 63.4957 125.06 63.5907 125.364 63.692C125.681 63.7933 125.991 63.9137 126.295 64.053C126.612 64.1923 126.897 64.3697 127.15 64.585C127.416 64.8003 127.625 65.0727 127.777 65.402C127.929 65.7187 128.005 66.1177 128.005 66.599C128.005 67.131 127.929 67.5997 127.777 68.005C127.638 68.3977 127.429 68.7333 127.15 69.012C126.884 69.2907 126.561 69.5187 126.181 69.696C125.814 69.8607 125.402 69.981 124.946 70.057C124.49 70.1457 124.003 70.19 123.483 70.19C122.711 70.19 122.02 70.1267 121.412 70C120.817 69.886 120.253 69.734 119.721 69.544ZM130.979 70.19C130.156 70.19 129.529 69.9937 129.098 69.601C128.68 69.2083 128.471 68.6827 128.471 68.024C128.471 67.8593 128.484 67.6567 128.509 67.416C128.535 67.1753 128.579 66.865 128.642 66.485C128.706 66.0923 128.782 65.5983 128.87 65.003C128.972 64.395 129.092 63.654 129.231 62.78C129.383 61.906 129.554 60.8673 129.744 59.664H132.632C132.48 60.6013 132.347 61.4183 132.233 62.115C132.132 62.8117 132.037 63.407 131.948 63.901C131.872 64.395 131.803 64.8257 131.739 65.193C131.689 65.5477 131.644 65.858 131.606 66.124C131.568 66.39 131.537 66.637 131.511 66.865C131.511 67.131 131.587 67.34 131.739 67.492C131.891 67.644 132.113 67.72 132.404 67.72C132.607 67.72 132.803 67.701 132.993 67.663C133.183 67.625 133.373 67.568 133.563 67.492C133.753 67.4033 133.943 67.3083 134.133 67.207L135.33 59.664H138.218C137.99 61.0953 137.8 62.2733 137.648 63.198C137.496 64.1227 137.376 64.851 137.287 65.383C137.211 65.915 137.154 66.3077 137.116 66.561C137.078 66.8143 137.053 66.979 137.04 67.055C137.04 67.131 137.04 67.1817 137.04 67.207C137.04 67.3843 137.072 67.5173 137.135 67.606C137.211 67.682 137.306 67.72 137.42 67.72C137.458 67.72 137.509 67.7137 137.572 67.701C137.648 67.6883 137.731 67.6693 137.819 67.644L137.667 69.677C137.439 69.8417 137.167 69.9683 136.85 70.057C136.546 70.1457 136.249 70.19 135.957 70.19C135.514 70.19 135.128 70.0823 134.798 69.867C134.482 69.639 134.266 69.3477 134.152 68.993C133.798 69.259 133.443 69.4807 133.088 69.658C132.746 69.8353 132.398 69.9683 132.043 70.057C131.689 70.1457 131.334 70.19 130.979 70.19ZM140.272 55.94H143.179L141.507 66.447C141.494 66.5483 141.481 66.6497 141.469 66.751C141.456 66.8397 141.45 66.9283 141.45 67.017C141.45 67.1183 141.469 67.2133 141.507 67.302C141.545 67.3907 141.608 67.4603 141.697 67.511C141.785 67.549 141.893 67.568 142.02 67.568C142.159 67.568 142.292 67.5553 142.419 67.53C142.558 67.5047 142.716 67.473 142.894 67.435L142.761 69.753C142.431 69.8797 142.064 69.981 141.659 70.057C141.266 70.1457 140.873 70.19 140.481 70.19C139.771 70.19 139.246 70.0253 138.904 69.696C138.562 69.354 138.391 68.8537 138.391 68.195C138.391 68.043 138.397 67.8847 138.41 67.72C138.435 67.5427 138.46 67.3717 138.486 67.207L140.272 55.94ZM148.909 67.397L148.757 69.696C148.301 69.8607 147.852 69.981 147.408 70.057C146.978 70.1457 146.528 70.19 146.059 70.19C145.603 70.19 145.192 70.1203 144.824 69.981C144.457 69.8417 144.166 69.6073 143.95 69.278C143.735 68.9487 143.627 68.4927 143.627 67.91C143.627 67.72 143.64 67.492 143.665 67.226C143.691 66.9473 143.722 66.6813 143.76 66.428L144.482 61.906H143.152L143.513 59.854L144.9 59.664L145.603 57.46H148.13L147.769 59.664H150.182L149.802 61.925H147.389L146.705 66.219C146.68 66.3203 146.661 66.4153 146.648 66.504C146.648 66.58 146.648 66.6623 146.648 66.751C146.648 67.0297 146.718 67.245 146.857 67.397C147.009 67.549 147.256 67.625 147.598 67.625C147.788 67.625 147.985 67.606 148.187 67.568C148.403 67.5173 148.643 67.4603 148.909 67.397ZM153.897 70.19C152.947 70.19 152.149 70.0443 151.503 69.753C150.869 69.449 150.388 69.0057 150.059 68.423C149.729 67.8277 149.565 67.0803 149.565 66.181C149.565 65.5857 149.603 65.0093 149.679 64.452C149.767 63.8947 149.894 63.369 150.059 62.875C150.236 62.3683 150.458 61.9123 150.724 61.507C151.002 61.089 151.325 60.728 151.693 60.424C152.073 60.1073 152.503 59.8667 152.985 59.702C153.466 59.5373 154.004 59.455 154.6 59.455C155.499 59.455 156.259 59.607 156.88 59.911C157.513 60.2023 157.994 60.6457 158.324 61.241C158.666 61.8363 158.837 62.5837 158.837 63.483C158.837 64.091 158.792 64.68 158.704 65.25C158.615 65.82 158.482 66.352 158.305 66.846C158.14 67.34 157.925 67.796 157.659 68.214C157.393 68.6193 157.076 68.974 156.709 69.278C156.354 69.5693 155.936 69.7973 155.455 69.962C154.986 70.114 154.467 70.19 153.897 70.19ZM153.859 67.929C154.112 67.9163 154.34 67.8403 154.543 67.701C154.745 67.5617 154.923 67.3717 155.075 67.131C155.227 66.8903 155.353 66.6117 155.455 66.295C155.569 65.9783 155.657 65.6427 155.721 65.288C155.797 64.9333 155.847 64.5723 155.873 64.205C155.898 63.8377 155.911 63.4893 155.911 63.16C155.898 62.6533 155.765 62.286 155.512 62.058C155.258 61.83 154.929 61.716 154.524 61.716C154.27 61.716 154.042 61.792 153.84 61.944C153.637 62.096 153.453 62.2987 153.289 62.552C153.137 62.7927 153.004 63.0713 152.89 63.388C152.788 63.7047 152.7 64.0403 152.624 64.395C152.56 64.737 152.516 65.079 152.491 65.421C152.465 65.763 152.453 66.0923 152.453 66.409C152.465 66.9537 152.592 67.3463 152.833 67.587C153.086 67.815 153.428 67.929 153.859 67.929ZM163.137 59.664L162.947 60.861C163.327 60.5317 163.675 60.2657 163.992 60.063C164.309 59.8603 164.606 59.7147 164.885 59.626C165.164 59.5247 165.455 59.474 165.759 59.474C165.974 59.474 166.183 59.493 166.386 59.531C166.601 59.5563 166.804 59.607 166.994 59.683L166.139 62.495C165.924 62.4317 165.708 62.3873 165.493 62.362C165.29 62.3367 165.1 62.324 164.923 62.324C164.619 62.324 164.302 62.3747 163.973 62.476C163.656 62.5773 163.295 62.7673 162.89 63.046L161.769 70H158.881L160.534 59.664H163.137ZM168.177 64.319C168.43 64.3443 168.709 64.3443 169.013 64.319C169.33 64.2937 169.634 64.262 169.925 64.224C170.672 64.0973 171.255 63.8883 171.673 63.597C172.091 63.3057 172.3 62.9383 172.3 62.495C172.3 62.2163 172.224 62.0137 172.072 61.887C171.92 61.7477 171.667 61.678 171.312 61.678C170.818 61.678 170.368 61.8427 169.963 62.172C169.57 62.5013 169.26 62.97 169.032 63.578C168.817 64.1733 168.703 64.8827 168.69 65.706C168.69 66.2127 168.76 66.618 168.899 66.922C169.038 67.226 169.26 67.4413 169.564 67.568C169.881 67.6947 170.286 67.758 170.78 67.758C171.021 67.758 171.293 67.739 171.597 67.701C171.901 67.663 172.23 67.606 172.585 67.53C172.952 67.4413 173.32 67.3273 173.687 67.188L174.048 69.525C173.465 69.753 172.845 69.9177 172.186 70.019C171.527 70.133 170.881 70.19 170.248 70.19C169.298 70.19 168.494 70.0317 167.835 69.715C167.176 69.3857 166.67 68.9107 166.315 68.29C165.973 67.6693 165.802 66.9283 165.802 66.067C165.802 65.1297 165.929 64.262 166.182 63.464C166.435 62.666 166.809 61.9693 167.303 61.374C167.81 60.7787 168.43 60.3163 169.165 59.987C169.912 59.645 170.774 59.474 171.749 59.474C172.446 59.474 173.047 59.5817 173.554 59.797C174.073 60.0123 174.472 60.3163 174.751 60.709C175.03 61.089 175.169 61.5513 175.169 62.096C175.169 63.0713 174.776 63.901 173.991 64.585C173.206 65.2563 172.116 65.6997 170.723 65.915C170.216 65.991 169.735 66.0353 169.279 66.048C168.836 66.0607 168.411 66.0543 168.006 66.029L168.177 64.319ZM174.367 69.544L175.07 67.34C175.349 67.454 175.672 67.5617 176.039 67.663C176.419 67.7517 176.806 67.8277 177.198 67.891C177.591 67.9417 177.952 67.967 178.281 67.967C178.661 67.967 178.965 67.929 179.193 67.853C179.421 67.777 179.586 67.6757 179.687 67.549C179.789 67.4097 179.839 67.2513 179.839 67.074C179.839 66.8713 179.757 66.7003 179.592 66.561C179.44 66.4217 179.231 66.3013 178.965 66.2C178.712 66.0987 178.433 65.9973 178.129 65.896C177.825 65.7947 177.515 65.6743 177.198 65.535C176.894 65.383 176.609 65.1993 176.343 64.984C176.09 64.7687 175.881 64.4963 175.716 64.167C175.564 63.8377 175.488 63.4323 175.488 62.951C175.488 62.3937 175.583 61.906 175.773 61.488C175.976 61.0573 176.267 60.6963 176.647 60.405C177.04 60.101 177.521 59.873 178.091 59.721C178.661 59.5563 179.314 59.474 180.048 59.474C180.669 59.474 181.245 59.5247 181.777 59.626C182.309 59.7273 182.778 59.854 183.183 60.006L182.499 62.21C182.233 62.1213 181.942 62.0453 181.625 61.982C181.309 61.906 180.992 61.849 180.675 61.811C180.359 61.773 180.061 61.754 179.782 61.754C179.428 61.754 179.136 61.792 178.908 61.868C178.693 61.944 178.535 62.0453 178.433 62.172C178.345 62.2987 178.3 62.4507 178.3 62.628C178.3 62.818 178.376 62.9763 178.528 63.103C178.693 63.217 178.902 63.3183 179.155 63.407C179.421 63.4957 179.706 63.5907 180.01 63.692C180.327 63.7933 180.637 63.9137 180.941 64.053C181.258 64.1923 181.543 64.3697 181.796 64.585C182.062 64.8003 182.271 65.0727 182.423 65.402C182.575 65.7187 182.651 66.1177 182.651 66.599C182.651 67.131 182.575 67.5997 182.423 68.005C182.284 68.3977 182.075 68.7333 181.796 69.012C181.53 69.2907 181.207 69.5187 180.827 69.696C180.46 69.8607 180.048 69.981 179.592 70.057C179.136 70.1457 178.649 70.19 178.129 70.19C177.357 70.19 176.666 70.1267 176.058 70C175.463 69.886 174.899 69.734 174.367 69.544Z" fill="#363636"/>
</g>
<defs>
<filter id="filter0_d_983_1956" x="0" y="0" width="212.798" height="114" filterUnits="userSpaceOnUse" color-interpolation-filters="sRGB">
<feFlood flood-opacity="0" result="BackgroundImageFix"/>
<feColorMatrix in="SourceAlpha" type="matrix" values="0 0 0 0 0 0 0 0 0 0 0 0 0 0 0 0 0 0 127 0" result="hardAlpha"/>
<feMorphology radius="2" operator="erode" in="SourceAlpha" result="effect1_dropShadow_983_1956"/>
<feOffset dy="2"/>
<feGaussianBlur stdDeviation="4"/>
<feComposite in2="hardAlpha" operator="out"/>
<feColorMatrix type="matrix" values="0 0 0 0 0.133333 0 0 0 0 0.133333 0 0 0 0 0.133333 0 0 0 0.4 0"/>
<feBlend mode="normal" in2="BackgroundImageFix" result="effect1_dropShadow_983_1956"/>
<feBlend mode="normal" in="SourceGraphic" in2="effect1_dropShadow_983_1956" result="shape"/>
</filter>
</defs>
</svg>
