<svg width="213" height="114" viewBox="0 0 213 114" fill="none" xmlns="http://www.w3.org/2000/svg">
<g filter="url(#filter0_d_983_1962)">
<rect x="6" y="4" width="200.798" height="102" rx="10" fill="#50DDFE"/>
<path d="M56.3887 42.9865V37.9811C56.3887 35.2281 54.1387 32.9757 51.3887 32.9757H36.3887C33.6387 32.9757 31.3887 35.2281 31.3887 37.9811V73.0189C31.3887 75.7719 33.6387 78.0243 36.3887 78.0243H76.3887C79.1387 78.0243 81.3887 75.7719 81.3887 73.0189V47.9919C81.3887 45.2389 79.1387 42.9865 76.3887 42.9865H56.3887ZM41.3887 73.0189H36.3887V68.0135H41.3887V73.0189ZM41.3887 63.0081H36.3887V58.0027H41.3887V63.0081ZM41.3887 52.9973H36.3887V47.9919H41.3887V52.9973ZM41.3887 42.9865H36.3887V37.9811H41.3887V42.9865ZM51.3887 73.0189H46.3887V68.0135H51.3887V73.0189ZM51.3887 63.0081H46.3887V58.0027H51.3887V63.0081ZM51.3887 52.9973H46.3887V47.9919H51.3887V52.9973ZM51.3887 42.9865H46.3887V37.9811H51.3887V42.9865ZM73.8887 73.0189H56.3887V68.0135H61.3887V63.0081H56.3887V58.0027H61.3887V52.9973H56.3887V47.9919H73.8887C75.2637 47.9919 76.3887 49.1181 76.3887 50.4946V70.5162C76.3887 71.8927 75.2637 73.0189 73.8887 73.0189ZM71.3887 52.9973H66.3887V58.0027H71.3887V52.9973ZM71.3887 63.0081H66.3887V68.0135H71.3887V63.0081Z" fill="#363636"/>
<path d="M92.7371 44.2L97.6871 33.58H99.1571L100.822 44.2H99.5021L99.0971 41.455H95.3321L94.0571 44.2H92.7371ZM95.7221 40.465H99.0221L98.2571 34.78L95.7221 40.465ZM104.276 44.35C103.636 44.35 103.096 44.24 102.656 44.02C102.216 43.8 101.881 43.485 101.651 43.075C101.431 42.665 101.321 42.17 101.321 41.59C101.321 40.78 101.416 40.035 101.606 39.355C101.796 38.665 102.076 38.07 102.446 37.57C102.816 37.07 103.261 36.685 103.781 36.415C104.301 36.145 104.886 36.01 105.536 36.01C105.776 36.01 106.016 36.02 106.256 36.04C106.496 36.06 106.736 36.09 106.976 36.13C107.216 36.17 107.446 36.23 107.666 36.31L107.321 37.3C106.991 37.21 106.676 37.15 106.376 37.12C106.086 37.08 105.791 37.06 105.491 37.06C105.051 37.06 104.651 37.17 104.291 37.39C103.931 37.61 103.616 37.92 103.346 38.32C103.076 38.72 102.866 39.185 102.716 39.715C102.566 40.235 102.491 40.795 102.491 41.395C102.491 41.805 102.576 42.155 102.746 42.445C102.926 42.725 103.171 42.94 103.481 43.09C103.791 43.24 104.161 43.315 104.591 43.315C104.831 43.315 105.061 43.305 105.281 43.285C105.501 43.265 105.711 43.235 105.911 43.195C106.121 43.155 106.321 43.105 106.511 43.045L106.631 43.99C106.411 44.06 106.176 44.125 105.926 44.185C105.676 44.235 105.411 44.275 105.131 44.305C104.861 44.335 104.576 44.35 104.276 44.35ZM108.222 39.88C108.512 39.9 108.817 39.9 109.137 39.88C109.467 39.85 109.787 39.81 110.097 39.76C110.907 39.63 111.537 39.415 111.987 39.115C112.447 38.805 112.677 38.405 112.677 37.915C112.677 37.595 112.567 37.355 112.347 37.195C112.137 37.025 111.812 36.94 111.372 36.94C110.802 36.94 110.292 37.12 109.842 37.48C109.392 37.83 109.042 38.32 108.792 38.95C108.542 39.57 108.417 40.295 108.417 41.125C108.417 41.605 108.492 42.015 108.642 42.355C108.802 42.685 109.032 42.935 109.332 43.105C109.642 43.265 110.017 43.345 110.457 43.345C110.687 43.345 110.927 43.325 111.177 43.285C111.437 43.245 111.702 43.19 111.972 43.12C112.252 43.05 112.532 42.96 112.812 42.85L112.992 43.81C112.592 43.98 112.152 44.11 111.672 44.2C111.202 44.3 110.732 44.35 110.262 44.35C109.622 44.35 109.077 44.23 108.627 43.99C108.177 43.74 107.832 43.385 107.592 42.925C107.362 42.455 107.247 41.895 107.247 41.245C107.247 40.475 107.342 39.77 107.532 39.13C107.732 38.49 108.017 37.94 108.387 37.48C108.767 37.01 109.222 36.65 109.752 36.4C110.292 36.14 110.902 36.01 111.582 36.01C112.042 36.01 112.442 36.08 112.782 36.22C113.122 36.36 113.382 36.56 113.562 36.82C113.752 37.08 113.847 37.39 113.847 37.75C113.847 38.48 113.537 39.09 112.917 39.58C112.307 40.07 111.457 40.405 110.367 40.585C109.967 40.655 109.577 40.7 109.197 40.72C108.817 40.73 108.462 40.725 108.132 40.705L108.222 39.88ZM113.247 43.87L113.562 42.925C113.772 43.005 114.012 43.085 114.282 43.165C114.552 43.235 114.837 43.295 115.137 43.345C115.437 43.385 115.732 43.405 116.022 43.405C116.492 43.405 116.872 43.35 117.162 43.24C117.462 43.13 117.682 42.98 117.822 42.79C117.962 42.59 118.032 42.365 118.032 42.115C118.032 41.855 117.962 41.64 117.822 41.47C117.692 41.3 117.512 41.15 117.282 41.02C117.062 40.89 116.817 40.775 116.547 40.675C116.287 40.565 116.022 40.45 115.752 40.33C115.492 40.2 115.247 40.05 115.017 39.88C114.797 39.71 114.617 39.5 114.477 39.25C114.347 38.99 114.282 38.68 114.282 38.32C114.282 37.97 114.342 37.655 114.462 37.375C114.592 37.095 114.787 36.855 115.047 36.655C115.307 36.445 115.637 36.285 116.037 36.175C116.437 36.065 116.907 36.01 117.447 36.01C117.857 36.01 118.257 36.045 118.647 36.115C119.037 36.185 119.372 36.28 119.652 36.4L119.352 37.33C119.162 37.26 118.952 37.2 118.722 37.15C118.502 37.09 118.272 37.045 118.032 37.015C117.802 36.975 117.567 36.955 117.327 36.955C116.877 36.955 116.512 37.01 116.232 37.12C115.952 37.23 115.747 37.38 115.617 37.57C115.487 37.75 115.422 37.96 115.422 38.2C115.422 38.45 115.487 38.66 115.617 38.83C115.757 38.99 115.937 39.135 116.157 39.265C116.387 39.385 116.632 39.5 116.892 39.61C117.162 39.71 117.427 39.825 117.687 39.955C117.957 40.075 118.202 40.22 118.422 40.39C118.652 40.56 118.832 40.77 118.962 41.02C119.102 41.27 119.172 41.575 119.172 41.935C119.172 42.255 119.127 42.545 119.037 42.805C118.947 43.055 118.812 43.275 118.632 43.465C118.452 43.655 118.232 43.82 117.972 43.96C117.712 44.09 117.412 44.185 117.072 44.245C116.732 44.315 116.352 44.35 115.932 44.35C115.382 44.35 114.882 44.305 114.432 44.215C113.992 44.125 113.597 44.01 113.247 43.87ZM119.056 43.87L119.371 42.925C119.581 43.005 119.821 43.085 120.091 43.165C120.361 43.235 120.646 43.295 120.946 43.345C121.246 43.385 121.541 43.405 121.831 43.405C122.301 43.405 122.681 43.35 122.971 43.24C123.271 43.13 123.491 42.98 123.631 42.79C123.771 42.59 123.841 42.365 123.841 42.115C123.841 41.855 123.771 41.64 123.631 41.47C123.501 41.3 123.321 41.15 123.091 41.02C122.871 40.89 122.626 40.775 122.356 40.675C122.096 40.565 121.831 40.45 121.561 40.33C121.301 40.2 121.056 40.05 120.826 39.88C120.606 39.71 120.426 39.5 120.286 39.25C120.156 38.99 120.091 38.68 120.091 38.32C120.091 37.97 120.151 37.655 120.271 37.375C120.401 37.095 120.596 36.855 120.856 36.655C121.116 36.445 121.446 36.285 121.846 36.175C122.246 36.065 122.716 36.01 123.256 36.01C123.666 36.01 124.066 36.045 124.456 36.115C124.846 36.185 125.181 36.28 125.461 36.4L125.161 37.33C124.971 37.26 124.761 37.2 124.531 37.15C124.311 37.09 124.081 37.045 123.841 37.015C123.611 36.975 123.376 36.955 123.136 36.955C122.686 36.955 122.321 37.01 122.041 37.12C121.761 37.23 121.556 37.38 121.426 37.57C121.296 37.75 121.231 37.96 121.231 38.2C121.231 38.45 121.296 38.66 121.426 38.83C121.566 38.99 121.746 39.135 121.966 39.265C122.196 39.385 122.441 39.5 122.701 39.61C122.971 39.71 123.236 39.825 123.496 39.955C123.766 40.075 124.011 40.22 124.231 40.39C124.461 40.56 124.641 40.77 124.771 41.02C124.911 41.27 124.981 41.575 124.981 41.935C124.981 42.255 124.936 42.545 124.846 42.805C124.756 43.055 124.621 43.275 124.441 43.465C124.261 43.655 124.041 43.82 123.781 43.96C123.521 44.09 123.221 44.185 122.881 44.245C122.541 44.315 122.161 44.35 121.741 44.35C121.191 44.35 120.691 44.305 120.241 44.215C119.801 44.125 119.406 44.01 119.056 43.87ZM128.418 44.35C127.788 44.35 127.263 44.25 126.843 44.05C126.423 43.84 126.103 43.525 125.883 43.105C125.663 42.685 125.553 42.155 125.553 41.515C125.553 41.045 125.583 40.59 125.643 40.15C125.713 39.7 125.813 39.27 125.943 38.86C126.073 38.44 126.238 38.06 126.438 37.72C126.638 37.37 126.873 37.065 127.143 36.805C127.413 36.545 127.718 36.345 128.058 36.205C128.408 36.065 128.788 35.995 129.198 35.995C129.798 35.995 130.308 36.1 130.728 36.31C131.148 36.52 131.468 36.84 131.688 37.27C131.918 37.69 132.033 38.22 132.033 38.86C132.033 39.35 131.998 39.825 131.928 40.285C131.868 40.735 131.773 41.165 131.643 41.575C131.513 41.985 131.348 42.36 131.148 42.7C130.958 43.04 130.728 43.335 130.458 43.585C130.198 43.825 129.898 44.015 129.558 44.155C129.218 44.285 128.838 44.35 128.418 44.35ZM128.373 43.405C128.653 43.405 128.908 43.345 129.138 43.225C129.378 43.095 129.588 42.925 129.768 42.715C129.948 42.495 130.108 42.24 130.248 41.95C130.388 41.66 130.503 41.345 130.593 41.005C130.683 40.655 130.748 40.295 130.788 39.925C130.838 39.555 130.863 39.18 130.863 38.8C130.863 38.17 130.713 37.705 130.413 37.405C130.123 37.095 129.723 36.94 129.213 36.94C128.933 36.94 128.678 37.005 128.448 37.135C128.218 37.265 128.008 37.445 127.818 37.675C127.628 37.895 127.463 38.155 127.323 38.455C127.193 38.745 127.078 39.06 126.978 39.4C126.888 39.74 126.818 40.09 126.768 40.45C126.728 40.8 126.708 41.15 126.708 41.5C126.708 42.16 126.848 42.645 127.128 42.955C127.418 43.255 127.833 43.405 128.373 43.405ZM93.3921 62.2L95.5011 48.9H104.374L103.975 51.446H98.0661L97.6101 54.277H103.082L102.664 56.671H97.2111L96.7551 59.673H102.968L102.55 62.2H93.3921ZM116.324 62.39C115.918 62.39 115.557 62.3203 115.241 62.181C114.937 62.0417 114.696 61.839 114.519 61.573C114.354 61.2943 114.272 60.965 114.272 60.585C114.272 60.4583 114.291 60.2493 114.329 59.958C114.367 59.6667 114.411 59.331 114.462 58.951C114.525 58.5583 114.588 58.1593 114.652 57.754C114.728 57.336 114.797 56.937 114.861 56.557C114.924 56.177 114.975 55.854 115.013 55.588C115.051 55.322 115.07 55.1383 115.07 55.037C115.07 54.7837 115 54.581 114.861 54.429C114.721 54.2643 114.487 54.182 114.158 54.182C113.904 54.182 113.657 54.2263 113.417 54.315C113.189 54.4037 112.942 54.5303 112.676 54.695C112.676 54.7457 112.669 54.828 112.657 54.942C112.644 55.056 112.638 55.151 112.638 55.227C112.6 55.455 112.555 55.7147 112.505 56.006C112.467 56.2847 112.422 56.5887 112.372 56.918C112.321 57.2473 112.264 57.5893 112.201 57.944C112.15 58.2987 112.093 58.6597 112.03 59.027C111.979 59.3943 111.922 59.7617 111.859 60.129C111.808 60.4837 111.751 60.8383 111.688 61.193C111.637 61.5477 111.586 61.8833 111.536 62.2H108.648C108.711 61.82 108.774 61.4147 108.838 60.984C108.914 60.5533 108.983 60.1163 109.047 59.673C109.123 59.217 109.192 58.78 109.256 58.362C109.332 57.9313 109.401 57.5323 109.465 57.165C109.528 56.785 109.579 56.443 109.617 56.139C109.667 55.835 109.705 55.5943 109.731 55.417C109.756 55.227 109.769 55.1067 109.769 55.056C109.769 54.8787 109.737 54.7267 109.674 54.6C109.61 54.4607 109.509 54.353 109.37 54.277C109.243 54.201 109.072 54.163 108.857 54.163C108.641 54.163 108.413 54.2073 108.173 54.296C107.932 54.3847 107.679 54.4987 107.413 54.638L106.235 62.2H103.309L104.943 51.864H107.584L107.451 52.757C108.021 52.377 108.559 52.1047 109.066 51.94C109.572 51.7627 110.06 51.674 110.529 51.674C111.099 51.674 111.542 51.7817 111.859 51.997C112.188 52.2123 112.422 52.5037 112.562 52.871C112.954 52.5923 113.315 52.3643 113.645 52.187C113.987 52.0097 114.322 51.883 114.652 51.807C114.994 51.7183 115.348 51.674 115.716 51.674C116.273 51.674 116.729 51.769 117.084 51.959C117.451 52.1363 117.717 52.3897 117.882 52.719C118.059 53.0357 118.148 53.403 118.148 53.821C118.148 53.935 118.129 54.1377 118.091 54.429C118.053 54.7203 118.002 55.0623 117.939 55.455C117.875 55.835 117.806 56.2403 117.73 56.671C117.666 57.089 117.603 57.488 117.54 57.868C117.476 58.248 117.419 58.5773 117.369 58.856C117.331 59.1347 117.312 59.331 117.312 59.445C117.312 59.5843 117.343 59.692 117.407 59.768C117.483 59.844 117.584 59.882 117.711 59.882C117.774 59.882 117.837 59.882 117.901 59.882C117.977 59.8693 118.04 59.8503 118.091 59.825L117.939 62.086C117.736 62.1747 117.483 62.2443 117.179 62.295C116.887 62.3583 116.602 62.39 116.324 62.39ZM117.667 66.19L119.928 51.826H122.569L122.512 52.719C122.968 52.415 123.424 52.168 123.88 51.978C124.348 51.7753 124.868 51.674 125.438 51.674C126.096 51.674 126.635 51.8133 127.053 52.092C127.483 52.358 127.8 52.757 128.003 53.289C128.218 53.821 128.326 54.4797 128.326 55.265C128.326 56.2403 128.212 57.165 127.984 58.039C127.756 58.9003 127.414 59.654 126.958 60.3C126.514 60.946 125.951 61.4527 125.267 61.82C124.583 62.1873 123.791 62.371 122.892 62.371C122.55 62.371 122.233 62.352 121.942 62.314C121.65 62.276 121.403 62.238 121.201 62.2L120.555 66.19H117.667ZM122.664 60.148C123.107 60.148 123.5 60.0277 123.842 59.787C124.184 59.5337 124.469 59.2043 124.697 58.799C124.925 58.381 125.096 57.925 125.21 57.431C125.324 56.937 125.381 56.443 125.381 55.949C125.381 55.341 125.273 54.8977 125.058 54.619C124.855 54.3403 124.526 54.201 124.07 54.201C123.791 54.201 123.506 54.2517 123.215 54.353C122.923 54.4417 122.645 54.5683 122.379 54.733L121.562 59.958C121.714 60.0213 121.878 60.072 122.056 60.11C122.246 60.1353 122.448 60.148 122.664 60.148ZM132.506 51.864L132.316 53.061C132.696 52.7317 133.044 52.4657 133.361 52.263C133.677 52.0603 133.975 51.9147 134.254 51.826C134.532 51.7247 134.824 51.674 135.128 51.674C135.343 51.674 135.552 51.693 135.755 51.731C135.97 51.7563 136.173 51.807 136.363 51.883L135.508 54.695C135.292 54.6317 135.077 54.5873 134.862 54.562C134.659 54.5367 134.469 54.524 134.292 54.524C133.988 54.524 133.671 54.5747 133.342 54.676C133.025 54.7773 132.664 54.9673 132.259 55.246L131.138 62.2H128.25L129.903 51.864H132.506ZM137.545 56.519C137.799 56.5443 138.077 56.5443 138.381 56.519C138.698 56.4937 139.002 56.462 139.293 56.424C140.041 56.2973 140.623 56.0883 141.041 55.797C141.459 55.5057 141.668 55.1383 141.668 54.695C141.668 54.4163 141.592 54.2137 141.44 54.087C141.288 53.9477 141.035 53.878 140.68 53.878C140.186 53.878 139.737 54.0427 139.331 54.372C138.939 54.7013 138.628 55.17 138.4 55.778C138.185 56.3733 138.071 57.0827 138.058 57.906C138.058 58.4127 138.128 58.818 138.267 59.122C138.407 59.426 138.628 59.6413 138.932 59.768C139.249 59.8947 139.654 59.958 140.148 59.958C140.389 59.958 140.661 59.939 140.965 59.901C141.269 59.863 141.599 59.806 141.953 59.73C142.321 59.6413 142.688 59.5273 143.055 59.388L143.416 61.725C142.834 61.953 142.213 62.1177 141.554 62.219C140.896 62.333 140.25 62.39 139.616 62.39C138.666 62.39 137.862 62.2317 137.203 61.915C136.545 61.5857 136.038 61.1107 135.683 60.49C135.341 59.8693 135.17 59.1283 135.17 58.267C135.17 57.3297 135.297 56.462 135.55 55.664C135.804 54.866 136.177 54.1693 136.671 53.574C137.178 52.9787 137.799 52.5163 138.533 52.187C139.281 51.845 140.142 51.674 141.117 51.674C141.814 51.674 142.416 51.7817 142.922 51.997C143.442 52.2123 143.841 52.5163 144.119 52.909C144.398 53.289 144.537 53.7513 144.537 54.296C144.537 55.2713 144.145 56.101 143.359 56.785C142.574 57.4563 141.485 57.8997 140.091 58.115C139.585 58.191 139.103 58.2353 138.647 58.248C138.204 58.2607 137.78 58.2543 137.374 58.229L137.545 56.519ZM143.736 61.744L144.439 59.54C144.718 59.654 145.041 59.7617 145.408 59.863C145.788 59.9517 146.174 60.0277 146.567 60.091C146.96 60.1417 147.321 60.167 147.65 60.167C148.03 60.167 148.334 60.129 148.562 60.053C148.79 59.977 148.955 59.8757 149.056 59.749C149.157 59.6097 149.208 59.4513 149.208 59.274C149.208 59.0713 149.126 58.9003 148.961 58.761C148.809 58.6217 148.6 58.5013 148.334 58.4C148.081 58.2987 147.802 58.1973 147.498 58.096C147.194 57.9947 146.884 57.8743 146.567 57.735C146.263 57.583 145.978 57.3993 145.712 57.184C145.459 56.9687 145.25 56.6963 145.085 56.367C144.933 56.0377 144.857 55.6323 144.857 55.151C144.857 54.5937 144.952 54.106 145.142 53.688C145.345 53.2573 145.636 52.8963 146.016 52.605C146.409 52.301 146.89 52.073 147.46 51.921C148.03 51.7563 148.682 51.674 149.417 51.674C150.038 51.674 150.614 51.7247 151.146 51.826C151.678 51.9273 152.147 52.054 152.552 52.206L151.868 54.41C151.602 54.3213 151.311 54.2453 150.994 54.182C150.677 54.106 150.361 54.049 150.044 54.011C149.727 53.973 149.43 53.954 149.151 53.954C148.796 53.954 148.505 53.992 148.277 54.068C148.062 54.144 147.903 54.2453 147.802 54.372C147.713 54.4987 147.669 54.6507 147.669 54.828C147.669 55.018 147.745 55.1763 147.897 55.303C148.062 55.417 148.271 55.5183 148.524 55.607C148.79 55.6957 149.075 55.7907 149.379 55.892C149.696 55.9933 150.006 56.1137 150.31 56.253C150.627 56.3923 150.912 56.5697 151.165 56.785C151.431 57.0003 151.64 57.2727 151.792 57.602C151.944 57.9187 152.02 58.3177 152.02 58.799C152.02 59.331 151.944 59.7997 151.792 60.205C151.653 60.5977 151.444 60.9333 151.165 61.212C150.899 61.4907 150.576 61.7187 150.196 61.896C149.829 62.0607 149.417 62.181 148.961 62.257C148.505 62.3457 148.017 62.39 147.498 62.39C146.725 62.39 146.035 62.3267 145.427 62.2C144.832 62.086 144.268 61.934 143.736 61.744ZM160.407 62.39C160.129 62.39 159.863 62.352 159.609 62.276C159.369 62.2 159.147 62.086 158.944 61.934C158.754 61.7693 158.596 61.5793 158.469 61.364C158.203 61.5793 157.912 61.763 157.595 61.915C157.291 62.067 156.968 62.181 156.626 62.257C156.297 62.3457 155.949 62.39 155.581 62.39C154.961 62.39 154.422 62.257 153.966 61.991C153.51 61.7123 153.149 61.3007 152.883 60.756C152.63 60.2113 152.503 59.5337 152.503 58.723C152.503 57.1903 152.738 55.9047 153.206 54.866C153.688 53.8147 154.365 53.023 155.239 52.491C156.126 51.9463 157.177 51.674 158.393 51.674C158.748 51.674 159.115 51.693 159.495 51.731C159.875 51.769 160.243 51.8197 160.597 51.883C160.965 51.9463 161.307 52.016 161.623 52.092C161.953 52.168 162.244 52.2503 162.497 52.339C162.307 53.517 162.143 54.5177 162.003 55.341C161.877 56.1517 161.769 56.8167 161.68 57.336C161.604 57.8553 161.541 58.2607 161.49 58.552C161.44 58.8433 161.402 59.0587 161.376 59.198C161.364 59.3247 161.357 59.4007 161.357 59.426C161.357 59.578 161.389 59.692 161.452 59.768C161.516 59.844 161.617 59.882 161.756 59.882C161.807 59.882 161.864 59.882 161.927 59.882C162.003 59.8693 162.073 59.8503 162.136 59.825L161.984 62.067C161.794 62.1557 161.554 62.2317 161.262 62.295C160.984 62.3583 160.699 62.39 160.407 62.39ZM158.412 59.464L159.248 54.182C159.084 54.106 158.9 54.0553 158.697 54.03C158.507 54.0047 158.305 53.992 158.089 53.992C157.608 53.992 157.165 54.182 156.759 54.562C156.367 54.9293 156.056 55.436 155.828 56.082C155.6 56.728 155.486 57.45 155.486 58.248C155.486 58.7927 155.607 59.2043 155.847 59.483C156.101 59.7617 156.424 59.901 156.816 59.901C156.994 59.901 157.177 59.882 157.367 59.844C157.557 59.806 157.741 59.7553 157.918 59.692C158.108 59.616 158.273 59.54 158.412 59.464ZM161.904 61.744L162.607 59.54C162.886 59.654 163.209 59.7617 163.576 59.863C163.956 59.9517 164.343 60.0277 164.735 60.091C165.128 60.1417 165.489 60.167 165.818 60.167C166.198 60.167 166.502 60.129 166.73 60.053C166.958 59.977 167.123 59.8757 167.224 59.749C167.326 59.6097 167.376 59.4513 167.376 59.274C167.376 59.0713 167.294 58.9003 167.129 58.761C166.977 58.6217 166.768 58.5013 166.502 58.4C166.249 58.2987 165.97 58.1973 165.666 58.096C165.362 57.9947 165.052 57.8743 164.735 57.735C164.431 57.583 164.146 57.3993 163.88 57.184C163.627 56.9687 163.418 56.6963 163.253 56.367C163.101 56.0377 163.025 55.6323 163.025 55.151C163.025 54.5937 163.12 54.106 163.31 53.688C163.513 53.2573 163.804 52.8963 164.184 52.605C164.577 52.301 165.058 52.073 165.628 51.921C166.198 51.7563 166.851 51.674 167.585 51.674C168.206 51.674 168.782 51.7247 169.314 51.826C169.846 51.9273 170.315 52.054 170.72 52.206L170.036 54.41C169.77 54.3213 169.479 54.2453 169.162 54.182C168.846 54.106 168.529 54.049 168.212 54.011C167.896 53.973 167.598 53.954 167.319 53.954C166.965 53.954 166.673 53.992 166.445 54.068C166.23 54.144 166.072 54.2453 165.97 54.372C165.882 54.4987 165.837 54.6507 165.837 54.828C165.837 55.018 165.913 55.1763 166.065 55.303C166.23 55.417 166.439 55.5183 166.692 55.607C166.958 55.6957 167.243 55.7907 167.547 55.892C167.864 55.9933 168.174 56.1137 168.478 56.253C168.795 56.3923 169.08 56.5697 169.333 56.785C169.599 57.0003 169.808 57.2727 169.96 57.602C170.112 57.9187 170.188 58.3177 170.188 58.799C170.188 59.331 170.112 59.7997 169.96 60.205C169.821 60.5977 169.612 60.9333 169.333 61.212C169.067 61.4907 168.744 61.7187 168.364 61.896C167.997 62.0607 167.585 62.181 167.129 62.257C166.673 62.3457 166.186 62.39 165.666 62.39C164.894 62.39 164.203 62.3267 163.595 62.2C163 62.086 162.436 61.934 161.904 61.744ZM98.6931 79.39C97.5531 79.39 96.5968 79.2317 95.8241 78.915C95.0641 78.5857 94.4941 78.136 94.1141 77.566C93.7341 76.996 93.5441 76.3373 93.5441 75.59C93.5441 74.8173 93.7025 74.146 94.0191 73.576C94.3485 72.9933 94.7918 72.5247 95.3491 72.17C95.9191 71.8027 96.5651 71.5557 97.2871 71.429C96.8945 71.2643 96.5588 71.068 96.2801 70.84C96.0015 70.5993 95.7861 70.327 95.6341 70.023C95.4948 69.7063 95.4251 69.3643 95.4251 68.997C95.4251 68.4017 95.5961 67.857 95.9381 67.363C96.2928 66.869 96.7868 66.47 97.4201 66.166C98.0661 65.862 98.8261 65.71 99.7001 65.71C100.181 65.71 100.631 65.7543 101.049 65.843C101.48 65.919 101.885 66.0393 102.265 66.204C102.658 66.356 103.025 66.546 103.367 66.774L101.961 68.579C101.746 68.427 101.53 68.3067 101.315 68.218C101.1 68.1167 100.884 68.047 100.669 68.009C100.454 67.9583 100.232 67.933 100.004 67.933C99.6621 67.933 99.3581 67.9963 99.0921 68.123C98.8388 68.2497 98.6361 68.427 98.4841 68.655C98.3448 68.8703 98.2751 69.1173 98.2751 69.396C98.2751 69.6747 98.3448 69.9217 98.4841 70.137C98.6235 70.3397 98.8198 70.5043 99.0731 70.631C99.3391 70.745 99.6621 70.8147 100.042 70.84L100.365 70.897L99.9471 72.588H99.2821C98.8768 72.588 98.5031 72.6513 98.1611 72.778C97.8318 72.9047 97.5341 73.082 97.2681 73.31C97.0148 73.538 96.8185 73.8167 96.6791 74.146C96.5398 74.4627 96.4701 74.8173 96.4701 75.21C96.4701 75.5773 96.5651 75.9067 96.7551 76.198C96.9578 76.4767 97.2555 76.6983 97.6481 76.863C98.0408 77.015 98.5221 77.091 99.0921 77.091C99.5988 77.091 100.074 77.0023 100.517 76.825C100.973 76.6477 101.366 76.4007 101.695 76.084C102.024 75.7547 102.265 75.381 102.417 74.963C102.582 74.5323 102.626 74.07 102.55 73.576L104.754 73.481C104.754 74.317 104.608 75.096 104.317 75.818C104.026 76.5273 103.614 77.1543 103.082 77.699C102.563 78.231 101.929 78.649 101.182 78.953C100.435 79.2443 99.6051 79.39 98.6931 79.39ZM101.182 74.963L99.5291 74.564C99.5671 74.1333 99.6748 73.7407 99.8521 73.386C100.029 73.0313 100.283 72.7527 100.612 72.55C100.954 72.3347 101.378 72.227 101.885 72.227C102.062 72.227 102.227 72.2397 102.379 72.265C102.531 72.2903 102.683 72.322 102.835 72.36C102.987 72.3853 103.145 72.417 103.31 72.455C103.475 72.4803 103.639 72.493 103.804 72.493C104.222 72.493 104.545 72.4107 104.773 72.246C105.001 72.0687 105.128 71.752 105.153 71.296L106.882 71.334C106.933 71.8533 106.869 72.3347 106.692 72.778C106.527 73.2087 106.274 73.5507 105.932 73.804C105.59 74.0573 105.185 74.184 104.716 74.184C104.526 74.184 104.323 74.1713 104.108 74.146C103.905 74.1207 103.696 74.0953 103.481 74.07C103.266 74.032 103.05 74.0003 102.835 73.975C102.62 73.937 102.398 73.918 102.17 73.918C101.891 73.918 101.67 74.013 101.505 74.203C101.34 74.3803 101.233 74.6337 101.182 74.963ZM106.317 79.2L108.445 65.881H111.238L114.582 74.45L115.969 65.9H118.629L116.501 79.219H113.727L110.307 70.954L108.977 79.2H106.317ZM120.509 73.519C120.762 73.5443 121.041 73.5443 121.345 73.519C121.662 73.4937 121.966 73.462 122.257 73.424C123.004 73.2973 123.587 73.0883 124.005 72.797C124.423 72.5057 124.632 72.1383 124.632 71.695C124.632 71.4163 124.556 71.2137 124.404 71.087C124.252 70.9477 123.999 70.878 123.644 70.878C123.15 70.878 122.7 71.0427 122.295 71.372C121.902 71.7013 121.592 72.17 121.364 72.778C121.149 73.3733 121.035 74.0827 121.022 74.906C121.022 75.4127 121.092 75.818 121.231 76.122C121.37 76.426 121.592 76.6413 121.896 76.768C122.213 76.8947 122.618 76.958 123.112 76.958C123.353 76.958 123.625 76.939 123.929 76.901C124.233 76.863 124.562 76.806 124.917 76.73C125.284 76.6413 125.652 76.5273 126.019 76.388L126.38 78.725C125.797 78.953 125.177 79.1177 124.518 79.219C123.859 79.333 123.213 79.39 122.58 79.39C121.63 79.39 120.826 79.2317 120.167 78.915C119.508 78.5857 119.002 78.1107 118.647 77.49C118.305 76.8693 118.134 76.1283 118.134 75.267C118.134 74.3297 118.261 73.462 118.514 72.664C118.767 71.866 119.141 71.1693 119.635 70.574C120.142 69.9787 120.762 69.5163 121.497 69.187C122.244 68.845 123.106 68.674 124.081 68.674C124.778 68.674 125.379 68.7817 125.886 68.997C126.405 69.2123 126.804 69.5163 127.083 69.909C127.362 70.289 127.501 70.7513 127.501 71.296C127.501 72.2713 127.108 73.101 126.323 73.785C125.538 74.4563 124.448 74.8997 123.055 75.115C122.548 75.191 122.067 75.2353 121.611 75.248C121.168 75.2607 120.743 75.2543 120.338 75.229L120.509 73.519ZM126.757 82.601L127.536 80.359C128.005 80.5237 128.511 80.663 129.056 80.777C129.601 80.891 130.12 80.948 130.614 80.948C131.057 80.948 131.437 80.8847 131.754 80.758C132.083 80.6313 132.343 80.416 132.533 80.112C132.736 79.808 132.875 79.3963 132.951 78.877L133.008 78.364C132.755 78.5033 132.463 78.6237 132.134 78.725C131.805 78.8263 131.488 78.9087 131.184 78.972C130.88 79.0227 130.614 79.048 130.386 79.048C129.74 79.048 129.189 78.915 128.733 78.649C128.29 78.383 127.954 78.0093 127.726 77.528C127.511 77.034 127.403 76.4577 127.403 75.799C127.403 74.773 127.517 73.8293 127.745 72.968C127.973 72.094 128.328 71.3403 128.809 70.707C129.303 70.061 129.936 69.5607 130.709 69.206C131.482 68.8513 132.413 68.674 133.502 68.674C133.819 68.674 134.161 68.6867 134.528 68.712C134.895 68.7373 135.256 68.7817 135.611 68.845C135.978 68.8957 136.314 68.959 136.618 69.035C136.935 69.0983 137.188 69.1617 137.378 69.225L135.877 78.706C135.636 80.2767 135.098 81.4483 134.262 82.221C133.426 82.9937 132.273 83.38 130.804 83.38C130.069 83.38 129.354 83.3103 128.657 83.171C127.973 83.0317 127.34 82.8417 126.757 82.601ZM134.148 71.125C134.009 71.0617 133.85 71.011 133.673 70.973C133.508 70.935 133.299 70.916 133.046 70.916C132.641 70.916 132.273 71.0363 131.944 71.277C131.627 71.5177 131.349 71.8407 131.108 72.246C130.88 72.6387 130.703 73.0757 130.576 73.557C130.449 74.0257 130.386 74.5133 130.386 75.02C130.386 75.6153 130.513 76.0523 130.766 76.331C131.019 76.6097 131.374 76.749 131.83 76.749C131.969 76.749 132.128 76.73 132.305 76.692C132.482 76.6413 132.66 76.5843 132.837 76.521C133.027 76.4577 133.192 76.3817 133.331 76.293L134.148 71.125ZM141.805 79.39C140.855 79.39 140.057 79.2443 139.411 78.953C138.777 78.649 138.296 78.2057 137.967 77.623C137.637 77.0277 137.473 76.2803 137.473 75.381C137.473 74.7857 137.511 74.2093 137.587 73.652C137.675 73.0947 137.802 72.569 137.967 72.075C138.144 71.5683 138.366 71.1123 138.632 70.707C138.91 70.289 139.233 69.928 139.601 69.624C139.981 69.3073 140.411 69.0667 140.893 68.902C141.374 68.7373 141.912 68.655 142.508 68.655C143.407 68.655 144.167 68.807 144.788 69.111C145.421 69.4023 145.902 69.8457 146.232 70.441C146.574 71.0363 146.745 71.7837 146.745 72.683C146.745 73.291 146.7 73.88 146.612 74.45C146.523 75.02 146.39 75.552 146.213 76.046C146.048 76.54 145.833 76.996 145.567 77.414C145.301 77.8193 144.984 78.174 144.617 78.478C144.262 78.7693 143.844 78.9973 143.363 79.162C142.894 79.314 142.375 79.39 141.805 79.39ZM141.767 77.129C142.02 77.1163 142.248 77.0403 142.451 76.901C142.653 76.7617 142.831 76.5717 142.983 76.331C143.135 76.0903 143.261 75.8117 143.363 75.495C143.477 75.1783 143.565 74.8427 143.629 74.488C143.705 74.1333 143.755 73.7723 143.781 73.405C143.806 73.0377 143.819 72.6893 143.819 72.36C143.806 71.8533 143.673 71.486 143.42 71.258C143.166 71.03 142.837 70.916 142.432 70.916C142.178 70.916 141.95 70.992 141.748 71.144C141.545 71.296 141.361 71.4987 141.197 71.752C141.045 71.9927 140.912 72.2713 140.798 72.588C140.696 72.9047 140.608 73.2403 140.532 73.595C140.468 73.937 140.424 74.279 140.399 74.621C140.373 74.963 140.361 75.2923 140.361 75.609C140.373 76.1537 140.5 76.5463 140.741 76.787C140.994 77.015 141.336 77.129 141.767 77.129ZM141.615 67.876L143.743 64.19H146.65L143.838 67.876H141.615ZM151.498 79.39C150.548 79.39 149.756 79.238 149.123 78.934C148.489 78.63 148.021 78.193 147.717 77.623C147.413 77.0403 147.261 76.3437 147.261 75.533C147.261 74.507 147.381 73.576 147.622 72.74C147.875 71.8913 148.249 71.163 148.743 70.555C149.237 69.947 149.851 69.4847 150.586 69.168C151.32 68.8387 152.169 68.674 153.132 68.674C153.486 68.674 153.841 68.693 154.196 68.731C154.55 68.7563 154.899 68.7943 155.241 68.845C155.583 68.8957 155.893 68.9717 156.172 69.073L155.374 71.448C154.956 71.3213 154.557 71.239 154.177 71.201C153.809 71.163 153.436 71.144 153.056 71.144C152.625 71.144 152.232 71.2453 151.878 71.448C151.536 71.6507 151.238 71.9357 150.985 72.303C150.731 72.6577 150.535 73.0693 150.396 73.538C150.269 74.0067 150.206 74.507 150.206 75.039C150.206 75.4317 150.288 75.7737 150.453 76.065C150.63 76.3437 150.877 76.559 151.194 76.711C151.51 76.8503 151.884 76.92 152.315 76.92C152.581 76.92 152.834 76.9137 153.075 76.901C153.328 76.8757 153.581 76.844 153.835 76.806C154.088 76.768 154.354 76.7173 154.633 76.654L154.842 78.896C154.525 78.9973 154.177 79.0923 153.797 79.181C153.429 79.257 153.043 79.3077 152.638 79.333C152.245 79.371 151.865 79.39 151.498 79.39ZM155.484 79.2L157.118 68.864H160.025L158.391 79.2H155.484ZM159.246 64.646C159.74 64.646 160.107 64.741 160.348 64.931C160.589 65.121 160.709 65.4123 160.709 65.805C160.709 66.2103 160.627 66.565 160.462 66.869C160.31 67.1603 160.088 67.3883 159.797 67.553C159.506 67.705 159.145 67.781 158.714 67.781C158.22 67.781 157.853 67.686 157.612 67.496C157.371 67.2933 157.251 66.9957 157.251 66.603C157.251 66.223 157.321 65.8873 157.46 65.596C157.599 65.292 157.815 65.0577 158.106 64.893C158.397 64.7283 158.777 64.646 159.246 64.646ZM164.4 79.39C163.45 79.39 162.652 79.2443 162.006 78.953C161.373 78.649 160.891 78.2057 160.562 77.623C160.233 77.0277 160.068 76.2803 160.068 75.381C160.068 74.7857 160.106 74.2093 160.182 73.652C160.271 73.0947 160.397 72.569 160.562 72.075C160.739 71.5683 160.961 71.1123 161.227 70.707C161.506 70.289 161.829 69.928 162.196 69.624C162.576 69.3073 163.007 69.0667 163.488 68.902C163.969 68.7373 164.508 68.655 165.103 68.655C166.002 68.655 166.762 68.807 167.383 69.111C168.016 69.4023 168.498 69.8457 168.827 70.441C169.169 71.0363 169.34 71.7837 169.34 72.683C169.34 73.291 169.296 73.88 169.207 74.45C169.118 75.02 168.985 75.552 168.808 76.046C168.643 76.54 168.428 76.996 168.162 77.414C167.896 77.8193 167.579 78.174 167.212 78.478C166.857 78.7693 166.439 78.9973 165.958 79.162C165.489 79.314 164.97 79.39 164.4 79.39ZM164.362 77.129C164.615 77.1163 164.843 77.0403 165.046 76.901C165.249 76.7617 165.426 76.5717 165.578 76.331C165.73 76.0903 165.857 75.8117 165.958 75.495C166.072 75.1783 166.161 74.8427 166.224 74.488C166.3 74.1333 166.351 73.7723 166.376 73.405C166.401 73.0377 166.414 72.6893 166.414 72.36C166.401 71.8533 166.268 71.486 166.015 71.258C165.762 71.03 165.432 70.916 165.027 70.916C164.774 70.916 164.546 70.992 164.343 71.144C164.14 71.296 163.957 71.4987 163.792 71.752C163.64 71.9927 163.507 72.2713 163.393 72.588C163.292 72.9047 163.203 73.2403 163.127 73.595C163.064 73.937 163.019 74.279 162.994 74.621C162.969 74.963 162.956 75.2923 162.956 75.609C162.969 76.1537 163.095 76.5463 163.336 76.787C163.589 77.015 163.931 77.129 164.362 77.129ZM168.836 78.744L169.539 76.54C169.818 76.654 170.141 76.7617 170.508 76.863C170.888 76.9517 171.275 77.0277 171.667 77.091C172.06 77.1417 172.421 77.167 172.75 77.167C173.13 77.167 173.434 77.129 173.662 77.053C173.89 76.977 174.055 76.8757 174.156 76.749C174.258 76.6097 174.308 76.4513 174.308 76.274C174.308 76.0713 174.226 75.9003 174.061 75.761C173.909 75.6217 173.7 75.5013 173.434 75.4C173.181 75.2987 172.902 75.1973 172.598 75.096C172.294 74.9947 171.984 74.8743 171.667 74.735C171.363 74.583 171.078 74.3993 170.812 74.184C170.559 73.9687 170.35 73.6963 170.185 73.367C170.033 73.0377 169.957 72.6323 169.957 72.151C169.957 71.5937 170.052 71.106 170.242 70.688C170.445 70.2573 170.736 69.8963 171.116 69.605C171.509 69.301 171.99 69.073 172.56 68.921C173.13 68.7563 173.783 68.674 174.517 68.674C175.138 68.674 175.714 68.7247 176.246 68.826C176.778 68.9273 177.247 69.054 177.652 69.206L176.968 71.41C176.702 71.3213 176.411 71.2453 176.094 71.182C175.778 71.106 175.461 71.049 175.144 71.011C174.828 70.973 174.53 70.954 174.251 70.954C173.897 70.954 173.605 70.992 173.377 71.068C173.162 71.144 173.004 71.2453 172.902 71.372C172.814 71.4987 172.769 71.6507 172.769 71.828C172.769 72.018 172.845 72.1763 172.997 72.303C173.162 72.417 173.371 72.5183 173.624 72.607C173.89 72.6957 174.175 72.7907 174.479 72.892C174.796 72.9933 175.106 73.1137 175.41 73.253C175.727 73.3923 176.012 73.5697 176.265 73.785C176.531 74.0003 176.74 74.2727 176.892 74.602C177.044 74.9187 177.12 75.3177 177.12 75.799C177.12 76.331 177.044 76.7997 176.892 77.205C176.753 77.5977 176.544 77.9333 176.265 78.212C175.999 78.4907 175.676 78.7187 175.296 78.896C174.929 79.0607 174.517 79.181 174.061 79.257C173.605 79.3457 173.118 79.39 172.598 79.39C171.826 79.39 171.135 79.3267 170.527 79.2C169.932 79.086 169.368 78.934 168.836 78.744Z" fill="#363636"/>
</g>
<defs>
<filter id="filter0_d_983_1962" x="0" y="0" width="212.798" height="114" filterUnits="userSpaceOnUse" color-interpolation-filters="sRGB">
<feFlood flood-opacity="0" result="BackgroundImageFix"/>
<feColorMatrix in="SourceAlpha" type="matrix" values="0 0 0 0 0 0 0 0 0 0 0 0 0 0 0 0 0 0 127 0" result="hardAlpha"/>
<feMorphology radius="2" operator="erode" in="SourceAlpha" result="effect1_dropShadow_983_1962"/>
<feOffset dy="2"/>
<feGaussianBlur stdDeviation="4"/>
<feComposite in2="hardAlpha" operator="out"/>
<feColorMatrix type="matrix" values="0 0 0 0 0.133333 0 0 0 0 0.133333 0 0 0 0 0.133333 0 0 0 0.4 0"/>
<feBlend mode="normal" in2="BackgroundImageFix" result="effect1_dropShadow_983_1962"/>
<feBlend mode="normal" in="SourceGraphic" in2="effect1_dropShadow_983_1962" result="shape"/>
</filter>
</defs>
</svg>
