<svg width="470" height="239" viewBox="0 0 470 239" fill="none" xmlns="http://www.w3.org/2000/svg">
<path d="M445.79 0H23.3645C10.4606 0 0 10.4606 0 23.3645V214.953C0 227.857 10.4606 238.318 23.3645 238.318H445.79C458.694 238.318 469.154 227.857 469.154 214.953V23.3645C469.154 10.4606 458.694 0 445.79 0Z" fill="#FF99A7"/>
<path fill-rule="evenodd" clip-rule="evenodd" d="M90.6041 62.5329C79.1594 63.7061 68.7263 67.96 59.6499 75.1542C56.9884 77.2635 52.8024 81.4498 50.6641 84.1404C45.927 90.1014 42.1027 97.4005 40.1347 104.237C38.5286 109.817 37.855 114.703 37.8555 120.772C37.8559 126.807 38.5328 131.844 40.048 137.088C42.0538 144.03 46.0127 151.663 50.5851 157.407C52.3295 159.597 57.4847 164.752 59.6753 166.496C67.6277 172.828 77.0758 176.987 87.298 178.658C90.9293 179.251 98.9337 179.393 102.915 178.935C121.806 176.762 138.205 165.793 147.52 149.099C150.94 142.969 153.162 136.273 154.296 128.681C154.804 125.278 154.806 116.288 154.299 112.866C151.925 96.8355 143.898 83.3325 131.033 73.7297C123.468 68.0827 114.522 64.3748 104.917 62.9044C101.817 62.4297 93.6725 62.2182 90.6041 62.5329ZM76.6641 95.1005C76.7865 95.3297 76.4447 100.986 75.6746 111.465C74.3335 129.717 74.2936 130.907 74.958 132.784C75.9795 135.669 77.7059 137.512 80.759 138.976C87.334 142.129 95.2127 143.128 103.001 141.795C107.001 141.111 111.934 139.257 114.103 137.622C116.615 135.73 118.128 132.75 118.13 129.689C118.13 129.025 117.586 121.018 116.92 111.897C115.99 99.1528 115.763 95.2479 115.943 95.0315C116.133 94.8026 117.168 94.7507 121.507 94.753C124.439 94.7549 126.966 94.8374 127.122 94.9364C127.347 95.079 127.652 98.422 128.579 110.898C129.874 128.339 129.973 130.827 129.473 133.399C128.015 140.903 123.383 146.587 116.06 149.857C113.334 151.074 109.296 152.418 106.658 152.986C102.219 153.943 95.8309 154.274 91.0756 153.794C84.1148 153.093 75.7571 150.191 71.5375 147.011C66.577 143.274 63.5218 137.857 62.8569 131.622C62.6466 129.649 62.7253 128.155 63.8625 112.566C64.541 103.263 65.1807 95.4484 65.2842 95.2005L65.4721 94.75H70.9744C76.0101 94.75 76.4929 94.7797 76.6641 95.1005Z" fill="#363636"/>
<path d="M183.965 110.281L195.531 85.4678H198.965L202.856 110.281H199.771L198.825 103.867H190.028L187.049 110.281H183.965ZM190.94 101.554H198.65L196.863 88.2715L190.94 101.554ZM210.924 110.631C209.429 110.631 208.167 110.374 207.139 109.86C206.111 109.346 205.329 108.61 204.791 107.652C204.277 106.694 204.02 105.538 204.02 104.183C204.02 102.29 204.242 100.55 204.686 98.9608C205.13 97.3486 205.784 95.9584 206.649 94.7902C207.513 93.622 208.553 92.7224 209.768 92.0916C210.983 91.4608 212.35 91.1453 213.868 91.1453C214.429 91.1453 214.99 91.1687 215.551 91.2154C216.111 91.2622 216.672 91.3323 217.233 91.4257C217.792 91.5192 218.33 91.6594 218.844 91.8463L218.038 94.1594C217.268 93.9491 216.532 93.8089 215.831 93.7388C215.153 93.6453 214.464 93.5986 213.763 93.5986C212.735 93.5986 211.801 93.8556 210.959 94.3696C210.118 94.8837 209.382 95.608 208.752 96.5425C208.121 97.4771 207.63 98.5636 207.28 99.8019C206.929 101.017 206.754 102.325 206.754 103.727C206.754 104.685 206.952 105.503 207.35 106.18C207.77 106.835 208.343 107.337 209.067 107.687C209.791 108.038 210.656 108.213 211.66 108.213C212.221 108.213 212.759 108.19 213.273 108.143C213.787 108.096 214.277 108.026 214.745 107.933C215.235 107.839 215.702 107.722 216.146 107.582L216.427 109.79C215.913 109.954 215.364 110.106 214.78 110.246C214.195 110.363 213.576 110.456 212.922 110.526C212.291 110.596 211.625 110.631 210.924 110.631ZM220.145 100.187C220.823 100.234 221.535 100.234 222.283 100.187C223.054 100.117 223.802 100.024 224.526 99.907C226.419 99.6033 227.891 99.101 228.942 98.4C230.017 97.6757 230.554 96.7411 230.554 95.5963C230.554 94.8486 230.297 94.2879 229.783 93.914C229.292 93.5168 228.533 93.3182 227.505 93.3182C226.173 93.3182 224.982 93.7388 223.93 94.5799C222.879 95.3977 222.061 96.5425 221.477 98.0145C220.893 99.4631 220.601 101.157 220.601 103.096C220.601 104.218 220.776 105.176 221.127 105.97C221.5 106.741 222.038 107.325 222.739 107.722C223.463 108.096 224.339 108.283 225.367 108.283C225.905 108.283 226.465 108.236 227.049 108.143C227.657 108.05 228.276 107.921 228.907 107.757C229.561 107.594 230.215 107.384 230.87 107.127L231.29 109.37C230.356 109.767 229.327 110.071 228.206 110.281C227.108 110.515 226.01 110.631 224.912 110.631C223.416 110.631 222.143 110.351 221.091 109.79C220.04 109.206 219.234 108.377 218.673 107.302C218.136 106.204 217.867 104.895 217.867 103.377C217.867 101.578 218.089 99.9304 218.533 98.4351C219 96.9397 219.666 95.6547 220.531 94.5799C221.419 93.4818 222.482 92.6407 223.72 92.0566C224.982 91.4491 226.407 91.1453 227.996 91.1453C229.07 91.1453 230.005 91.3089 230.799 91.636C231.594 91.9631 232.201 92.4304 232.622 93.0379C233.066 93.6453 233.288 94.3696 233.288 95.2108C233.288 96.9164 232.563 98.3416 231.115 99.4865C229.69 100.631 227.704 101.414 225.157 101.835C224.222 101.998 223.311 102.103 222.423 102.15C221.535 102.173 220.706 102.162 219.935 102.115L220.145 100.187ZM231.886 109.51L232.622 107.302C233.113 107.489 233.673 107.676 234.304 107.863C234.935 108.026 235.601 108.166 236.302 108.283C237.003 108.377 237.692 108.423 238.37 108.423C239.468 108.423 240.356 108.295 241.033 108.038C241.734 107.781 242.248 107.43 242.575 106.986C242.902 106.519 243.066 105.993 243.066 105.409C243.066 104.802 242.902 104.3 242.575 103.902C242.271 103.505 241.851 103.155 241.313 102.851C240.799 102.547 240.227 102.279 239.596 102.045C238.989 101.788 238.37 101.519 237.739 101.239C237.131 100.935 236.559 100.585 236.021 100.187C235.507 99.7902 235.087 99.2995 234.76 98.7154C234.456 98.108 234.304 97.3837 234.304 96.5425C234.304 95.7248 234.444 94.9888 234.725 94.3346C235.028 93.6804 235.484 93.1196 236.091 92.6524C236.699 92.1617 237.47 91.7879 238.405 91.5309C239.339 91.2738 240.437 91.1453 241.699 91.1453C242.657 91.1453 243.591 91.2271 244.503 91.3907C245.414 91.5542 246.197 91.7762 246.851 92.0566L246.15 94.2295C245.706 94.0659 245.215 93.9257 244.678 93.8089C244.164 93.6687 243.627 93.5636 243.066 93.4935C242.528 93.4 241.979 93.3533 241.419 93.3533C240.367 93.3533 239.514 93.4818 238.86 93.7388C238.206 93.9958 237.727 94.3463 237.423 94.7902C237.12 95.2108 236.968 95.7014 236.968 96.2622C236.968 96.8463 237.12 97.3369 237.423 97.7341C237.75 98.108 238.171 98.4467 238.685 98.7505C239.222 99.0309 239.795 99.2995 240.402 99.5566C241.033 99.7902 241.652 100.059 242.26 100.363C242.891 100.643 243.463 100.982 243.977 101.379C244.514 101.776 244.935 102.267 245.239 102.851C245.566 103.435 245.729 104.148 245.729 104.989C245.729 105.736 245.624 106.414 245.414 107.022C245.204 107.606 244.888 108.12 244.468 108.564C244.047 109.007 243.533 109.393 242.926 109.72C242.318 110.024 241.617 110.246 240.823 110.386C240.028 110.55 239.141 110.631 238.159 110.631C236.874 110.631 235.706 110.526 234.655 110.316C233.627 110.106 232.704 109.837 231.886 109.51ZM245.458 109.51L246.194 107.302C246.685 107.489 247.246 107.676 247.877 107.863C248.507 108.026 249.173 108.166 249.874 108.283C250.575 108.377 251.264 108.423 251.942 108.423C253.04 108.423 253.928 108.295 254.606 108.038C255.306 107.781 255.82 107.43 256.148 106.986C256.475 106.519 256.638 105.993 256.638 105.409C256.638 104.802 256.475 104.3 256.148 103.902C255.844 103.505 255.423 103.155 254.886 102.851C254.372 102.547 253.799 102.279 253.169 102.045C252.561 101.788 251.942 101.519 251.311 101.239C250.704 100.935 250.131 100.585 249.594 100.187C249.08 99.7902 248.659 99.2995 248.332 98.7154C248.028 98.108 247.877 97.3837 247.877 96.5425C247.877 95.7248 248.017 94.9888 248.297 94.3346C248.601 93.6804 249.056 93.1196 249.664 92.6524C250.271 92.1617 251.042 91.7879 251.977 91.5309C252.912 91.2738 254.01 91.1453 255.271 91.1453C256.229 91.1453 257.164 91.2271 258.075 91.3907C258.986 91.5542 259.769 91.7762 260.423 92.0566L259.722 94.2295C259.278 94.0659 258.788 93.9257 258.25 93.8089C257.736 93.6687 257.199 93.5636 256.638 93.4935C256.101 93.4 255.552 93.3533 254.991 93.3533C253.94 93.3533 253.087 93.4818 252.433 93.7388C251.778 93.9958 251.299 94.3463 250.996 94.7902C250.692 95.2108 250.54 95.7014 250.54 96.2622C250.54 96.8463 250.692 97.3369 250.996 97.7341C251.323 98.108 251.743 98.4467 252.257 98.7505C252.795 99.0309 253.367 99.2995 253.975 99.5566C254.606 99.7902 255.225 100.059 255.832 100.363C256.463 100.643 257.035 100.982 257.549 101.379C258.087 101.776 258.507 102.267 258.811 102.851C259.138 103.435 259.302 104.148 259.302 104.989C259.302 105.736 259.197 106.414 258.986 107.022C258.776 107.606 258.461 108.12 258.04 108.564C257.62 109.007 257.106 109.393 256.498 109.72C255.891 110.024 255.19 110.246 254.395 110.386C253.601 110.55 252.713 110.631 251.732 110.631C250.447 110.631 249.278 110.526 248.227 110.316C247.199 110.106 246.276 109.837 245.458 109.51ZM267.332 110.631C265.86 110.631 264.634 110.398 263.652 109.93C262.671 109.44 261.923 108.704 261.409 107.722C260.895 106.741 260.638 105.503 260.638 104.007C260.638 102.909 260.708 101.846 260.849 100.818C261.012 99.7668 261.246 98.7622 261.549 97.8042C261.853 96.8229 262.239 95.9351 262.706 95.1407C263.173 94.3229 263.722 93.6103 264.353 93.0028C264.984 92.3953 265.697 91.9281 266.491 91.601C267.309 91.2738 268.197 91.1103 269.155 91.1103C270.556 91.1103 271.748 91.3556 272.729 91.8463C273.711 92.3369 274.458 93.0846 274.972 94.0893C275.51 95.0706 275.778 96.3089 275.778 97.8042C275.778 98.9491 275.697 100.059 275.533 101.134C275.393 102.185 275.171 103.19 274.867 104.148C274.563 105.106 274.178 105.982 273.711 106.776C273.267 107.571 272.729 108.26 272.098 108.844C271.491 109.405 270.79 109.849 269.996 110.176C269.201 110.479 268.313 110.631 267.332 110.631ZM267.227 108.423C267.881 108.423 268.477 108.283 269.014 108.003C269.575 107.699 270.066 107.302 270.486 106.811C270.907 106.297 271.281 105.701 271.608 105.024C271.935 104.346 272.204 103.61 272.414 102.816C272.624 101.998 272.776 101.157 272.87 100.293C272.986 99.428 273.045 98.5519 273.045 97.664C273.045 96.1921 272.694 95.1056 271.993 94.4047C271.316 93.6804 270.381 93.3182 269.19 93.3182C268.535 93.3182 267.94 93.4701 267.402 93.7738C266.865 94.0776 266.374 94.4981 265.93 95.0355C265.486 95.5495 265.101 96.157 264.774 96.858C264.47 97.5355 264.201 98.2715 263.968 99.0659C263.757 99.8603 263.594 100.678 263.477 101.519C263.384 102.337 263.337 103.155 263.337 103.972C263.337 105.514 263.664 106.648 264.318 107.372C264.996 108.073 265.965 108.423 267.227 108.423ZM201.685 162.173C198.479 162.173 195.764 161.732 193.54 160.849C191.349 159.965 189.68 158.608 188.535 156.776C187.423 154.944 186.867 152.606 186.867 149.76C186.867 146.26 187.276 143.103 188.094 140.29C188.912 137.477 190.089 135.073 191.627 133.078C193.197 131.082 195.077 129.545 197.269 128.465C199.493 127.386 201.996 126.846 204.776 126.846C205.986 126.846 207.164 126.895 208.309 126.993C209.454 127.092 210.582 127.272 211.694 127.533C212.839 127.762 213.935 128.106 214.982 128.564L213.019 134.599C212.267 134.37 211.465 134.173 210.615 134.01C209.764 133.846 208.881 133.715 207.965 133.617C207.082 133.486 206.183 133.421 205.267 133.421C203.599 133.421 202.127 133.797 200.851 134.55C199.575 135.302 198.496 136.381 197.613 137.788C196.729 139.162 196.042 140.781 195.552 142.645C195.094 144.51 194.865 146.522 194.865 148.68C194.865 150.414 195.192 151.788 195.846 152.802C196.5 153.783 197.433 154.503 198.643 154.961C199.886 155.386 201.391 155.599 203.157 155.599C204.433 155.599 205.659 155.517 206.837 155.353C208.014 155.157 209.176 154.944 210.32 154.715L210.811 160.996C209.339 161.388 207.867 161.683 206.395 161.879C204.923 162.075 203.353 162.173 201.685 162.173ZM223.391 162.173C220.937 162.173 218.877 161.797 217.209 161.045C215.574 160.26 214.331 159.115 213.48 157.61C212.63 156.073 212.205 154.143 212.205 151.821C212.205 150.283 212.303 148.795 212.499 147.356C212.728 145.916 213.055 144.559 213.48 143.283C213.938 141.975 214.511 140.797 215.198 139.75C215.917 138.671 216.751 137.739 217.7 136.954C218.68 136.136 219.792 135.515 221.035 135.089C222.278 134.664 223.669 134.451 225.206 134.451C227.528 134.451 229.491 134.844 231.094 135.629C232.729 136.381 233.972 137.526 234.823 139.064C235.706 140.601 236.148 142.531 236.148 144.853C236.148 146.423 236.033 147.944 235.804 149.416C235.575 150.888 235.232 152.262 234.774 153.538C234.348 154.814 233.792 155.991 233.106 157.071C232.419 158.117 231.601 159.033 230.652 159.818C229.736 160.571 228.657 161.159 227.414 161.585C226.204 161.977 224.863 162.173 223.391 162.173ZM223.292 156.335C223.947 156.302 224.535 156.106 225.059 155.746C225.582 155.386 226.04 154.895 226.433 154.274C226.825 153.652 227.152 152.933 227.414 152.115C227.708 151.297 227.937 150.43 228.101 149.515C228.297 148.599 228.428 147.666 228.493 146.718C228.559 145.769 228.591 144.87 228.591 144.019C228.559 142.711 228.215 141.762 227.561 141.173C226.907 140.585 226.056 140.29 225.01 140.29C224.356 140.29 223.767 140.486 223.243 140.879C222.72 141.272 222.246 141.795 221.82 142.449C221.428 143.071 221.084 143.79 220.79 144.608C220.528 145.426 220.299 146.293 220.103 147.208C219.94 148.092 219.825 148.975 219.76 149.858C219.694 150.741 219.662 151.592 219.662 152.409C219.694 153.816 220.021 154.83 220.643 155.451C221.297 156.04 222.18 156.335 223.292 156.335ZM248.601 162.173C246.148 162.173 244.087 161.797 242.419 161.045C240.783 160.26 239.54 159.115 238.69 157.61C237.839 156.073 237.414 154.143 237.414 151.821C237.414 150.283 237.512 148.795 237.708 147.356C237.937 145.916 238.264 144.559 238.69 143.283C239.148 141.975 239.72 140.797 240.407 139.75C241.127 138.671 241.961 137.739 242.909 136.954C243.891 136.136 245.003 135.515 246.246 135.089C247.489 134.664 248.879 134.451 250.416 134.451C252.739 134.451 254.701 134.844 256.304 135.629C257.94 136.381 259.183 137.526 260.033 139.064C260.916 140.601 261.358 142.531 261.358 144.853C261.358 146.423 261.243 147.944 261.014 149.416C260.785 150.888 260.442 152.262 259.984 153.538C259.559 154.814 259.003 155.991 258.316 157.071C257.629 158.117 256.811 159.033 255.863 159.818C254.947 160.571 253.867 161.159 252.624 161.585C251.414 161.977 250.073 162.173 248.601 162.173ZM248.503 156.335C249.157 156.302 249.746 156.106 250.269 155.746C250.792 155.386 251.25 154.895 251.643 154.274C252.035 153.652 252.363 152.933 252.624 152.115C252.919 151.297 253.148 150.43 253.311 149.515C253.507 148.599 253.638 147.666 253.704 146.718C253.769 145.769 253.802 144.87 253.802 144.019C253.769 142.711 253.426 141.762 252.771 141.173C252.117 140.585 251.267 140.29 250.22 140.29C249.566 140.29 248.977 140.486 248.454 140.879C247.93 141.272 247.456 141.795 247.031 142.449C246.638 143.071 246.295 143.79 246 144.608C245.739 145.426 245.51 146.293 245.313 147.208C245.15 148.092 245.035 148.975 244.97 149.858C244.905 150.741 244.872 151.592 244.872 152.409C244.905 153.816 245.232 154.83 245.853 155.451C246.507 156.04 247.391 156.335 248.503 156.335ZM260.024 171.986L265.863 134.893H272.683L272.535 137.199C273.713 136.414 274.891 135.776 276.068 135.286C277.278 134.762 278.62 134.5 280.091 134.5C281.792 134.5 283.183 134.86 284.262 135.58C285.374 136.267 286.192 137.297 286.715 138.671C287.271 140.045 287.549 141.746 287.549 143.774C287.549 146.293 287.255 148.68 286.666 150.937C286.077 153.162 285.194 155.108 284.017 156.776C282.872 158.444 281.416 159.753 279.65 160.701C277.884 161.65 275.839 162.124 273.517 162.124C272.634 162.124 271.816 162.075 271.063 161.977C270.311 161.879 269.673 161.781 269.15 161.683L267.482 171.986H260.024ZM272.928 156.384C274.073 156.384 275.087 156.073 275.97 155.451C276.853 154.797 277.589 153.947 278.178 152.9C278.767 151.821 279.208 150.643 279.503 149.367C279.797 148.092 279.944 146.816 279.944 145.54C279.944 143.97 279.666 142.825 279.11 142.106C278.587 141.386 277.736 141.026 276.559 141.026C275.839 141.026 275.103 141.157 274.351 141.419C273.599 141.648 272.879 141.975 272.192 142.4L270.082 155.893C270.475 156.057 270.9 156.187 271.358 156.286C271.849 156.351 272.372 156.384 272.928 156.384ZM294.486 147.012C295.141 147.078 295.86 147.078 296.645 147.012C297.463 146.947 298.248 146.865 299 146.767C300.93 146.44 302.435 145.9 303.514 145.148C304.594 144.395 305.134 143.447 305.134 142.302C305.134 141.582 304.937 141.059 304.545 140.732C304.152 140.372 303.498 140.192 302.582 140.192C301.306 140.192 300.145 140.617 299.098 141.468C298.084 142.318 297.283 143.529 296.694 145.099C296.138 146.636 295.844 148.468 295.811 150.594C295.811 151.902 295.991 152.949 296.351 153.734C296.711 154.519 297.283 155.075 298.068 155.402C298.886 155.729 299.933 155.893 301.208 155.893C301.83 155.893 302.533 155.844 303.318 155.746C304.103 155.648 304.954 155.5 305.87 155.304C306.818 155.075 307.767 154.781 308.715 154.421L309.648 160.456C308.143 161.045 306.54 161.47 304.839 161.732C303.138 162.026 301.47 162.173 299.834 162.173C297.381 162.173 295.304 161.764 293.603 160.947C291.902 160.096 290.594 158.87 289.678 157.267C288.795 155.664 288.353 153.75 288.353 151.526C288.353 149.106 288.68 146.865 289.334 144.804C289.989 142.743 290.954 140.944 292.229 139.407C293.538 137.87 295.141 136.676 297.038 135.825C298.968 134.942 301.192 134.5 303.711 134.5C305.51 134.5 307.063 134.779 308.372 135.335C309.713 135.891 310.743 136.676 311.463 137.69C312.183 138.671 312.542 139.865 312.542 141.272C312.542 143.79 311.528 145.933 309.5 147.699C307.472 149.433 304.659 150.578 301.061 151.134C299.753 151.33 298.51 151.444 297.332 151.477C296.187 151.51 295.091 151.493 294.045 151.428L294.486 147.012ZM322.666 134.991L322.176 138.082C323.157 137.232 324.056 136.545 324.874 136.022C325.692 135.498 326.461 135.122 327.18 134.893C327.9 134.631 328.652 134.5 329.437 134.5C329.993 134.5 330.533 134.55 331.056 134.648C331.613 134.713 332.136 134.844 332.627 135.04L330.419 142.302C329.863 142.138 329.306 142.024 328.75 141.958C328.227 141.893 327.736 141.86 327.278 141.86C326.493 141.86 325.676 141.991 324.825 142.253C324.007 142.514 323.075 143.005 322.028 143.725L319.134 161.683H311.676L315.944 134.991H322.666ZM350.222 162.173C349.503 162.173 348.816 162.075 348.162 161.879C347.54 161.683 346.968 161.388 346.444 160.996C345.954 160.571 345.545 160.08 345.218 159.524C344.531 160.08 343.778 160.554 342.961 160.947C342.176 161.339 341.342 161.634 340.458 161.83C339.608 162.059 338.708 162.173 337.76 162.173C336.157 162.173 334.767 161.83 333.589 161.143C332.412 160.423 331.479 159.36 330.792 157.954C330.138 156.547 329.811 154.797 329.811 152.704C329.811 148.746 330.416 145.426 331.627 142.743C332.87 140.029 334.62 137.984 336.877 136.61C339.166 135.204 341.881 134.5 345.021 134.5C345.937 134.5 346.886 134.55 347.867 134.648C348.849 134.746 349.797 134.877 350.713 135.04C351.662 135.204 352.545 135.384 353.363 135.58C354.213 135.776 354.965 135.989 355.62 136.218C355.129 139.26 354.704 141.844 354.344 143.97C354.017 146.064 353.739 147.781 353.51 149.122C353.313 150.463 353.15 151.51 353.019 152.262C352.888 153.015 352.79 153.571 352.725 153.93C352.692 154.257 352.676 154.454 352.676 154.519C352.676 154.912 352.757 155.206 352.921 155.402C353.085 155.599 353.346 155.697 353.706 155.697C353.837 155.697 353.984 155.697 354.148 155.697C354.344 155.664 354.524 155.615 354.687 155.55L354.295 161.339C353.804 161.568 353.183 161.765 352.43 161.928C351.711 162.092 350.975 162.173 350.222 162.173ZM345.07 154.617L347.229 140.977C346.804 140.781 346.33 140.65 345.806 140.585C345.316 140.519 344.792 140.486 344.236 140.486C342.993 140.486 341.848 140.977 340.802 141.958C339.788 142.907 338.986 144.215 338.398 145.884C337.809 147.552 337.514 149.416 337.514 151.477C337.514 152.884 337.825 153.947 338.447 154.666C339.101 155.386 339.935 155.746 340.949 155.746C341.407 155.746 341.881 155.697 342.372 155.599C342.863 155.5 343.337 155.37 343.795 155.206C344.285 155.01 344.711 154.814 345.07 154.617ZM376.437 162.173C375.685 162.173 374.982 162.075 374.327 161.879C373.673 161.683 373.101 161.388 372.61 160.996C372.12 160.571 371.711 160.096 371.384 159.573C370.762 160.064 370.042 160.505 369.225 160.898C368.44 161.29 367.606 161.601 366.722 161.83C365.839 162.059 364.94 162.173 364.024 162.173C362.421 162.173 361.014 161.846 359.804 161.192C358.627 160.505 357.694 159.458 357.007 158.052C356.353 156.645 356.026 154.863 356.026 152.704C356.026 149.793 356.37 147.225 357.056 145C357.743 142.743 358.708 140.846 359.951 139.309C361.194 137.739 362.617 136.545 364.22 135.727C365.856 134.909 367.622 134.5 369.519 134.5C370.468 134.5 371.334 134.566 372.12 134.697C372.937 134.828 373.673 135.007 374.327 135.236L375.898 125.374H383.405C383.306 126.061 383.159 127.01 382.963 128.22C382.799 129.398 382.587 130.739 382.325 132.243C382.096 133.715 381.851 135.286 381.589 136.954C381.327 138.589 381.066 140.225 380.804 141.86C380.575 143.496 380.33 145.066 380.068 146.571C379.839 148.075 379.627 149.416 379.43 150.594C379.267 151.772 379.136 152.72 379.038 153.44C378.94 154.159 378.891 154.568 378.891 154.666C378.891 154.993 378.956 155.255 379.087 155.451C379.25 155.615 379.512 155.697 379.872 155.697C380.035 155.697 380.199 155.697 380.363 155.697C380.526 155.664 380.69 155.615 380.853 155.55L380.461 161.339C379.937 161.601 379.299 161.797 378.547 161.928C377.795 162.092 377.091 162.173 376.437 162.173ZM367.066 155.697C367.753 155.697 368.472 155.599 369.225 155.402C369.977 155.206 370.648 154.944 371.236 154.617L373.444 140.928C372.986 140.764 372.496 140.65 371.972 140.585C371.482 140.519 370.942 140.486 370.353 140.486C369.405 140.486 368.505 140.797 367.655 141.419C366.837 142.04 366.134 142.907 365.545 144.019C364.956 145.099 364.482 146.342 364.122 147.748C363.795 149.122 363.631 150.561 363.631 152.066C363.631 152.818 363.778 153.472 364.073 154.029C364.367 154.585 364.776 155.01 365.299 155.304C365.823 155.566 366.412 155.697 367.066 155.697ZM393.622 162.173C391.169 162.173 389.108 161.797 387.44 161.045C385.804 160.26 384.561 159.115 383.711 157.61C382.86 156.073 382.435 154.143 382.435 151.821C382.435 150.283 382.533 148.795 382.729 147.356C382.958 145.916 383.285 144.559 383.711 143.283C384.169 141.975 384.741 140.797 385.428 139.75C386.148 138.671 386.982 137.739 387.93 136.954C388.912 136.136 390.024 135.515 391.267 135.089C392.51 134.664 393.9 134.451 395.437 134.451C397.76 134.451 399.722 134.844 401.325 135.629C402.961 136.381 404.204 137.526 405.054 139.064C405.937 140.601 406.379 142.531 406.379 144.853C406.379 146.423 406.264 147.944 406.035 149.416C405.806 150.888 405.463 152.262 405.005 153.538C404.58 154.814 404.024 155.991 403.337 157.071C402.65 158.117 401.832 159.033 400.884 159.818C399.968 160.571 398.888 161.159 397.645 161.585C396.435 161.977 395.094 162.173 393.622 162.173ZM393.524 156.335C394.178 156.302 394.767 156.106 395.29 155.746C395.813 155.386 396.271 154.895 396.664 154.274C397.056 153.652 397.384 152.933 397.645 152.115C397.94 151.297 398.169 150.43 398.332 149.515C398.528 148.599 398.659 147.666 398.725 146.718C398.79 145.769 398.823 144.87 398.823 144.019C398.79 142.711 398.447 141.762 397.792 141.173C397.138 140.585 396.288 140.29 395.241 140.29C394.587 140.29 393.998 140.486 393.475 140.879C392.951 141.272 392.477 141.795 392.052 142.449C391.659 143.071 391.316 143.79 391.021 144.608C390.76 145.426 390.531 146.293 390.334 147.208C390.171 148.092 390.056 148.975 389.991 149.858C389.926 150.741 389.893 151.592 389.893 152.409C389.926 153.816 390.253 154.83 390.874 155.451C391.528 156.04 392.412 156.335 393.524 156.335ZM405.199 160.505L407.014 154.814C407.734 155.108 408.568 155.386 409.517 155.648C410.498 155.877 411.496 156.073 412.51 156.236C413.524 156.367 414.456 156.433 415.306 156.433C416.288 156.433 417.073 156.335 417.662 156.138C418.25 155.942 418.676 155.68 418.937 155.353C419.199 154.993 419.33 154.585 419.33 154.127C419.33 153.603 419.117 153.162 418.692 152.802C418.299 152.442 417.76 152.131 417.073 151.87C416.419 151.608 415.699 151.346 414.914 151.085C414.129 150.823 413.327 150.512 412.51 150.152C411.725 149.76 410.989 149.286 410.302 148.729C409.648 148.173 409.108 147.47 408.683 146.62C408.29 145.769 408.094 144.722 408.094 143.479C408.094 142.04 408.339 140.781 408.83 139.701C409.353 138.589 410.106 137.657 411.087 136.905C412.101 136.12 413.344 135.531 414.816 135.138C416.288 134.713 417.972 134.5 419.87 134.5C421.472 134.5 422.961 134.631 424.334 134.893C425.708 135.155 426.919 135.482 427.965 135.874L426.199 141.566C425.512 141.337 424.76 141.141 423.942 140.977C423.124 140.781 422.306 140.634 421.489 140.536C420.671 140.437 419.902 140.388 419.183 140.388C418.267 140.388 417.514 140.486 416.926 140.683C416.37 140.879 415.961 141.141 415.699 141.468C415.47 141.795 415.356 142.187 415.356 142.645C415.356 143.136 415.552 143.545 415.944 143.872C416.37 144.166 416.909 144.428 417.563 144.657C418.25 144.886 418.986 145.131 419.771 145.393C420.589 145.655 421.391 145.965 422.176 146.325C422.993 146.685 423.729 147.143 424.384 147.699C425.07 148.255 425.61 148.958 426.003 149.809C426.395 150.627 426.591 151.657 426.591 152.9C426.591 154.274 426.395 155.484 426.003 156.531C425.643 157.545 425.103 158.412 424.384 159.131C423.697 159.851 422.863 160.44 421.881 160.898C420.933 161.323 419.87 161.634 418.692 161.83C417.514 162.059 416.255 162.173 414.914 162.173C412.919 162.173 411.136 162.01 409.566 161.683C408.028 161.388 406.573 160.996 405.199 160.505Z" fill="#363636"/>
</svg>
