<svg width="49" height="49" viewBox="0 0 49 49" fill="none" xmlns="http://www.w3.org/2000/svg">
<path d="M42.99 16.3102C44.0509 16.3102 45.0683 16.7317 45.8184 17.4818C46.5686 18.2319 46.99 19.2494 46.99 20.3102V28.3102C46.99 29.3711 46.5686 30.3885 45.8184 31.1387C45.0683 31.8888 44.0509 32.3102 42.99 32.3102H40.866C40.3784 36.1768 38.4965 39.7326 35.5735 42.3102C32.6505 44.8879 28.8872 46.3102 24.99 46.3102V42.3102C28.1726 42.3102 31.2248 41.0459 33.4753 38.7955C35.7257 36.5451 36.99 33.4928 36.99 30.3102V18.3102C36.99 15.1276 35.7257 12.0754 33.4753 9.82494C31.2248 7.57451 28.1726 6.31023 24.99 6.31023C21.8074 6.31023 18.7551 7.57451 16.5047 9.82494C14.2543 12.0754 12.99 15.1276 12.99 18.3102V32.3102H6.98999C5.92912 32.3102 4.91171 31.8888 4.16156 31.1387C3.41142 30.3885 2.98999 29.3711 2.98999 28.3102V20.3102C2.98999 19.2494 3.41142 18.2319 4.16156 17.4818C4.91171 16.7317 5.92912 16.3102 6.98999 16.3102H9.11399C9.60205 12.444 11.4841 8.88877 14.4071 6.31158C17.3301 3.73438 21.0931 2.31238 24.99 2.31238C28.8869 2.31238 32.6499 3.73438 35.5728 6.31158C38.4958 8.88877 40.3779 12.444 40.866 16.3102H42.99ZM16.51 31.8802L18.63 28.4882C20.5361 29.6823 22.7407 30.3139 24.99 30.3102C27.2393 30.3139 29.4438 29.6823 31.35 28.4882L33.47 31.8802C30.9285 33.4725 27.9891 34.3148 24.99 34.3102C21.9909 34.3149 19.0514 33.4726 16.51 31.8802Z" fill="white"/>
</svg>
