<svg width="48" height="48" viewBox="0 0 48 48" fill="none" xmlns="http://www.w3.org/2000/svg">
<g clip-path="url(#clip0_1094_448)">
<path d="M24 0.220215C37.2552 0.220215 48 10.965 48 24.2202C48 37.4754 37.2552 48.2202 24 48.2202C10.7448 48.2202 0 37.4754 0 24.2202C0 10.965 10.7448 0.220215 24 0.220215ZM24 33.8202C23.3635 33.8202 22.753 34.0731 22.3029 34.5232C21.8529 34.9732 21.6 35.5837 21.6 36.2202C21.6 36.8567 21.8529 37.4672 22.3029 37.9173C22.753 38.3674 23.3635 38.6202 24 38.6202C24.6365 38.6202 25.247 38.3674 25.6971 37.9173C26.1471 37.4672 26.4 36.8567 26.4 36.2202C26.4 35.5837 26.1471 34.9732 25.6971 34.5232C25.247 34.0731 24.6365 33.8202 24 33.8202ZM24 11.0202C21.6926 11.0202 19.4797 11.9368 17.8482 13.5684C16.2166 15.2 15.3 17.4128 15.3 19.7202C15.3 20.3567 15.5529 20.9672 16.0029 21.4173C16.453 21.8674 17.0635 22.1202 17.7 22.1202C18.3365 22.1202 18.947 21.8674 19.3971 21.4173C19.8471 20.9672 20.1 20.3567 20.1 19.7202C20.1008 19.0123 20.2943 18.318 20.6596 17.7116C21.025 17.1053 21.5486 16.6099 22.1741 16.2784C22.7996 15.947 23.5036 15.7921 24.2105 15.8303C24.9173 15.8685 25.6005 16.0984 26.1867 16.4953C26.7728 16.8922 27.2399 17.4412 27.5378 18.0833C27.8358 18.7255 27.9533 19.4367 27.8778 20.1405C27.8023 20.8444 27.5366 21.5145 27.1093 22.0789C26.6819 22.6432 26.109 23.0807 25.452 23.3442C23.8296 23.9922 21.6 25.653 21.6 28.4202V29.0202C21.6 29.6567 21.8529 30.2672 22.3029 30.7173C22.753 31.1674 23.3635 31.4202 24 31.4202C24.6365 31.4202 25.247 31.1674 25.6971 30.7173C26.1471 30.2672 26.4 29.6567 26.4 29.0202C26.4 28.4346 26.52 28.1418 27.0264 27.8922L27.2352 27.7962C29.1092 27.0424 30.6625 25.6601 31.629 23.8864C32.5954 22.1127 32.9148 20.0581 32.5323 18.0747C32.1498 16.0914 31.0893 14.3028 29.5326 13.0157C27.9759 11.7286 26.0199 11.0232 24 11.0202Z" fill="white"/>
</g>
<defs>
<clipPath id="clip0_1094_448">
<rect width="48" height="48" fill="white"/>
</clipPath>
</defs>
</svg>
