<svg width="49" height="49" viewBox="0 0 49 49" fill="none" xmlns="http://www.w3.org/2000/svg">
<g clip-path="url(#clip0_1094_411)">
<path d="M26.6664 49.0002C25.9109 49.0002 25.2771 48.7442 24.7651 48.2322C24.2531 47.7202 23.998 47.0873 23.9998 46.3336C23.9998 45.578 24.2558 44.9442 24.7678 44.4322C25.2798 43.9202 25.9126 43.6651 26.6664 43.6669H42.6664V6.33359H26.6664C25.9109 6.33359 25.2771 6.07758 24.7651 5.56559C24.2531 5.05359 23.998 4.4207 23.9998 3.66692C23.9998 2.91136 24.2558 2.27759 24.7678 1.76559C25.2798 1.25359 25.9126 0.998476 26.6664 1.00025H42.6664C44.1331 1.00025 45.3891 1.52292 46.4344 2.56825C47.4798 3.61359 48.0015 4.8687 47.9998 6.33359V43.6669C47.9998 45.1336 47.4771 46.3896 46.4318 47.4349C45.3864 48.4802 44.1313 49.002 42.6664 49.0002H26.6664ZM21.7998 27.6669H2.66643C1.91088 27.6669 1.2771 27.4109 0.765098 26.8989C0.253098 26.3869 -0.00201269 25.754 -0.000234913 25.0002C-0.000234913 24.2447 0.255765 23.6109 0.767765 23.0989C1.27976 22.5869 1.91265 22.3318 2.66643 22.3336H21.7998L16.7998 17.3336C16.3109 16.8447 16.0664 16.2447 16.0664 15.5336C16.0664 14.8225 16.3109 14.2002 16.7998 13.6669C17.2886 13.1336 17.9109 12.8554 18.6664 12.8322C19.422 12.8091 20.0664 13.0651 20.5998 13.6002L30.1331 23.1336C30.6664 23.6669 30.9331 24.2891 30.9331 25.0002C30.9331 25.7114 30.6664 26.3336 30.1331 26.8669L20.5998 36.4002C20.0664 36.9336 19.4335 37.1896 18.7011 37.1682C17.9686 37.1469 17.3349 36.8687 16.7998 36.3336C16.3109 35.8002 16.0771 35.1665 16.0984 34.4322C16.1198 33.698 16.3758 33.0874 16.8664 32.6002L21.7998 27.6669Z" fill="white"/>
</g>
<defs>
<clipPath id="clip0_1094_411">
<rect width="48" height="48" fill="white" transform="translate(0.48999 0.780029)"/>
</clipPath>
</defs>
</svg>
