<svg width="49" height="49" viewBox="0 0 49 49" fill="none" xmlns="http://www.w3.org/2000/svg">
<g clip-path="url(#clip0_1094_455)">
<path d="M24.9998 11.6001V6.80012C24.9998 4.16012 22.8398 2.00012 20.1998 2.00012H5.79976C3.15976 2.00012 0.999756 4.16012 0.999756 6.80012V40.4001C0.999756 43.0401 3.15976 45.2001 5.79976 45.2001H44.1998C46.8398 45.2001 48.9998 43.0401 48.9998 40.4001V16.4001C48.9998 13.7601 46.8398 11.6001 44.1998 11.6001H24.9998ZM10.5998 40.4001H5.79976V35.6001H10.5998V40.4001ZM10.5998 30.8001H5.79976V26.0001H10.5998V30.8001ZM10.5998 21.2001H5.79976V16.4001H10.5998V21.2001ZM10.5998 11.6001H5.79976V6.80012H10.5998V11.6001ZM20.1998 40.4001H15.3998V35.6001H20.1998V40.4001ZM20.1998 30.8001H15.3998V26.0001H20.1998V30.8001ZM20.1998 21.2001H15.3998V16.4001H20.1998V21.2001ZM20.1998 11.6001H15.3998V6.80012H20.1998V11.6001ZM41.7998 40.4001H24.9998V35.6001H29.7998V30.8001H24.9998V26.0001H29.7998V21.2001H24.9998V16.4001H41.7998C43.1198 16.4001 44.1998 17.4801 44.1998 18.8001V38.0001C44.1998 39.3201 43.1198 40.4001 41.7998 40.4001ZM39.3998 21.2001H34.5998V26.0001H39.3998V21.2001ZM39.3998 30.8001H34.5998V35.6001H39.3998V30.8001Z" fill="white"/>
</g>
<defs>
<clipPath id="clip0_1094_455">
<rect width="48" height="48" fill="white" transform="translate(0.98999 0.310181)"/>
</clipPath>
</defs>
</svg>
