<svg width="47" height="49" viewBox="0 0 47 49" fill="none" xmlns="http://www.w3.org/2000/svg">
<g clip-path="url(#clip0_1094_445)">
<g clip-path="url(#clip1_1094_445)">
<path d="M27.7633 3.28569C29.4088 9.30431 40.5691 11.2768 47.9889 15.1604C48.1525 18.7579 46.5172 22.5802 42.1941 25.6156C42.4905 32.7901 37.9221 36.8781 30.5126 39.147C30.4819 42.5401 29.2146 45.6879 25.6784 48.3758L19.6486 44.6556L24.4929 41.1604C24.309 38.544 23.5118 35.8153 18.8719 34.2822L16.184 24.7571C10.614 23.6942 10.8797 21.5582 10.4301 19.5551L3.79414 21.64C-1.22945 18.4717 -1.5103 13.934 4.43392 13.1164L5.1483 5.67822L10.379 6.61029L11.4316 2.80739L16.5008 2L18.6164 5.81516L27.7633 3.28569Z" fill="white"/>
</g>
</g>
<defs>
<clipPath id="clip0_1094_445">
<rect width="47" height="48" fill="white" transform="translate(0 0.110352)"/>
</clipPath>
<clipPath id="clip1_1094_445">
<rect width="48" height="48" fill="white" transform="translate(0 0.110352)"/>
</clipPath>
</defs>
</svg>
