<svg width="49" height="49" viewBox="0 0 49 49" fill="none" xmlns="http://www.w3.org/2000/svg">
<g clip-path="url(#clip0_1094_428)">
<path d="M12.0687 11.0223C12.2229 10.7995 12.3772 10.5938 12.5487 10.388V10.3709C13.8172 8.79376 15.4115 7.49091 17.2115 6.54805C16.5944 5.69091 15.5829 5.14233 14.4515 5.14233C12.5658 5.14233 11.0229 6.68519 11.0229 8.57091C11.0229 9.53091 11.4172 10.4052 12.0687 11.0223ZM30.7887 6.56519C32.5925 7.50044 34.1808 8.8026 35.4515 10.388L35.6075 10.5886C35.7275 10.7378 35.8407 10.8852 35.9487 11.0395C36.5829 10.4223 36.9944 9.54805 36.9944 8.58805C36.9944 6.70233 35.4515 5.15948 33.5658 5.15948C32.4344 5.15948 31.4229 5.70805 30.7887 6.56519ZM17.2115 16.2852C16.5258 16.2852 15.9704 16.6606 15.6172 17.132C15.2641 17.6035 15.0687 18.2155 15.0687 18.8566V20.5709C15.0687 21.212 15.2641 21.824 15.6172 22.2955C15.9704 22.7669 16.5258 23.1423 17.2115 23.1423C17.8972 23.1423 18.4527 22.7669 18.8058 22.2955C19.1589 21.824 19.3544 21.212 19.3544 20.5709V18.8566C19.3544 18.2155 19.1589 17.6035 18.8058 17.132C18.4527 16.6606 17.8972 16.2852 17.2115 16.2852ZM30.7887 16.2852C30.1029 16.2852 29.5475 16.6606 29.1944 17.132C28.8412 17.6035 28.6458 18.2155 28.6458 18.8566V20.5709C28.6458 21.212 28.8412 21.824 29.1944 22.2955C29.5475 22.7669 30.1029 23.1423 30.7887 23.1423C31.4744 23.1423 32.0298 22.7669 32.3829 22.2955C32.7361 21.824 32.9315 21.212 32.9315 20.5709V18.8566C32.9315 18.2155 32.7361 17.6035 32.3829 17.132C32.0298 16.6606 31.4744 16.2852 30.7887 16.2852Z" fill="white"/>
<path d="M46.9886 18.3424L45.7029 17.7081C45.5986 17.6487 45.4816 17.615 45.3617 17.6099C45.2418 17.6048 45.1224 17.6284 45.0134 17.6786C44.9045 17.7289 44.8091 17.8045 44.7352 17.8991C44.6613 17.9936 44.611 18.1045 44.5886 18.2224C44.52 18.5652 44.6914 18.9252 45 19.0795L46.7143 19.9367C47.5029 20.3309 48 21.1367 48 22.0109V33.0681C48 37.8509 44.8286 42.0509 40.2343 43.3709L25.0114 47.7252C24.3429 47.9138 23.64 47.9138 22.9886 47.7252L7.76571 43.3709C5.52852 42.7291 3.5609 41.3767 2.15998 39.5181C0.759062 37.6595 0.000906886 35.3955 0 33.0681V22.0109C0 21.1195 0.497143 20.3138 1.28571 19.9195L3 19.0624C3.32571 18.9081 3.49714 18.5652 3.41143 18.2052C3.29143 17.6909 2.77714 17.4681 2.29714 17.7081L1.01143 18.3424C0.905625 18.3967 0.78764 18.4229 0.668783 18.4186C0.549927 18.4142 0.434186 18.3794 0.332657 18.3174C0.231128 18.2555 0.147215 18.1685 0.0889656 18.0648C0.0307157 17.9611 8.15294e-05 17.8442 0 17.7252V10.9881C0.00226728 9.4384 0.618881 7.95284 1.71467 6.85704C2.81047 5.76125 4.29603 5.14464 5.84571 5.14237H6.85714L5.84571 2.10808C5.50286 1.07951 6.27429 -0.000488281 7.37143 -0.000488281H18.8571C19.9714 -0.000488281 21.0514 0.359512 21.9257 1.04523C23.16 1.9538 23.9143 3.37665 23.9829 4.90237H24C24.0857 3.37665 24.8229 1.9538 26.0571 1.02808C26.9486 0.359512 28.0286 -0.000488281 29.1429 -0.000488281H40.6286C41.7257 -0.000488281 42.4971 1.07951 42.1543 2.10808L41.1429 5.14237H42.1543C43.704 5.14464 45.1895 5.76125 46.2853 6.85704C47.3811 7.95284 47.9977 9.4384 48 10.9881V17.7252C48 18.2395 47.4514 18.5824 46.9886 18.3424ZM34.8634 34.0161C37.1388 33.4846 39.1674 32.1985 40.6188 30.3674C42.0703 28.5362 42.8592 26.2676 42.8571 23.9309C42.8571 21.7538 42.1714 19.6109 40.8857 17.8452L36.9429 12.4281C38.0571 11.4509 38.7429 9.9938 38.6914 8.38237C38.6057 5.63951 36.3086 3.42808 33.5657 3.42808C31.7143 3.42808 30.1029 4.38808 29.1943 5.84523C27.8033 7.19739 25.9399 7.95385 24 7.95385C22.0601 7.95385 20.1967 7.19739 18.8057 5.84523C18.342 5.10452 17.6974 4.494 16.9327 4.07114C16.1679 3.64828 15.3082 3.42698 14.4343 3.42808C11.6914 3.42808 9.41143 5.63951 9.30857 8.38237C9.25714 10.0109 9.94286 11.4509 11.0571 12.4281L7.11429 17.8452C5.82913 19.6138 5.13882 21.7448 5.14286 23.9309C5.14081 26.2727 5.93318 28.546 7.39047 30.3791C8.84776 32.2123 10.8838 33.4968 13.1657 34.0229C12.9546 32.8272 12.8514 31.6149 12.8571 30.4007H12.8829C12.8094 29.6705 12.8896 28.933 13.1184 28.2356C13.3471 27.5383 13.7193 26.8966 14.211 26.3518C14.7027 25.8069 15.303 25.3711 15.9733 25.0723C16.6435 24.7734 17.369 24.6182 18.1029 24.6167C18.2096 24.6189 18.3155 24.5978 18.4132 24.5548C18.5109 24.5119 18.598 24.4482 18.6686 24.3681L18.672 24.3647L22.0834 20.4218C22.32 20.1476 22.6129 19.9276 22.9421 19.7768C23.2714 19.626 23.6293 19.548 23.9914 19.548C24.3536 19.548 24.7115 19.626 25.0407 19.7768C25.37 19.9276 25.6629 20.1476 25.8994 20.4218L29.304 24.3578C29.3772 24.4381 29.4661 24.5025 29.5651 24.547C29.6642 24.5915 29.7714 24.6152 29.88 24.6167C30.6151 24.6166 31.342 24.7706 32.014 25.0686C32.6859 25.3667 33.288 25.8022 33.7814 26.3471C34.2748 26.892 34.6486 27.5342 34.8786 28.2324C35.1087 28.9306 35.1899 29.6692 35.1171 30.4007H35.1429C35.1429 31.7069 35.0469 32.9104 34.8634 34.0161ZM23.04 30.3767L19.6971 27.0338C19.5328 26.8735 19.4359 26.6565 19.426 26.4272C19.4161 26.1978 19.4941 25.9734 19.644 25.7995C19.2053 26.1461 18.6619 26.3334 18.1029 26.3309C16.1606 26.3309 14.5714 27.9167 14.5714 29.8795C14.5714 30.8207 14.9453 31.7232 15.6108 32.3887C16.2763 33.0542 17.1789 33.4281 18.12 33.4281H20.3314C21.5571 33.4281 22.6491 32.7938 23.2869 31.8389L23.9949 30.7761C23.6365 30.7733 23.2936 30.6299 23.04 30.3767ZM20.3657 25.4738H27.6857C27.8314 25.4738 27.9651 25.5047 28.08 25.5595C28.0614 25.5392 28.0431 25.5186 28.0251 25.4978L28.0149 25.4858L24.6034 21.5429C24.5278 21.4546 24.4339 21.3837 24.3283 21.3351C24.2226 21.2865 24.1077 21.2613 23.9914 21.2613C23.8751 21.2613 23.7602 21.2865 23.6546 21.3351C23.5489 21.3837 23.4551 21.4546 23.3794 21.5429L19.9714 25.4824L19.9697 25.4841C19.9269 25.5355 19.8823 25.5835 19.836 25.6281C19.9934 25.5254 20.1778 25.4717 20.3657 25.4738ZM28.3371 27.0338L24.9943 30.3767C24.7295 30.634 24.3744 30.7773 24.0051 30.7761L24.7131 31.8389C25.3509 32.7955 26.4446 33.4281 27.6686 33.4281H29.88C30.8211 33.4281 31.7237 33.0542 32.3892 32.3887C33.0547 31.7232 33.4286 30.8207 33.4286 29.8795C33.4286 28.9384 33.0547 28.0358 32.3892 27.3703C31.7237 26.7048 30.8211 26.3309 29.88 26.3309C29.3623 26.3309 28.8651 26.1647 28.4537 25.8767C28.5736 26.0524 28.6277 26.2648 28.6064 26.4765C28.5851 26.6882 28.4897 26.8855 28.3371 27.0338ZM29.88 35.1424H27.6686C26.2973 35.1413 24.9807 34.6043 24 33.6458C23.0193 34.6043 21.7027 35.1413 20.3314 35.1424H18.12C16.9621 35.144 15.8361 34.7625 14.9177 34.0572C15.3686 36.2584 16.2377 37.9487 17.3606 39.1829C19.0354 41.0224 21.3634 41.9327 24 41.9327C26.6657 41.9327 28.9886 41.1235 30.648 39.3544C31.7966 38.1321 32.6794 36.3972 33.12 34.0264C32.1956 34.7509 31.0545 35.144 29.88 35.1424Z" fill="white"/>
</g>
<defs>
<clipPath id="clip0_1094_428">
<rect width="48" height="48" fill="white" transform="translate(0.495117 0.109375)"/>
</clipPath>
</defs>
</svg>
