<svg width="49" height="49" viewBox="0 0 49 49" fill="none" xmlns="http://www.w3.org/2000/svg">
<g clip-path="url(#clip0_1108_615)">
<path fill-rule="evenodd" clip-rule="evenodd" d="M18.6358 2.3962C19.311 1.64213 20.1376 1.03891 21.0617 0.62594C21.9858 0.212966 22.9866 -0.000488281 23.9988 -0.000488281C25.011 -0.000488281 26.0118 0.212966 26.9359 0.62594C27.86 1.03891 28.6866 1.64213 29.3618 2.3962L31.0415 4.27265C31.2815 4.54118 31.5789 4.75222 31.9117 4.89013C32.2444 5.02804 32.6039 5.08928 32.9635 5.0693L35.4831 4.93013C36.4934 4.87464 37.5041 5.03277 38.4492 5.3942C39.3943 5.75563 40.2526 6.31225 40.968 7.02773C41.6835 7.74322 42.2401 8.60151 42.6016 9.54661C42.963 10.4917 43.1211 11.5024 43.0656 12.5127L42.9265 15.0322C42.9069 15.3915 42.9683 15.7505 43.1062 16.0828C43.2441 16.4151 43.4549 16.7121 43.7231 16.9519L45.602 18.6316C46.3564 19.3068 46.96 20.1335 47.3732 21.0579C47.7864 21.9822 48 22.9833 48 23.9958C48 25.0083 47.7864 26.0094 47.3732 26.9337C46.96 27.858 46.3564 28.6848 45.602 29.36L43.7231 31.0397C43.4546 31.2797 43.2436 31.5771 43.1056 31.9098C42.9677 32.2426 42.9065 32.6021 42.9265 32.9617L43.0656 35.4812C43.1211 36.4916 42.963 37.5022 42.6016 38.4473C42.2401 39.3924 41.6835 40.2507 40.968 40.9662C40.2526 41.6817 39.3943 42.2383 38.4492 42.5997C37.5041 42.9612 36.4934 43.1193 35.4831 43.0638L32.9635 42.9246C32.6043 42.905 32.2453 42.9664 31.913 43.1043C31.5807 43.2422 31.2837 43.4531 31.0439 43.7213L29.3642 45.6001C28.689 46.3546 27.8622 46.9582 26.9379 47.3714C26.0136 47.7846 25.0125 47.9982 24 47.9982C22.9875 47.9982 21.9864 47.7846 21.0621 47.3714C20.1378 46.9582 19.311 46.3546 18.6358 45.6001L16.9561 43.7213C16.7161 43.4528 16.4187 43.2417 16.0859 43.1038C15.7532 42.9659 15.3937 42.9047 15.0341 42.9246L12.5145 43.0638C11.5042 43.1193 10.4935 42.9612 9.54844 42.5997C8.60334 42.2383 7.74505 41.6817 7.02956 40.9662C6.31407 40.2507 5.75746 39.3924 5.39603 38.4473C5.0346 37.5022 4.87647 36.4916 4.93196 35.4812L5.07113 32.9617C5.09074 32.6025 5.02932 32.2434 4.89143 31.9112C4.75353 31.5789 4.54268 31.2818 4.27448 31.0421L2.39803 29.3624C1.64356 28.6872 1.04001 27.8604 0.626795 26.9361C0.213581 26.0118 0 25.0107 0 23.9982C0 22.9857 0.213581 21.9846 0.626795 21.0603C1.04001 20.1359 1.64356 19.3092 2.39803 18.634L4.27448 16.9543C4.543 16.7142 4.75405 16.4168 4.89196 16.0841C5.02987 15.7514 5.09111 15.3919 5.07113 15.0322L4.93196 12.5127C4.87647 11.5024 5.0346 10.4917 5.39603 9.54661C5.75746 8.60151 6.31407 7.74322 7.02956 7.02773C7.74505 6.31225 8.60334 5.75563 9.54844 5.3942C10.4935 5.03277 11.5042 4.87464 12.5145 4.93013L15.0341 5.0693C15.3933 5.08891 15.7523 5.02749 16.0846 4.8896C16.4169 4.7517 16.7139 4.54085 16.9537 4.27265L18.6334 2.3962H18.6358ZM32.8939 15.1018C33.3438 15.5518 33.5965 16.162 33.5965 16.7983C33.5965 17.4346 33.3438 18.0448 32.8939 18.4948L18.4966 32.8921C18.0441 33.3292 17.4379 33.5711 16.8088 33.5656C16.1796 33.5601 15.5778 33.3078 15.1329 32.8629C14.688 32.418 14.4356 31.8161 14.4302 31.187C14.4247 30.5578 14.6666 29.9517 15.1037 29.4991L29.501 15.1018C29.951 14.652 30.5612 14.3993 31.1975 14.3993C31.8337 14.3993 32.444 14.652 32.8939 15.1018ZM17.9999 14.3988C17.0453 14.3988 16.1298 14.778 15.4548 15.453C14.7798 16.128 14.4006 17.0435 14.4006 17.9981V18.0221C14.4006 18.9767 14.7798 19.8922 15.4548 20.5672C16.1298 21.2422 17.0453 21.6214 17.9999 21.6214H18.0239C18.9785 21.6214 19.894 21.2422 20.569 20.5672C21.244 19.8922 21.6232 18.9767 21.6232 18.0221V17.9981C21.6232 17.0435 21.244 16.128 20.569 15.453C19.894 14.778 18.9785 14.3988 18.0239 14.3988H17.9999ZM29.9977 26.3965C29.0431 26.3965 28.1276 26.7757 27.4526 27.4507C26.7776 28.1257 26.3984 29.0413 26.3984 29.9959V30.0198C26.3984 30.9744 26.7776 31.89 27.4526 32.565C28.1276 33.24 29.0431 33.6192 29.9977 33.6192H30.0217C30.9763 33.6192 31.8918 33.24 32.5668 32.565C33.2418 31.89 33.621 30.9744 33.621 30.0198V29.9959C33.621 29.0413 33.2418 28.1257 32.5668 27.4507C31.8918 26.7757 30.9763 26.3965 30.0217 26.3965H29.9977Z" fill="white"/>
</g>
<defs>
<clipPath id="clip0_1108_615">
<rect width="48" height="48" fill="white" transform="translate(0.495117 0.109375)"/>
</clipPath>
</defs>
</svg>
