<svg width="37" height="49" viewBox="0 0 37 49" fill="none" xmlns="http://www.w3.org/2000/svg">
<g clip-path="url(#clip0_1094_399)">
<path d="M6.49512 0.109985C3.18574 0.109985 0.495117 2.80061 0.495117 6.10999V42.11C0.495117 45.4194 3.18574 48.11 6.49512 48.11H30.4951C33.8045 48.11 36.4951 45.4194 36.4951 42.11V15.11H24.4951C22.8357 15.11 21.4951 13.7694 21.4951 12.11V0.109985H6.49512ZM24.4951 0.109985V12.11H36.4951L24.4951 0.109985ZM6.49512 7.60999C6.49512 6.78499 7.17012 6.10999 7.99512 6.10999H13.9951C14.8201 6.10999 15.4951 6.78499 15.4951 7.60999C15.4951 8.43499 14.8201 9.10999 13.9951 9.10999H7.99512C7.17012 9.10999 6.49512 8.43499 6.49512 7.60999ZM6.49512 13.61C6.49512 12.785 7.17012 12.11 7.99512 12.11H13.9951C14.8201 12.11 15.4951 12.785 15.4951 13.61C15.4951 14.435 14.8201 15.11 13.9951 15.11H7.99512C7.17012 15.11 6.49512 14.435 6.49512 13.61ZM18.4951 20.36C19.3201 20.36 19.9951 21.035 19.9951 21.86V23.4819C20.792 23.5944 21.5607 23.7725 22.2545 23.96C23.0514 24.1756 23.5295 24.9912 23.3139 25.7975C23.0982 26.6037 22.2826 27.0725 21.4764 26.8569C20.4357 26.5756 19.4139 26.3694 18.467 26.36C17.6795 26.3506 16.8357 26.5287 16.2545 26.8756C15.7201 27.1944 15.4951 27.56 15.4951 28.0756C15.4951 28.4225 15.617 28.685 16.1795 29.0225C16.8264 29.4069 17.7357 29.6881 18.917 30.0444L18.9639 30.0537C20.0232 30.3725 21.3357 30.7662 22.367 31.4225C23.5014 32.135 24.467 33.2694 24.4951 35.0037C24.5232 36.8131 23.5951 38.1256 22.3482 38.9037C21.6264 39.3537 20.8107 39.6162 19.9951 39.7569V41.36C19.9951 42.185 19.3201 42.86 18.4951 42.86C17.6701 42.86 16.9951 42.185 16.9951 41.36V39.6912C15.9451 39.4944 14.9607 39.1569 14.0982 38.8569C13.9014 38.7912 13.7045 38.7256 13.517 38.66C12.7295 38.3975 12.3076 37.5444 12.5701 36.7662C12.8326 35.9881 13.6857 35.5569 14.4639 35.8194C14.6982 35.8944 14.9139 35.9694 15.1295 36.0444C16.4045 36.4756 17.4357 36.8319 18.5326 36.86C19.3857 36.8881 20.2107 36.7006 20.7545 36.3631C21.2326 36.0631 21.4951 35.6787 21.4857 35.0506C21.4764 34.6194 21.317 34.3194 20.7639 33.9631C20.1264 33.56 19.217 33.2694 18.0451 32.9131L17.8951 32.8662C16.8639 32.5569 15.617 32.1819 14.6326 31.5819C13.5076 30.9069 12.5139 29.81 12.5045 28.085C12.4951 26.2662 13.517 25.01 14.7357 24.2881C15.4389 23.8756 16.217 23.6131 16.9951 23.4725V21.86C16.9951 21.035 17.6701 20.36 18.4951 20.36Z" fill="white"/>
</g>
<defs>
<clipPath id="clip0_1094_399">
<rect width="36" height="48" fill="white" transform="translate(0.495117 0.109985)"/>
</clipPath>
</defs>
</svg>
