<svg width="49" height="49" viewBox="0 0 49 49" fill="none" xmlns="http://www.w3.org/2000/svg">
<g clip-path="url(#clip0_1094_423)">
<path d="M33.2702 1.00024L32.0577 2.32921C29.3424 5.31801 27.1041 6.65437 25.2409 7.52864C23.3778 8.40107 21.8122 8.66169 20.2744 9.83909C18.6349 11.096 16.2524 13.5062 15.2487 17.8092C13.0972 18.2787 11.5224 19.1031 10.2803 20.177C9.05301 21.2379 8.12883 22.4449 6.99024 23.7591C6.981 23.7739 6.99579 23.8016 6.99024 23.8164C5.3563 25.6943 3.92752 27.7164 1.15498 28.7848L-0.000244141 29.2468V49.0002H35.235C37.2553 48.8912 38.6563 47.492 39.5084 46.1113C40.3586 44.7324 40.83 43.2389 41.0684 42.0116C41.6821 38.8842 42.8003 29.8808 42.8003 29.8808L42.8595 29.7089V29.5352C42.8003 28.2857 42.2865 27.2247 41.6451 26.2414L43.7245 20.0624L47.0183 15.094L47.9425 13.765L46.7281 12.6689L34.5992 2.15547L33.2702 1.00024ZM33.3866 6.08323L43.0314 14.46L40.4899 18.2122L40.318 18.3877L40.2588 18.6761L38.5842 23.6426C37.7099 23.2822 36.8098 23.029 35.8117 23.0659H35.6952L24.0284 23.1232H22.18V30.2856C21.9213 32.3003 20.8012 33.0803 19.4075 33.6367C18.9454 33.8234 18.8881 33.7217 18.4833 33.8086V23.0678C18.1802 16.2159 20.62 14.2437 22.5275 12.7854C23.0543 12.3806 24.5977 11.9129 26.8009 10.8797C28.6419 10.0128 30.9302 8.45837 33.3866 6.08323ZM14.9031 21.968C14.8957 22.3876 14.7644 22.6833 14.7866 23.1232V37.9101H16.635C16.635 37.9101 18.6127 37.8879 20.7365 37.0432C22.8584 36.1985 25.4221 34.2208 25.8768 30.7477V26.82L35.8117 26.7627H35.869C36.6804 26.7182 37.4763 26.9971 38.0826 27.5382C38.6888 28.0793 39.0559 28.8386 39.1036 29.6498C39.0962 29.6794 39.0112 30.3651 38.989 30.5167H31.4218V34.2134H38.5269C38.331 35.6422 38.1517 36.5386 37.9484 37.9101H31.4218V41.6068H37.3717C37.1533 42.5011 36.8025 43.3577 36.3311 44.1483C35.8265 44.9708 35.3921 45.2813 35.004 45.3035H3.69647V31.4981C6.69266 29.9086 8.5558 27.6221 9.76093 26.2433C11.0104 24.8126 11.8681 23.7295 12.7072 23.0086C13.2562 22.5392 14.1157 22.2711 14.9031 21.968Z" fill="white"/>
</g>
<defs>
<clipPath id="clip0_1094_423">
<rect width="48" height="48" fill="white" transform="translate(0.48999 0.780029)"/>
</clipPath>
</defs>
</svg>
