<svg width="49" height="49" viewBox="0 0 49 49" fill="none" xmlns="http://www.w3.org/2000/svg">
<path fill-rule="evenodd" clip-rule="evenodd" d="M33.0391 20.6539C33.0391 22.7757 32.1962 24.8105 30.6959 26.3108C29.1956 27.8111 27.1608 28.6539 25.0391 28.6539C22.9173 28.6539 20.8825 27.8111 19.3822 26.3108C17.8819 24.8105 17.0391 22.7757 17.0391 20.6539C17.0391 18.5322 17.8819 16.4974 19.3822 14.9971C20.8825 13.4968 22.9173 12.6539 25.0391 12.6539C27.1608 12.6539 29.1956 13.4968 30.6959 14.9971C32.1962 16.4974 33.0391 18.5322 33.0391 20.6539ZM29.0391 20.6539C29.0391 21.7148 28.6176 22.7322 27.8675 23.4824C27.1173 24.2325 26.0999 24.6539 25.0391 24.6539C23.9782 24.6539 22.9608 24.2325 22.2106 23.4824C21.4605 22.7322 21.0391 21.7148 21.0391 20.6539C21.0391 19.5931 21.4605 18.5756 22.2106 17.8255C22.9608 17.0754 23.9782 16.6539 25.0391 16.6539C26.0999 16.6539 27.1173 17.0754 27.8675 17.8255C28.6176 18.5756 29.0391 19.5931 29.0391 20.6539Z" fill="white"/>
<path fill-rule="evenodd" clip-rule="evenodd" d="M12.0831 33.1459C9.5048 30.6911 7.71234 27.5268 6.9324 24.0532C6.15246 20.5796 6.42007 16.9527 7.70141 13.6312C8.98274 10.3097 11.2202 7.44279 14.131 5.39295C17.0417 3.3431 20.4949 2.20242 24.0539 2.11515C27.6129 2.02788 31.1179 2.99795 34.1255 4.90267C37.1332 6.80739 39.5085 9.56122 40.9511 12.8159C42.3937 16.0706 42.8388 19.68 42.23 23.1877C41.6213 26.6953 39.986 29.9436 37.5311 32.5219L25.1191 45.5579L12.0831 33.1459ZM34.6351 29.7639L24.9811 39.9039L14.8411 30.2499C12.8359 28.3406 11.4418 25.8795 10.8352 23.1779C10.2286 20.4763 10.4368 17.6554 11.4334 15.0721C12.4299 12.4888 14.1701 10.259 16.4339 8.66466C18.6977 7.07033 21.3835 6.18309 24.1515 6.11513C26.9196 6.04717 29.6456 6.80153 31.9849 8.28284C34.3242 9.76414 36.1718 11.9059 37.2939 14.4372C38.4161 16.9685 38.7624 19.7757 38.2891 22.5038C37.8159 25.2319 36.5443 27.7585 34.6351 29.7639Z" fill="white"/>
</svg>
