<svg width="48" height="48" viewBox="0 0 48 48" fill="none" xmlns="http://www.w3.org/2000/svg">
<path fill-rule="evenodd" clip-rule="evenodd" d="M21.6733 0.0612813C16.971 0.543297 12.6842 2.29117 8.95487 5.2471C7.86134 6.11379 6.14141 7.83382 5.26281 8.93935C3.31642 11.3886 1.74509 14.3876 0.936577 17.1965C0.276673 19.4894 -9.5975e-05 21.4969 2.49647e-08 23.9906C0.000192025 26.4703 0.278305 28.5398 0.900961 30.6945C1.72512 33.5468 3.35165 36.6832 5.23046 39.0429C5.9471 39.943 8.06524 42.0612 8.96544 42.7778C12.2328 45.3791 16.1149 47.0883 20.3149 47.7746C21.807 48.0183 25.0958 48.0768 26.7318 47.8886C34.4935 46.9957 41.2314 42.4886 45.0588 35.6295C46.4643 33.1109 47.3773 30.3595 47.8431 27.24C48.0517 25.842 48.0525 22.1483 47.8443 20.7423C46.8688 14.1555 43.5705 8.60739 38.2847 4.66179C35.1763 2.34157 31.5008 0.818047 27.5543 0.21392C26.2806 0.0188479 22.9342 -0.0680306 21.6733 0.0612813ZM15.9457 13.4426C15.9961 13.5368 15.8555 15.8609 15.5391 20.1666C14.9881 27.6659 14.9717 28.1548 15.2448 28.9262C15.6644 30.1115 16.3738 30.8686 17.6282 31.4704C20.3297 32.7659 23.567 33.1763 26.7673 32.6286C28.4104 32.3473 30.4372 31.5855 31.3286 30.9138C32.3609 30.1363 32.9824 28.912 32.9833 27.6545C32.9835 27.3813 32.7597 24.0915 32.4861 20.3439C32.1037 15.1076 32.0108 13.5032 32.0846 13.4143C32.1628 13.3202 32.588 13.2989 34.3707 13.2999C35.5754 13.3006 36.6135 13.3345 36.6779 13.3752C36.7704 13.4338 36.8958 14.8074 37.2765 19.9335C37.8087 27.0995 37.8494 28.1219 37.644 29.1787C37.0448 32.2621 35.1415 34.5974 32.1326 35.941C31.0127 36.4409 29.3537 36.9931 28.2695 37.2267C26.4456 37.6196 23.8209 37.7558 21.8671 37.5588C19.007 37.2704 15.573 36.0782 13.8394 34.7718C11.8011 33.2361 10.5458 31.0105 10.2727 28.4487C10.1862 27.6379 10.2186 27.0242 10.6858 20.6189C10.9645 16.7963 11.2274 13.5856 11.2699 13.4837L11.3472 13.2986H13.6079C15.677 13.2986 15.8753 13.3108 15.9457 13.4426Z" fill="white"/>
</svg>
